font-awesome-extension.ufo
<glyph name="smaller" format="2">
  <advance width="1200"/>
  <unicode hex="E200"/>
  <note>
smaller
</note>
  <outline>
    <contour>
      <point x="165" y="669"/>
      <point x="197" y="638" type="qcurve" smooth="yes"/>
      <point x="249" y="582" type="line"/>
      <point x="255" y="580" type="line"/>
      <point x="803" y="29" type="line" smooth="yes"/>
      <point x="832" y="0"/>
      <point x="919" y="0"/>
      <point x="951" y="29" type="qcurve" smooth="yes"/>
      <point x="1003" y="84" type="line" smooth="yes"/>
      <point x="1035" y="113"/>
      <point x="1035" y="200"/>
      <point x="1003" y="229" type="qcurve" smooth="yes"/>
      <point x="525" y="710" type="line"/>
      <point x="1003" y="1191" type="line" smooth="yes"/>
      <point x="1035" y="1220"/>
      <point x="1035" y="1307"/>
      <point x="1003" y="1336" type="qcurve" smooth="yes"/>
      <point x="951" y="1391" type="line" smooth="yes"/>
      <point x="919" y="1420"/>
      <point x="832" y="1420"/>
      <point x="803" y="1391" type="qcurve" smooth="yes"/>
      <point x="255" y="840" type="line"/>
      <point x="252" y="840"/>
      <point x="249" y="838" type="qcurve" smooth="yes"/>
      <point x="197" y="782" type="line" smooth="yes"/>
      <point x="165" y="751"/>
    </contour>
  </outline>
</glyph>
<glyph name="snowing" format="2">
  <advance width="1200"/>
  <unicode hex="E201"/>
  <note>
snowing
</note>
  <outline>
    <contour>
      <point x="1054" y="990"/>
      <point x="964" y="990" type="qcurve" smooth="yes"/>
      <point x="928" y="990"/>
      <point x="885" y="974" type="qcurve"/>
      <point x="871" y="1074"/>
      <point x="716" y="1207"/>
      <point x="614" y="1207" type="qcurve" smooth="yes"/>
      <point x="503" y="1207"/>
      <point x="341" y="1045"/>
      <point x="341" y="931" type="qcurve" smooth="yes"/>
      <point x="341" y="922" type="line"/>
      <point x="339" y="922"/>
      <point x="334" y="924"/>
      <point x="331" y="924" type="qcurve" smooth="yes"/>
      <point x="270" y="924"/>
      <point x="184" y="836"/>
      <point x="184" y="774" type="qcurve" smooth="yes"/>
      <point x="184" y="772" type="line"/>
      <point x="165" y="779"/>
      <point x="146" y="779" type="qcurve" smooth="yes"/>
      <point x="94" y="779"/>
      <point x="20" y="703"/>
      <point x="20" y="651" type="qcurve" smooth="yes"/>
      <point x="20" y="555"/>
      <point x="146" y="555" type="qcurve" smooth="yes"/>
      <point x="964" y="555" type="line" smooth="yes"/>
      <point x="1052" y="555"/>
      <point x="1180" y="681"/>
      <point x="1180" y="862"/>
    </contour>
    <contour>
      <point x="262" y="510"/>
      <point x="243" y="510" type="qcurve" smooth="yes"/>
      <point x="222" y="510"/>
      <point x="222" y="491" type="qcurve" smooth="yes"/>
      <point x="222" y="470"/>
      <point x="243" y="470" type="qcurve" smooth="yes"/>
      <point x="262" y="470"/>
      <point x="262" y="491" type="qcurve" smooth="yes"/>
    </contour>
    <contour>
      <point x="465" y="491"/>
      <point x="443" y="491" type="qcurve" smooth="yes"/>
      <point x="424" y="491"/>
      <point x="424" y="470" type="qcurve" smooth="yes"/>
      <point x="424" y="451"/>
      <point x="443" y="451" type="qcurve" smooth="yes"/>
      <point x="465" y="451"/>
      <point x="465" y="470" type="qcurve" smooth="yes"/>
    </contour>
    <contour>
      <point x="372" y="370"/>
      <point x="353" y="370" type="qcurve" smooth="yes"/>
      <point x="331" y="370"/>
      <point x="331" y="349" type="qcurve" smooth="yes"/>
      <point x="331" y="330"/>
      <point x="353" y="330" type="qcurve" smooth="yes"/>
      <point x="372" y="330"/>
      <point x="372" y="349" type="qcurve" smooth="yes"/>
    </contour>
    <contour>
      <point x="793" y="532"/>
      <point x="774" y="532" type="qcurve" smooth="yes"/>
      <point x="752" y="532"/>
      <point x="752" y="510" type="qcurve" smooth="yes"/>
      <point x="752" y="491"/>
      <point x="774" y="491" type="qcurve" smooth="yes"/>
      <point x="793" y="491"/>
      <point x="793" y="510" type="qcurve" smooth="yes"/>
    </contour>
    <contour>
      <point x="681" y="410"/>
      <point x="659" y="410" type="qcurve" smooth="yes"/>
      <point x="640" y="410"/>
      <point x="640" y="389" type="qcurve" smooth="yes"/>
      <point x="640" y="370"/>
      <point x="659" y="370" type="qcurve" smooth="yes"/>
      <point x="681" y="370"/>
      <point x="681" y="389" type="qcurve" smooth="yes"/>
    </contour>
    <contour>
      <point x="814" y="389"/>
      <point x="793" y="389" type="qcurve" smooth="yes"/>
      <point x="774" y="389"/>
      <point x="774" y="370" type="qcurve" smooth="yes"/>
      <point x="774" y="349"/>
      <point x="793" y="349" type="qcurve" smooth="yes"/>
      <point x="814" y="349"/>
      <point x="814" y="370" type="qcurve" smooth="yes"/>
    </contour>
    <contour>
      <point x="529" y="349"/>
      <point x="510" y="349" type="qcurve" smooth="yes"/>
      <point x="488" y="349"/>
      <point x="488" y="330" type="qcurve" smooth="yes"/>
      <point x="488" y="308"/>
      <point x="510" y="308" type="qcurve" smooth="yes"/>
      <point x="529" y="308"/>
      <point x="529" y="330" type="qcurve" smooth="yes"/>
    </contour>
    <contour>
      <point x="681" y="254"/>
      <point x="659" y="254" type="qcurve" smooth="yes"/>
      <point x="640" y="254"/>
      <point x="640" y="232" type="qcurve" smooth="yes"/>
      <point x="640" y="213"/>
      <point x="659" y="213" type="qcurve" smooth="yes"/>
      <point x="681" y="213"/>
      <point x="681" y="232" type="qcurve" smooth="yes"/>
    </contour>
    <contour>
      <point x="949" y="491"/>
      <point x="928" y="491" type="qcurve" smooth="yes"/>
      <point x="909" y="491"/>
      <point x="909" y="470" type="qcurve" smooth="yes"/>
      <point x="909" y="451"/>
      <point x="928" y="451" type="qcurve" smooth="yes"/>
      <point x="949" y="451"/>
      <point x="949" y="470" type="qcurve" smooth="yes"/>
    </contour>
    <contour>
      <point x="262" y="308"/>
      <point x="243" y="308" type="qcurve" smooth="yes"/>
      <point x="222" y="308"/>
      <point x="222" y="289" type="qcurve" smooth="yes"/>
      <point x="222" y="268"/>
      <point x="243" y="268" type="qcurve" smooth="yes"/>
      <point x="262" y="268"/>
      <point x="262" y="289" type="qcurve" smooth="yes"/>
    </contour>
  </outline>
</glyph>
<glyph name="soda" format="2">
  <advance width="1200"/>
  <unicode hex="E202"/>
  <note>
soda
</note>
  <outline>
    <contour>
      <point x="474" y="0" type="line"/>
      <point x="726" y="0" type="line"/>
      <point x="788" y="9"/>
      <point x="805" y="91" type="qcurve" smooth="yes"/>
      <point x="823" y="170"/>
      <point x="794" y="282" type="qcurve"/>
      <point x="785" y="340"/>
      <point x="805" y="434" type="qcurve" smooth="yes"/>
      <point x="846" y="657"/>
      <point x="814" y="886" type="qcurve" smooth="yes"/>
      <point x="808" y="933"/>
      <point x="779" y="1012"/>
      <point x="729" y="1100"/>
      <point x="726" y="1106" type="qcurve" smooth="yes"/>
      <point x="709" y="1141"/>
      <point x="688" y="1235"/>
      <point x="688" y="1262" type="qcurve" smooth="yes"/>
      <point x="685" y="1291" type="line"/>
      <point x="706" y="1291" type="line"/>
      <point x="706" y="1329" type="line"/>
      <point x="700" y="1335" type="line"/>
      <point x="700" y="1414" type="line"/>
      <point x="600" y="1420" type="line"/>
      <point x="500" y="1414" type="line"/>
      <point x="500" y="1335" type="line"/>
      <point x="494" y="1329" type="line"/>
      <point x="494" y="1291" type="line"/>
      <point x="515" y="1291" type="line"/>
      <point x="515" y="1188"/>
      <point x="474" y="1106" type="qcurve" smooth="yes"/>
      <point x="471" y="1100"/>
      <point x="421" y="1012"/>
      <point x="392" y="933"/>
      <point x="386" y="886" type="qcurve" smooth="yes"/>
      <point x="354" y="657"/>
      <point x="395" y="434" type="qcurve" smooth="yes"/>
      <point x="415" y="340"/>
      <point x="406" y="285" type="qcurve" smooth="yes"/>
      <point x="380" y="167"/>
      <point x="395" y="91" type="qcurve" smooth="yes"/>
      <point x="403" y="56"/>
      <point x="442" y="9"/>
      <point x="459" y="6" type="qcurve"/>
    </contour>
  </outline>
</glyph>
<glyph name="sofa" format="2">
  <advance width="1200"/>
  <unicode hex="E203"/>
  <note>
sofa
</note>
  <outline>
    <contour>
      <point x="954" y="617"/>
      <point x="854" y="617" type="qcurve" smooth="yes"/>
      <point x="346" y="617" type="line" smooth="yes"/>
      <point x="246" y="617"/>
      <point x="246" y="544" type="qcurve" smooth="yes"/>
      <point x="246" y="413" type="line"/>
      <point x="954" y="413" type="line"/>
      <point x="954" y="544" type="line" smooth="yes"/>
    </contour>
    <contour>
      <point x="1061" y="791" type="qcurve"/>
      <point x="1061" y="876" type="line" smooth="yes"/>
      <point x="1061" y="929"/>
      <point x="949" y="1002"/>
      <point x="869" y="1005" type="qcurve"/>
      <point x="869" y="1007" type="line"/>
      <point x="861" y="1007" type="line"/>
      <point x="859" y="1007" type="line"/>
      <point x="783" y="1007" type="line"/>
      <point x="778" y="1007" type="line"/>
      <point x="419" y="1007" type="line"/>
      <point x="417" y="1007" type="line"/>
      <point x="341" y="1007" type="line" smooth="yes"/>
      <point x="258" y="1007"/>
      <point x="139" y="931"/>
      <point x="139" y="876" type="qcurve" smooth="yes"/>
      <point x="139" y="791" type="line"/>
      <point x="248" y="748"/>
      <point x="248" y="672" type="qcurve" smooth="yes"/>
      <point x="248" y="646" type="line"/>
      <point x="952" y="646" type="line"/>
      <point x="952" y="672" type="line" smooth="yes"/>
      <point x="952" y="748"/>
    </contour>
    <contour>
      <point x="1180" y="779"/>
      <point x="1149" y="786" type="qcurve"/>
      <point x="1080" y="779"/>
      <point x="990" y="715"/>
      <point x="990" y="672" type="qcurve" smooth="yes"/>
      <point x="990" y="413" type="line"/>
      <point x="1180" y="413" type="line"/>
      <point x="1180" y="753" type="line" smooth="yes"/>
    </contour>
    <contour>
      <point x="120" y="779"/>
      <point x="51" y="786" type="qcurve"/>
      <point x="20" y="779"/>
      <point x="20" y="753" type="qcurve" smooth="yes"/>
      <point x="20" y="413" type="line"/>
      <point x="210" y="413" type="line"/>
      <point x="210" y="672" type="line" smooth="yes"/>
      <point x="210" y="715"/>
    </contour>
  </outline>
</glyph>
<glyph name="soup" format="2">
  <advance width="1200"/>
  <unicode hex="E204"/>
  <note>
soup
</note>
  <outline>
    <contour>
      <point x="20" y="135" type="line"/>
      <point x="1180" y="135" type="line"/>
      <point x="1180" y="233" type="line"/>
      <point x="20" y="233" type="line"/>
    </contour>
    <contour>
      <point x="349" y="1058"/>
      <point x="354" y="1044" type="qcurve"/>
      <point x="354" y="1037"/>
      <point x="357" y="1035" type="qcurve"/>
      <point x="357" y="1032" type="line"/>
      <point x="359" y="1030"/>
      <point x="359" y="1027" type="qcurve"/>
      <point x="361" y="1025"/>
      <point x="366" y="1016"/>
      <point x="368" y="1013" type="qcurve" smooth="yes"/>
      <point x="378" y="1004" type="line" smooth="yes"/>
      <point x="380" y="1001"/>
      <point x="388" y="996" type="qcurve"/>
      <point x="390" y="996"/>
      <point x="390" y="994" type="qcurve"/>
      <point x="395" y="992" type="line" smooth="yes"/>
      <point x="409" y="987"/>
      <point x="409" y="987" type="qcurve"/>
      <point x="414" y="987" type="line"/>
      <point x="414" y="992" type="line"/>
      <point x="411" y="994"/>
      <point x="411" y="1004" type="qcurve" smooth="yes"/>
      <point x="411" y="1011" type="line"/>
      <point x="411" y="1020" type="line" smooth="yes"/>
      <point x="411" y="1030"/>
      <point x="416" y="1039" type="qcurve"/>
      <point x="416" y="1044" type="line"/>
      <point x="419" y="1047" type="line" smooth="yes"/>
      <point x="421" y="1049"/>
      <point x="421" y="1051" type="qcurve"/>
      <point x="423" y="1054" type="line"/>
      <point x="426" y="1056" type="line"/>
      <point x="428" y="1058" type="line" smooth="yes"/>
      <point x="433" y="1063"/>
      <point x="435" y="1063" type="qcurve"/>
      <point x="440" y="1068"/>
      <point x="440" y="1070" type="qcurve"/>
      <point x="442" y="1070"/>
      <point x="447" y="1075" type="qcurve"/>
      <point x="450" y="1075" type="line"/>
      <point x="452" y="1078" type="line" smooth="yes"/>
      <point x="457" y="1082"/>
      <point x="459" y="1082" type="qcurve"/>
      <point x="464" y="1087" type="line"/>
      <point x="473" y="1094" type="line" smooth="yes"/>
      <point x="493" y="1109"/>
      <point x="502" y="1128" type="qcurve" smooth="yes"/>
      <point x="516" y="1152"/>
      <point x="519" y="1171" type="qcurve" smooth="yes"/>
      <point x="524" y="1192"/>
      <point x="514" y="1230"/>
      <point x="495" y="1259"/>
      <point x="471" y="1278" type="qcurve"/>
      <point x="469" y="1278"/>
      <point x="462" y="1283"/>
      <point x="459" y="1285" type="qcurve"/>
      <point x="457" y="1285" type="line" smooth="yes"/>
      <point x="454" y="1285"/>
      <point x="454" y="1280" type="qcurve" smooth="yes"/>
      <point x="454" y="1269" type="line" smooth="yes"/>
      <point x="454" y="1259"/>
      <point x="450" y="1230" type="qcurve" smooth="yes"/>
      <point x="450" y="1221"/>
      <point x="445" y="1211" type="qcurve" smooth="yes"/>
      <point x="442" y="1206"/>
      <point x="435" y="1197"/>
      <point x="435" y="1195" type="qcurve"/>
      <point x="423" y="1183" type="line" smooth="yes"/>
      <point x="419" y="1175"/>
      <point x="409" y="1168" type="qcurve" smooth="yes"/>
      <point x="404" y="1166" type="line"/>
      <point x="404" y="1163" type="line"/>
      <point x="402" y="1161" type="line"/>
      <point x="400" y="1161" type="line"/>
      <point x="397" y="1159" type="line"/>
      <point x="392" y="1154" type="line"/>
      <point x="388" y="1149" type="line"/>
      <point x="385" y="1147" type="line" smooth="yes"/>
      <point x="380" y="1142"/>
      <point x="371" y="1128" type="qcurve"/>
      <point x="361" y="1121"/>
      <point x="359" y="1109" type="qcurve"/>
      <point x="357" y="1106"/>
      <point x="357" y="1104" type="qcurve"/>
      <point x="354" y="1099"/>
      <point x="354" y="1097" type="qcurve"/>
      <point x="352" y="1092" type="line"/>
      <point x="352" y="1090"/>
      <point x="352" y="1087" type="qcurve" smooth="yes"/>
      <point x="352" y="1080"/>
      <point x="349" y="1075" type="qcurve"/>
      <point x="349" y="1070" type="line"/>
      <point x="349" y="1066" type="line" smooth="yes"/>
    </contour>
    <contour>
      <point x="538" y="1051"/>
      <point x="540" y="1044" type="qcurve"/>
      <point x="543" y="1044"/>
      <point x="543" y="1035"/>
      <point x="545" y="1035" type="qcurve"/>
      <point x="547" y="1032" type="line"/>
      <point x="547" y="1030"/>
      <point x="547" y="1025"/>
      <point x="555" y="1016"/>
      <point x="557" y="1013" type="qcurve" smooth="yes"/>
      <point x="567" y="1004" type="line" smooth="yes"/>
      <point x="571" y="999"/>
      <point x="576" y="996" type="qcurve" smooth="yes"/>
      <point x="579" y="994" type="line" smooth="yes"/>
      <point x="581" y="992"/>
      <point x="586" y="992"/>
      <point x="595" y="987"/>
      <point x="598" y="987" type="qcurve" smooth="yes"/>
      <point x="602" y="987" type="line"/>
      <point x="602" y="989"/>
      <point x="600" y="992" type="qcurve"/>
      <point x="600" y="1004" type="line"/>
      <point x="600" y="1011" type="line"/>
      <point x="600" y="1020" type="line" smooth="yes"/>
      <point x="600" y="1030"/>
      <point x="605" y="1039" type="qcurve"/>
      <point x="605" y="1044" type="line"/>
      <point x="607" y="1047" type="line"/>
      <point x="607" y="1049"/>
      <point x="610" y="1051" type="qcurve"/>
      <point x="610" y="1054"/>
      <point x="612" y="1054" type="qcurve"/>
      <point x="612" y="1056"/>
      <point x="614" y="1056" type="qcurve"/>
      <point x="617" y="1058" type="line"/>
      <point x="621" y="1063" type="line"/>
      <point x="629" y="1070" type="line"/>
      <point x="631" y="1070"/>
      <point x="636" y="1075" type="qcurve"/>
      <point x="638" y="1075" type="line"/>
      <point x="641" y="1078" type="line" smooth="yes"/>
      <point x="645" y="1082"/>
      <point x="648" y="1082" type="qcurve"/>
      <point x="653" y="1087" type="line"/>
      <point x="662" y="1094" type="line" smooth="yes"/>
      <point x="674" y="1104"/>
      <point x="691" y="1128" type="qcurve" smooth="yes"/>
      <point x="705" y="1152"/>
      <point x="707" y="1171" type="qcurve" smooth="yes"/>
      <point x="712" y="1195"/>
      <point x="705" y="1211" type="qcurve"/>
      <point x="703" y="1228"/>
      <point x="693" y="1245" type="qcurve" smooth="yes"/>
      <point x="686" y="1259"/>
      <point x="660" y="1278" type="qcurve"/>
      <point x="650" y="1283"/>
      <point x="648" y="1285" type="qcurve"/>
      <point x="643" y="1285" type="line"/>
      <point x="643" y="1280" type="line"/>
      <point x="643" y="1269" type="line" smooth="yes"/>
      <point x="643" y="1259"/>
      <point x="638" y="1230" type="qcurve" smooth="yes"/>
      <point x="633" y="1214"/>
      <point x="631" y="1211" type="qcurve"/>
      <point x="629" y="1204"/>
      <point x="624" y="1195" type="qcurve"/>
      <point x="612" y="1183" type="line"/>
      <point x="598" y="1168" type="line"/>
      <point x="593" y="1166" type="line"/>
      <point x="593" y="1163" type="line"/>
      <point x="590" y="1161" type="line"/>
      <point x="588" y="1161" type="line"/>
      <point x="586" y="1159" type="line" smooth="yes"/>
      <point x="581" y="1154"/>
      <point x="579" y="1154" type="qcurve"/>
      <point x="576" y="1149" type="line"/>
      <point x="574" y="1149"/>
      <point x="574" y="1147" type="qcurve"/>
      <point x="567" y="1142"/>
      <point x="557" y="1128" type="qcurve" smooth="yes"/>
      <point x="547" y="1109" type="line"/>
      <point x="545" y="1106"/>
      <point x="545" y="1104" type="qcurve"/>
      <point x="543" y="1099"/>
      <point x="543" y="1097" type="qcurve" smooth="yes"/>
      <point x="543" y="1092" type="line"/>
      <point x="540" y="1090"/>
      <point x="540" y="1085"/>
      <point x="538" y="1078"/>
      <point x="538" y="1075" type="qcurve" smooth="yes"/>
      <point x="538" y="1070" type="line"/>
      <point x="538" y="1066" type="line" smooth="yes"/>
    </contour>
  </outline>
</glyph>
<glyph name="spermatozoon" format="2">
  <advance width="1200"/>
  <unicode hex="E205"/>
  <note>
spermatozoon
</note>
  <outline>
    <contour>
      <point x="1180" y="72"/>
      <point x="1163" y="75" type="qcurve" smooth="yes"/>
      <point x="1113" y="86"/>
      <point x="1038" y="175"/>
      <point x="1036" y="228" type="qcurve" smooth="yes"/>
      <point x="1033" y="291"/>
      <point x="941" y="405"/>
      <point x="877" y="419" type="qcurve"/>
      <point x="875" y="422" type="line"/>
      <point x="819" y="436"/>
      <point x="786" y="477" type="qcurve" smooth="yes"/>
      <point x="747" y="527"/>
      <point x="747" y="575" type="qcurve" smooth="yes"/>
      <point x="741" y="677"/>
      <point x="647" y="738" type="qcurve"/>
      <point x="642" y="744"/>
      <point x="630" y="749" type="qcurve" smooth="yes"/>
      <point x="605" y="763"/>
      <point x="583" y="766" type="qcurve"/>
      <point x="533" y="780"/>
      <point x="458" y="869"/>
      <point x="456" y="922" type="qcurve" smooth="yes"/>
      <point x="450" y="960"/>
      <point x="439" y="988" type="qcurve" smooth="yes"/>
      <point x="403" y="1066"/>
      <point x="333" y="1099" type="qcurve"/>
      <point x="333" y="1105"/>
      <point x="336" y="1107" type="qcurve" smooth="yes"/>
      <point x="406" y="1199"/>
      <point x="308" y="1296" type="qcurve" smooth="yes"/>
      <point x="250" y="1355"/>
      <point x="89" y="1399"/>
      <point x="45" y="1363" type="qcurve"/>
      <point x="6" y="1318"/>
      <point x="50" y="1157"/>
      <point x="109" y="1096" type="qcurve" smooth="yes"/>
      <point x="195" y="1013"/>
      <point x="281" y="1060" type="qcurve"/>
      <point x="306" y="1069" type="line"/>
      <point x="372" y="1044"/>
      <point x="403" y="974" type="qcurve"/>
      <point x="411" y="960"/>
      <point x="417" y="922" type="qcurve" smooth="yes"/>
      <point x="417" y="919" type="line" smooth="yes"/>
      <point x="419" y="855"/>
      <point x="511" y="741"/>
      <point x="575" y="727" type="qcurve" smooth="yes"/>
      <point x="594" y="724"/>
      <point x="614" y="713" type="qcurve" smooth="yes"/>
      <point x="619" y="711" type="line" smooth="yes"/>
      <point x="625" y="708"/>
      <point x="630" y="702" type="qcurve" smooth="yes"/>
      <point x="633" y="699"/>
      <point x="642" y="694"/>
      <point x="644" y="694" type="qcurve"/>
      <point x="650" y="688" type="line" smooth="yes"/>
      <point x="700" y="638"/>
      <point x="705" y="575" type="qcurve" smooth="yes"/>
      <point x="711" y="502"/>
      <point x="755" y="452" type="qcurve" smooth="yes"/>
      <point x="797" y="400"/>
      <point x="866" y="380" type="qcurve" smooth="yes"/>
      <point x="919" y="369"/>
      <point x="994" y="280"/>
      <point x="997" y="228" type="qcurve" smooth="yes"/>
      <point x="1000" y="161"/>
      <point x="1091" y="50"/>
      <point x="1155" y="36" type="qcurve" smooth="yes"/>
      <point x="1174" y="30"/>
      <point x="1180" y="50" type="qcurve" smooth="yes"/>
      <point x="1180" y="53" type="line" smooth="yes"/>
    </contour>
  </outline>
</glyph>
<glyph name="spin-double" format="2">
  <advance width="1200"/>
  <unicode hex="E206"/>
  <note>
spin-double
</note>
  <outline>
    <contour>
      <point x="870" y="1269"/>
      <point x="643" y="1288" type="qcurve"/>
      <point x="839" y="1257"/>
      <point x="1102" y="954"/>
      <point x="1102" y="750" type="qcurve" smooth="yes"/>
      <point x="1102" y="537"/>
      <point x="813" y="227"/>
      <point x="602" y="210" type="qcurve" smooth="yes"/>
      <point x="600" y="210" type="line"/>
      <point x="598" y="210" type="line" smooth="yes"/>
      <point x="560" y="206"/>
      <point x="560" y="170" type="qcurve" smooth="yes"/>
      <point x="560" y="154"/>
      <point x="583" y="130"/>
      <point x="600" y="130" type="qcurve" smooth="yes"/>
      <point x="839" y="130"/>
      <point x="1180" y="471"/>
      <point x="1180" y="710" type="qcurve" smooth="yes"/>
      <point x="1180" y="937"/>
    </contour>
    <contour>
      <point x="98" y="466"/>
      <point x="98" y="667" type="qcurve" smooth="yes"/>
      <point x="98" y="880"/>
      <point x="387" y="1191"/>
      <point x="598" y="1207" type="qcurve" smooth="yes"/>
      <point x="600" y="1207" type="line"/>
      <point x="602" y="1210" type="line"/>
      <point x="640" y="1210"/>
      <point x="640" y="1247" type="qcurve" smooth="yes"/>
      <point x="640" y="1250" type="line" smooth="yes"/>
      <point x="640" y="1266"/>
      <point x="617" y="1290"/>
      <point x="600" y="1290" type="qcurve"/>
      <point x="598" y="1288" type="line"/>
      <point x="595" y="1288"/>
      <point x="593" y="1288" type="qcurve" smooth="yes"/>
      <point x="354" y="1283"/>
      <point x="20" y="947"/>
      <point x="20" y="710" type="qcurve" smooth="yes"/>
      <point x="20" y="483"/>
      <point x="330" y="149"/>
      <point x="557" y="132" type="qcurve"/>
      <point x="361" y="163"/>
    </contour>
  </outline>
</glyph>
<glyph name="stomach" format="2">
  <advance width="1200"/>
  <unicode hex="E207"/>
  <note>
stomach
</note>
  <outline>
    <contour>
      <point x="978" y="1420"/>
      <point x="797" y="1420" type="qcurve" smooth="yes"/>
      <point x="626" y="1420"/>
      <point x="407" y="1266"/>
      <point x="422" y="1074" type="qcurve"/>
      <point x="308" y="1114"/>
      <point x="279" y="1231" type="qcurve" smooth="yes"/>
      <point x="259" y="1304"/>
      <point x="180" y="1289" type="qcurve" smooth="yes"/>
      <point x="148" y="1280"/>
      <point x="116" y="1222"/>
      <point x="125" y="1190" type="qcurve" smooth="yes"/>
      <point x="160" y="1056"/>
      <point x="349" y="920"/>
      <point x="457" y="899" type="qcurve"/>
      <point x="503" y="745"/>
      <point x="466" y="602" type="qcurve"/>
      <point x="463" y="597" type="line"/>
      <point x="463" y="594" type="line"/>
      <point x="431" y="486"/>
      <point x="262" y="460" type="qcurve"/>
      <point x="119" y="492"/>
      <point x="58" y="393" type="qcurve" smooth="yes"/>
      <point x="12" y="314"/>
      <point x="55" y="111"/>
      <point x="119" y="32" type="qcurve" smooth="yes"/>
      <point x="143" y="0"/>
      <point x="180" y="0" type="qcurve" smooth="yes"/>
      <point x="210" y="0"/>
      <point x="230" y="17" type="qcurve" smooth="yes"/>
      <point x="291" y="70"/>
      <point x="244" y="131" type="qcurve" smooth="yes"/>
      <point x="207" y="178"/>
      <point x="178" y="291"/>
      <point x="189" y="306" type="qcurve"/>
      <point x="218" y="306"/>
      <point x="239" y="300" type="qcurve" smooth="yes"/>
      <point x="282" y="288"/>
      <point x="381" y="274" type="qcurve"/>
      <point x="428" y="259"/>
      <point x="570" y="250" type="qcurve" smooth="yes"/>
      <point x="789" y="239"/>
      <point x="1126" y="597"/>
      <point x="1164" y="867" type="qcurve" smooth="yes"/>
      <point x="1202" y="1117"/>
    </contour>
  </outline>
</glyph>
<glyph name="storm" format="2">
  <advance width="1200"/>
  <unicode hex="E208"/>
  <note>
storm
</note>
  <outline>
    <contour>
      <point x="1054" y="1116"/>
      <point x="963" y="1116" type="qcurve" smooth="yes"/>
      <point x="933" y="1116"/>
      <point x="886" y="1101" type="qcurve"/>
      <point x="871" y="1201"/>
      <point x="716" y="1333"/>
      <point x="615" y="1333" type="qcurve" smooth="yes"/>
      <point x="502" y="1333"/>
      <point x="340" y="1170"/>
      <point x="340" y="1057" type="qcurve"/>
      <point x="342" y="1054" type="line"/>
      <point x="342" y="1049"/>
      <point x="342" y="1046" type="qcurve"/>
      <point x="337" y="1049"/>
      <point x="332" y="1049" type="qcurve" smooth="yes"/>
      <point x="270" y="1049"/>
      <point x="182" y="961"/>
      <point x="182" y="899" type="qcurve" smooth="yes"/>
      <point x="182" y="897" type="line"/>
      <point x="167" y="905"/>
      <point x="146" y="905" type="qcurve" smooth="yes"/>
      <point x="95" y="905"/>
      <point x="20" y="830"/>
      <point x="20" y="776" type="qcurve" smooth="yes"/>
      <point x="20" y="680"/>
      <point x="146" y="680" type="qcurve" smooth="yes"/>
      <point x="963" y="680" type="line" smooth="yes"/>
      <point x="1054" y="680"/>
      <point x="1180" y="807"/>
      <point x="1180" y="987"/>
    </contour>
    <contour>
      <point x="373" y="87" type="line"/>
      <point x="726" y="518" type="line" smooth="yes"/>
      <point x="737" y="528"/>
      <point x="721" y="528" type="qcurve" smooth="yes"/>
      <point x="659" y="528" type="line" smooth="yes"/>
      <point x="646" y="528"/>
      <point x="652" y="541" type="qcurve" smooth="yes"/>
      <point x="688" y="618" type="line"/>
      <point x="701" y="631"/>
      <point x="680" y="631" type="qcurve" smooth="yes"/>
      <point x="520" y="631" type="line" smooth="yes"/>
      <point x="507" y="631"/>
      <point x="499" y="618" type="qcurve" smooth="yes"/>
      <point x="396" y="410" type="line" smooth="yes"/>
      <point x="389" y="397"/>
      <point x="404" y="397" type="qcurve" smooth="yes"/>
      <point x="479" y="397" type="line" smooth="yes"/>
      <point x="492" y="397"/>
      <point x="487" y="384" type="qcurve" smooth="yes"/>
      <point x="371" y="90" type="line"/>
    </contour>
  </outline>
</glyph>
<glyph name="telescope" format="2">
  <advance width="1200"/>
  <unicode hex="E209"/>
  <note>
telescope
</note>
  <outline>
    <contour>
      <point x="1195" y="788"/>
      <point x="1155" y="807" type="qcurve"/>
      <point x="1050" y="845" type="line"/>
      <point x="1055" y="928"/>
      <point x="1000" y="952" type="qcurve"/>
      <point x="331" y="1199" type="line"/>
      <point x="312" y="1268"/>
      <point x="252" y="1289" type="qcurve" smooth="yes"/>
      <point x="233" y="1296"/>
      <point x="212" y="1296" type="qcurve" smooth="yes"/>
      <point x="160" y="1296"/>
      <point x="62" y="1211"/>
      <point x="39" y="1144" type="qcurve" smooth="yes"/>
      <point x="8" y="1061"/>
      <point x="48" y="917"/>
      <point x="108" y="895" type="qcurve" smooth="yes"/>
      <point x="127" y="888"/>
      <point x="148" y="888" type="qcurve" smooth="yes"/>
      <point x="191" y="888"/>
      <point x="224" y="912" type="qcurve"/>
      <point x="480" y="819" type="line"/>
      <point x="473" y="795"/>
      <point x="473" y="767" type="qcurve" smooth="yes"/>
      <point x="473" y="660"/>
      <point x="554" y="594" type="qcurve"/>
      <point x="366" y="223" type="line" smooth="yes"/>
      <point x="350" y="185"/>
      <point x="385" y="164" type="qcurve"/>
      <point x="400" y="159"/>
      <point x="407" y="159" type="qcurve" smooth="yes"/>
      <point x="433" y="159"/>
      <point x="445" y="183" type="qcurve" smooth="yes"/>
      <point x="632" y="551" type="line"/>
      <point x="635" y="549"/>
      <point x="654" y="544"/>
      <point x="656" y="544" type="qcurve"/>
      <point x="656" y="166" type="line" smooth="yes"/>
      <point x="656" y="150"/>
      <point x="682" y="124"/>
      <point x="701" y="124" type="qcurve" smooth="yes"/>
      <point x="718" y="124"/>
      <point x="744" y="150"/>
      <point x="744" y="166" type="qcurve" smooth="yes"/>
      <point x="744" y="544" type="line"/>
      <point x="753" y="546"/>
      <point x="768" y="551" type="qcurve"/>
      <point x="955" y="183" type="line" smooth="yes"/>
      <point x="967" y="159"/>
      <point x="996" y="159" type="qcurve" smooth="yes"/>
      <point x="1000" y="159"/>
      <point x="1015" y="164" type="qcurve"/>
      <point x="1055" y="185"/>
      <point x="1033" y="223" type="qcurve" smooth="yes"/>
      <point x="846" y="594" type="line"/>
      <point x="882" y="622"/>
      <point x="903" y="665" type="qcurve"/>
      <point x="955" y="653"/>
      <point x="1003" y="715" type="qcurve"/>
      <point x="1107" y="679" type="line" smooth="yes"/>
      <point x="1150" y="667"/>
      <point x="1171" y="727" type="qcurve" smooth="yes"/>
    </contour>
    <contour>
      <point x="257" y="1121"/>
      <point x="240" y="1071" type="qcurve" smooth="yes"/>
      <point x="221" y="1023"/>
      <point x="160" y="969"/>
      <point x="138" y="976" type="qcurve" smooth="yes"/>
      <point x="115" y="985"/>
      <point x="103" y="1064"/>
      <point x="122" y="1114" type="qcurve" smooth="yes"/>
      <point x="136" y="1156"/>
      <point x="191" y="1209"/>
      <point x="212" y="1209" type="qcurve" smooth="yes"/>
      <point x="221" y="1209" type="line"/>
      <point x="243" y="1199"/>
    </contour>
    <contour>
      <point x="813" y="817"/>
      <point x="846" y="755"/>
      <point x="836" y="674"/>
      <point x="787" y="622"/>
      <point x="758" y="627" type="qcurve" smooth="yes"/>
      <point x="727" y="629"/>
      <point x="694" y="693"/>
      <point x="703" y="774"/>
      <point x="753" y="826"/>
      <point x="784" y="822" type="qcurve" smooth="yes"/>
    </contour>
  </outline>
</glyph>
<glyph name="thermometer" format="2">
  <advance width="1200"/>
  <unicode hex="E20A"/>
  <note>
thermometer
</note>
  <outline>
    <contour>
      <point x="743" y="335"/>
      <point x="647" y="370" type="qcurve"/>
      <point x="647" y="853" type="line" smooth="yes"/>
      <point x="647" y="899"/>
      <point x="553" y="899"/>
      <point x="553" y="853" type="qcurve" smooth="yes"/>
      <point x="553" y="370" type="line"/>
      <point x="457" y="335"/>
      <point x="457" y="236" type="qcurve" smooth="yes"/>
      <point x="457" y="175"/>
      <point x="539" y="93"/>
      <point x="661" y="93"/>
      <point x="743" y="175"/>
      <point x="743" y="236" type="qcurve" smooth="yes"/>
    </contour>
    <contour>
      <point x="836" y="352"/>
      <point x="743" y="425" type="qcurve"/>
      <point x="743" y="1280" type="line" smooth="yes"/>
      <point x="743" y="1339"/>
      <point x="661" y="1420"/>
      <point x="539" y="1420"/>
      <point x="457" y="1339"/>
      <point x="457" y="1280" type="qcurve" smooth="yes"/>
      <point x="457" y="425" type="line"/>
      <point x="364" y="355"/>
      <point x="364" y="236" type="qcurve" smooth="yes"/>
      <point x="364" y="134"/>
      <point x="501" y="0"/>
      <point x="699" y="0"/>
      <point x="836" y="134"/>
      <point x="836" y="236" type="qcurve" smooth="yes"/>
    </contour>
    <contour>
      <point x="789" y="157"/>
      <point x="679" y="47"/>
      <point x="521" y="47"/>
      <point x="411" y="157"/>
      <point x="411" y="236" type="qcurve" smooth="yes"/>
      <point x="411" y="346"/>
      <point x="504" y="402" type="qcurve"/>
      <point x="504" y="1280" type="line" smooth="yes"/>
      <point x="504" y="1318"/>
      <point x="562" y="1373"/>
      <point x="638" y="1373"/>
      <point x="696" y="1318"/>
      <point x="696" y="1280" type="qcurve" smooth="yes"/>
      <point x="696" y="402" type="line"/>
      <point x="789" y="346"/>
      <point x="789" y="236" type="qcurve" smooth="yes"/>
    </contour>
  </outline>
</glyph>
<glyph name="thermometer-high" format="2">
  <advance width="1200"/>
  <unicode hex="E20B"/>
  <note>
thermometer-high
</note>
  <outline>
    <contour>
      <point x="743" y="335"/>
      <point x="647" y="370" type="qcurve"/>
      <point x="647" y="1167" type="line" smooth="yes"/>
      <point x="647" y="1216"/>
      <point x="553" y="1216"/>
      <point x="553" y="1167" type="qcurve" smooth="yes"/>
      <point x="553" y="370" type="line"/>
      <point x="457" y="335"/>
      <point x="457" y="236" type="qcurve" smooth="yes"/>
      <point x="457" y="178"/>
      <point x="539" y="96"/>
      <point x="661" y="96"/>
      <point x="743" y="178"/>
      <point x="743" y="236" type="qcurve" smooth="yes"/>
    </contour>
    <contour>
      <point x="836" y="355"/>
      <point x="743" y="425" type="qcurve"/>
      <point x="743" y="1277" type="line" smooth="yes"/>
      <point x="743" y="1339"/>
      <point x="661" y="1420"/>
      <point x="539" y="1420"/>
      <point x="457" y="1336"/>
      <point x="457" y="1277" type="qcurve" smooth="yes"/>
      <point x="457" y="425" type="line"/>
      <point x="364" y="355"/>
      <point x="364" y="236" type="qcurve" smooth="yes"/>
      <point x="364" y="137"/>
      <point x="501" y="0"/>
      <point x="699" y="0"/>
      <point x="836" y="137"/>
      <point x="836" y="236" type="qcurve" smooth="yes"/>
    </contour>
    <contour>
      <point x="789" y="160"/>
      <point x="679" y="47"/>
      <point x="521" y="47"/>
      <point x="411" y="160"/>
      <point x="411" y="236" type="qcurve" smooth="yes"/>
      <point x="411" y="346"/>
      <point x="504" y="402" type="qcurve"/>
      <point x="504" y="1277" type="line" smooth="yes"/>
      <point x="504" y="1315"/>
      <point x="559" y="1373"/>
      <point x="600" y="1373" type="qcurve" smooth="yes"/>
      <point x="638" y="1373"/>
      <point x="693" y="1318"/>
      <point x="693" y="1277" type="qcurve" smooth="yes"/>
      <point x="693" y="402" type="line"/>
      <point x="789" y="349"/>
      <point x="789" y="236" type="qcurve" smooth="yes"/>
    </contour>
  </outline>
</glyph>
<glyph name="thermometer-low" format="2">
  <advance width="1200"/>
  <unicode hex="E20C"/>
  <note>
thermometer-low
</note>
  <outline>
    <contour>
      <point x="741" y="335"/>
      <point x="646" y="369" type="qcurve"/>
      <point x="646" y="543" type="line" smooth="yes"/>
      <point x="646" y="589"/>
      <point x="554" y="589"/>
      <point x="554" y="543" type="qcurve" smooth="yes"/>
      <point x="554" y="369" type="line"/>
      <point x="459" y="335"/>
      <point x="459" y="237" type="qcurve" smooth="yes"/>
      <point x="459" y="176"/>
      <point x="539" y="95"/>
      <point x="661" y="95"/>
      <point x="741" y="176"/>
      <point x="741" y="237" type="qcurve" smooth="yes"/>
    </contour>
    <contour>
      <point x="837" y="358"/>
      <point x="741" y="424" type="qcurve"/>
      <point x="741" y="1279" type="line" smooth="yes"/>
      <point x="741" y="1339"/>
      <point x="661" y="1420"/>
      <point x="539" y="1420"/>
      <point x="459" y="1336"/>
      <point x="459" y="1279" type="qcurve" smooth="yes"/>
      <point x="459" y="427" type="line"/>
      <point x="363" y="355"/>
      <point x="363" y="237" type="qcurve" smooth="yes"/>
      <point x="363" y="139"/>
      <point x="502" y="0"/>
      <point x="698" y="0"/>
      <point x="837" y="139"/>
      <point x="837" y="237" type="qcurve" smooth="yes"/>
    </contour>
    <contour>
      <point x="790" y="159"/>
      <point x="678" y="46"/>
      <point x="522" y="46"/>
      <point x="410" y="159"/>
      <point x="410" y="237" type="qcurve" smooth="yes"/>
      <point x="410" y="346"/>
      <point x="505" y="401" type="qcurve"/>
      <point x="505" y="1279" type="line" smooth="yes"/>
      <point x="505" y="1316"/>
      <point x="560" y="1374"/>
      <point x="640" y="1374"/>
      <point x="695" y="1316"/>
      <point x="695" y="1279" type="qcurve" smooth="yes"/>
      <point x="695" y="401" type="line"/>
      <point x="788" y="346"/>
      <point x="788" y="237" type="qcurve" smooth="yes"/>
    </contour>
  </outline>
</glyph>
<glyph name="thin-close" format="2">
  <advance width="1200"/>
  <unicode hex="E20D"/>
  <note>
thin-close
</note>
  <outline>
    <contour>
      <point x="1163" y="232" type="qcurve" smooth="yes"/>
      <point x="688" y="710" type="line"/>
      <point x="1163" y="1186" type="line" smooth="yes"/>
      <point x="1180" y="1205"/>
      <point x="1180" y="1252"/>
      <point x="1147" y="1290"/>
      <point x="1095" y="1290"/>
      <point x="1078" y="1271" type="qcurve" smooth="yes"/>
      <point x="602" y="795" type="line"/>
      <point x="127" y="1271" type="line" smooth="yes"/>
      <point x="110" y="1290"/>
      <point x="58" y="1290"/>
      <point x="20" y="1252"/>
      <point x="20" y="1205"/>
      <point x="39" y="1186" type="qcurve" smooth="yes"/>
      <point x="515" y="710" type="line"/>
      <point x="39" y="232" type="line" smooth="yes"/>
      <point x="20" y="215"/>
      <point x="20" y="163"/>
      <point x="39" y="147" type="qcurve" smooth="yes"/>
      <point x="56" y="130"/>
      <point x="82" y="130" type="qcurve" smooth="yes"/>
      <point x="110" y="130"/>
      <point x="127" y="147" type="qcurve" smooth="yes"/>
      <point x="602" y="622" type="line"/>
      <point x="1078" y="147" type="line" smooth="yes"/>
      <point x="1095" y="130"/>
      <point x="1147" y="130"/>
      <point x="1180" y="163"/>
      <point x="1180" y="215"/>
    </contour>
  </outline>
</glyph>
<glyph name="toilet" format="2">
  <advance width="1200"/>
  <unicode hex="E20E"/>
  <note>
toilet
</note>
  <outline>
    <contour>
      <point x="261" y="894" type="line"/>
      <point x="939" y="894" type="line"/>
      <point x="939" y="1207" type="line" smooth="yes"/>
      <point x="939" y="1296"/>
      <point x="816" y="1420"/>
      <point x="729" y="1420" type="qcurve" smooth="yes"/>
      <point x="471" y="1420" type="line" smooth="yes"/>
      <point x="382" y="1420"/>
      <point x="261" y="1296"/>
      <point x="261" y="1207" type="qcurve" smooth="yes"/>
    </contour>
    <contour>
      <point x="1172" y="770"/>
      <point x="1109" y="779" type="qcurve"/>
      <point x="600" y="779" type="line"/>
      <point x="91" y="779" type="line"/>
      <point x="28" y="770"/>
      <point x="28" y="701" type="qcurve" smooth="yes"/>
      <point x="28" y="667"/>
      <point x="74" y="621"/>
      <point x="106" y="621" type="qcurve" smooth="yes"/>
      <point x="137" y="621" type="line"/>
      <point x="177" y="532"/>
      <point x="226" y="448"/>
      <point x="330" y="356"/>
      <point x="402" y="339" type="qcurve"/>
      <point x="402" y="216" type="line"/>
      <point x="301" y="164"/>
      <point x="264" y="60" type="qcurve" smooth="yes"/>
      <point x="255" y="40"/>
      <point x="269" y="17" type="qcurve" smooth="yes"/>
      <point x="284" y="0"/>
      <point x="307" y="0" type="qcurve" smooth="yes"/>
      <point x="893" y="0" type="line" smooth="yes"/>
      <point x="916" y="0"/>
      <point x="931" y="17" type="qcurve" smooth="yes"/>
      <point x="945" y="40"/>
      <point x="936" y="60" type="qcurve" smooth="yes"/>
      <point x="899" y="164"/>
      <point x="798" y="216" type="qcurve"/>
      <point x="798" y="342" type="line"/>
      <point x="853" y="354"/>
      <point x="933" y="402"/>
      <point x="997" y="489"/>
      <point x="1031" y="555"/>
      <point x="1063" y="621" type="qcurve"/>
      <point x="1092" y="621" type="line" smooth="yes"/>
      <point x="1126" y="621"/>
      <point x="1172" y="667"/>
      <point x="1172" y="701" type="qcurve" smooth="yes"/>
    </contour>
  </outline>
</glyph>
<glyph name="tools" format="2">
  <advance width="1200"/>
  <unicode hex="E20F"/>
  <note>
tools
</note>
  <outline>
    <contour>
      <point x="785" y="832" type="line"/>
      <point x="961" y="1008" type="line"/>
      <point x="999" y="1015" type="line" smooth="yes"/>
      <point x="1040" y="1022"/>
      <point x="1080" y="1086" type="qcurve" smooth="yes"/>
      <point x="1140" y="1177" type="line" smooth="yes"/>
      <point x="1182" y="1239"/>
      <point x="1168" y="1253" type="qcurve" smooth="yes"/>
      <point x="1154" y="1265" type="line"/>
      <point x="1142" y="1279" type="line"/>
      <point x="1125" y="1293"/>
      <point x="1066" y="1250" type="qcurve" smooth="yes"/>
      <point x="976" y="1191" type="line" smooth="yes"/>
      <point x="914" y="1151"/>
      <point x="904" y="1113" type="qcurve" smooth="yes"/>
      <point x="897" y="1072" type="line"/>
      <point x="721" y="896" type="line"/>
    </contour>
    <contour>
      <point x="503" y="511" type="line"/>
      <point x="400" y="613" type="line"/>
      <point x="355" y="656" type="line"/>
      <point x="355" y="654"/>
      <point x="353" y="654" type="qcurve"/>
      <point x="58" y="359" type="line" smooth="yes"/>
      <point x="20" y="319"/>
      <point x="20" y="209"/>
      <point x="96" y="133"/>
      <point x="210" y="133"/>
      <point x="248" y="171" type="qcurve" smooth="yes"/>
      <point x="543" y="466" type="line"/>
      <point x="545" y="466"/>
      <point x="545" y="468" type="qcurve"/>
    </contour>
    <contour>
      <point x="1180" y="357"/>
      <point x="1135" y="404" type="qcurve" smooth="yes"/>
      <point x="560" y="979" type="line"/>
      <point x="564" y="1006"/>
      <point x="560" y="1058" type="qcurve"/>
      <point x="543" y="1148"/>
      <point x="484" y="1208" type="qcurve" smooth="yes"/>
      <point x="393" y="1293"/>
      <point x="272" y="1286" type="qcurve" smooth="yes"/>
      <point x="241" y="1284"/>
      <point x="229" y="1239"/>
      <point x="251" y="1217" type="qcurve" smooth="yes"/>
      <point x="353" y="1115" type="line" smooth="yes"/>
      <point x="372" y="1096"/>
      <point x="372" y="1046"/>
      <point x="353" y="1027" type="qcurve" smooth="yes"/>
      <point x="289" y="960" type="line" smooth="yes"/>
      <point x="270" y="941"/>
      <point x="220" y="941"/>
      <point x="201" y="960" type="qcurve" smooth="yes"/>
      <point x="94" y="1067" type="line" smooth="yes"/>
      <point x="72" y="1089"/>
      <point x="25" y="1079"/>
      <point x="22" y="1048" type="qcurve" smooth="yes"/>
      <point x="6" y="918"/>
      <point x="101" y="823" type="qcurve" smooth="yes"/>
      <point x="170" y="754"/>
      <point x="267" y="747" type="qcurve" smooth="yes"/>
      <point x="308" y="742"/>
      <point x="341" y="749" type="qcurve"/>
      <point x="909" y="181" type="line" smooth="yes"/>
      <point x="957" y="133"/>
      <point x="1021" y="133" type="qcurve" smooth="yes"/>
      <point x="1087" y="133"/>
      <point x="1135" y="181" type="qcurve" smooth="yes"/>
      <point x="1180" y="228"/>
    </contour>
  </outline>
</glyph>
<glyph name="tooth" format="2">
  <advance width="1200"/>
  <unicode hex="E210"/>
  <note>
tooth
</note>
  <outline>
    <contour>
      <point x="1192" y="1079"/>
      <point x="1123" y="1195" type="qcurve" smooth="yes"/>
      <point x="1050" y="1325"/>
      <point x="944" y="1397" type="qcurve" smooth="yes"/>
      <point x="869" y="1443"/>
      <point x="799" y="1397" type="qcurve" smooth="yes"/>
      <point x="684" y="1328" type="line" smooth="yes"/>
      <point x="643" y="1305"/>
      <point x="557" y="1305"/>
      <point x="516" y="1328" type="qcurve" smooth="yes"/>
      <point x="401" y="1397" type="line" smooth="yes"/>
      <point x="331" y="1443"/>
      <point x="256" y="1397" type="qcurve" smooth="yes"/>
      <point x="150" y="1325"/>
      <point x="77" y="1195" type="qcurve" smooth="yes"/>
      <point x="8" y="1079"/>
      <point x="40" y="770"/>
      <point x="135" y="649" type="qcurve"/>
      <point x="132" y="632"/>
      <point x="121" y="577"/>
      <point x="112" y="421"/>
      <point x="129" y="282"/>
      <point x="202" y="121"/>
      <point x="262" y="69" type="qcurve"/>
      <point x="268" y="66"/>
      <point x="280" y="54"/>
      <point x="323" y="20"/>
      <point x="355" y="8"/>
      <point x="398" y="-3"/>
      <point x="412" y="25"/>
      <point x="421" y="80"/>
      <point x="404" y="138" type="qcurve"/>
      <point x="389" y="170"/>
      <point x="398" y="317"/>
      <point x="427" y="464"/>
      <point x="528" y="583"/>
      <point x="600" y="588" type="qcurve"/>
      <point x="672" y="583"/>
      <point x="773" y="464"/>
      <point x="802" y="317"/>
      <point x="811" y="170"/>
      <point x="796" y="138" type="qcurve"/>
      <point x="765" y="23"/>
      <point x="837" y="-12"/>
      <point x="889" y="28" type="qcurve" smooth="yes"/>
      <point x="938" y="69" type="line" smooth="yes"/>
      <point x="1036" y="150"/>
      <point x="1100" y="441"/>
      <point x="1082" y="545" type="qcurve" smooth="yes"/>
      <point x="1065" y="649" type="line"/>
      <point x="1160" y="770"/>
    </contour>
  </outline>
</glyph>
<glyph name="uterus" format="2">
  <advance width="1200"/>
  <unicode hex="E211"/>
  <note>
uterus
</note>
  <outline>
    <contour>
      <point x="989" y="801"/>
      <point x="1051" y="841"/>
      <point x="1051" y="903"/>
      <point x="989" y="944"/>
      <point x="903" y="944"/>
      <point x="844" y="903"/>
      <point x="844" y="841"/>
      <point x="903" y="801"/>
    </contour>
    <contour>
      <point x="1180" y="968" type="qcurve" smooth="yes"/>
      <point x="1180" y="984" type="line" smooth="yes"/>
      <point x="1180" y="1013"/>
      <point x="1156" y="1063"/>
      <point x="1144" y="1073" type="qcurve"/>
      <point x="1135" y="1085" type="line" smooth="yes"/>
      <point x="1106" y="1120"/>
      <point x="1025" y="1154"/>
      <point x="996" y="1154" type="qcurve" smooth="yes"/>
      <point x="970" y="1154" type="line" smooth="yes"/>
      <point x="925" y="1151"/>
      <point x="844" y="1130"/>
      <point x="827" y="1120" type="qcurve" smooth="yes"/>
      <point x="810" y="1111" type="line" smooth="yes"/>
      <point x="789" y="1101"/>
      <point x="746" y="1099"/>
      <point x="734" y="1101" type="qcurve" smooth="yes"/>
      <point x="722" y="1104" type="line"/>
      <point x="708" y="1111"/>
      <point x="648" y="1118"/>
      <point x="624" y="1118" type="qcurve" smooth="yes"/>
      <point x="600" y="1118" type="line" smooth="yes"/>
      <point x="510" y="1118"/>
      <point x="479" y="1104" type="qcurve"/>
      <point x="438" y="1092"/>
      <point x="390" y="1111" type="qcurve"/>
      <point x="333" y="1147"/>
      <point x="230" y="1154" type="qcurve" smooth="yes"/>
      <point x="128" y="1163"/>
      <point x="66" y="1085" type="qcurve"/>
      <point x="23" y="1047"/>
      <point x="20" y="984" type="qcurve" smooth="yes"/>
      <point x="16" y="918"/>
      <point x="68" y="896" type="qcurve"/>
      <point x="68" y="884"/>
      <point x="75" y="846"/>
      <point x="130" y="794"/>
      <point x="178" y="803" type="qcurve"/>
      <point x="173" y="806"/>
      <point x="159" y="820"/>
      <point x="135" y="856"/>
      <point x="133" y="894"/>
      <point x="173" y="942"/>
      <point x="218" y="963" type="qcurve"/>
      <point x="216" y="965"/>
      <point x="204" y="970"/>
      <point x="166" y="975"/>
      <point x="144" y="968" type="qcurve"/>
      <point x="99" y="968"/>
      <point x="94" y="1008" type="qcurve" smooth="yes"/>
      <point x="94" y="1011"/>
      <point x="97" y="1023"/>
      <point x="111" y="1049"/>
      <point x="135" y="1068"/>
      <point x="187" y="1082"/>
      <point x="221" y="1082" type="qcurve" smooth="yes"/>
      <point x="228" y="1082"/>
      <point x="252" y="1078"/>
      <point x="314" y="1063"/>
      <point x="362" y="1044"/>
      <point x="405" y="1004"/>
      <point x="407" y="977" type="qcurve" smooth="yes"/>
      <point x="412" y="858"/>
      <point x="447" y="810" type="qcurve"/>
      <point x="476" y="753"/>
      <point x="519" y="708" type="qcurve"/>
      <point x="521" y="703"/>
      <point x="526" y="686"/>
      <point x="536" y="643"/>
      <point x="524" y="631" type="qcurve"/>
      <point x="521" y="627"/>
      <point x="512" y="603"/>
      <point x="498" y="522"/>
      <point x="507" y="474" type="qcurve"/>
      <point x="507" y="338"/>
      <point x="548" y="278" type="qcurve" smooth="yes"/>
      <point x="569" y="252"/>
      <point x="583" y="278" type="qcurve"/>
      <point x="593" y="285"/>
      <point x="600" y="285" type="qcurve"/>
      <point x="617" y="278" type="line"/>
      <point x="624" y="266"/>
      <point x="641" y="266"/>
      <point x="648" y="271" type="qcurve"/>
      <point x="653" y="278" type="line" smooth="yes"/>
      <point x="672" y="304"/>
      <point x="691" y="402"/>
      <point x="691" y="438" type="qcurve" smooth="yes"/>
      <point x="693" y="474" type="line" smooth="yes"/>
      <point x="698" y="526"/>
      <point x="691" y="596"/>
      <point x="684" y="615" type="qcurve" smooth="yes"/>
      <point x="677" y="631" type="line" smooth="yes"/>
      <point x="669" y="648"/>
      <point x="669" y="681"/>
      <point x="677" y="696" type="qcurve" smooth="yes"/>
      <point x="681" y="708" type="line"/>
      <point x="700" y="727"/>
      <point x="736" y="779"/>
      <point x="743" y="796" type="qcurve"/>
      <point x="753" y="810" type="line" smooth="yes"/>
      <point x="770" y="832"/>
      <point x="789" y="915"/>
      <point x="791" y="946" type="qcurve" smooth="yes"/>
      <point x="793" y="977" type="line" smooth="yes"/>
      <point x="798" y="1018"/>
      <point x="891" y="1070"/>
      <point x="934" y="1078" type="qcurve" smooth="yes"/>
      <point x="980" y="1082" type="line"/>
      <point x="1034" y="1082"/>
      <point x="1099" y="1047"/>
      <point x="1101" y="1027" type="qcurve" smooth="yes"/>
      <point x="1106" y="1008" type="line"/>
      <point x="1106" y="989"/>
      <point x="1080" y="970"/>
      <point x="1068" y="968" type="qcurve" smooth="yes"/>
      <point x="1056" y="968" type="line"/>
      <point x="1032" y="975"/>
      <point x="999" y="973"/>
      <point x="992" y="968" type="qcurve" smooth="yes"/>
      <point x="982" y="963" type="line"/>
      <point x="1054" y="930"/>
      <point x="1075" y="851"/>
      <point x="1049" y="827" type="qcurve" smooth="yes"/>
      <point x="1023" y="803" type="line"/>
      <point x="1070" y="794"/>
      <point x="1125" y="839"/>
      <point x="1130" y="868" type="qcurve" smooth="yes"/>
      <point x="1132" y="896" type="line"/>
      <point x="1156" y="906"/>
      <point x="1180" y="949"/>
    </contour>
    <contour>
      <point x="615" y="796"/>
      <point x="615" y="677" type="qcurve"/>
      <point x="612" y="670"/>
      <point x="610" y="646"/>
      <point x="626" y="615"/>
      <point x="653" y="624" type="qcurve"/>
      <point x="660" y="335"/>
      <point x="619" y="297" type="qcurve"/>
      <point x="600" y="309" type="line"/>
      <point x="593" y="309"/>
      <point x="583" y="304"/>
      <point x="581" y="300" type="qcurve"/>
      <point x="581" y="297" type="line"/>
      <point x="562" y="314"/>
      <point x="545" y="479"/>
      <point x="548" y="553" type="qcurve" smooth="yes"/>
      <point x="548" y="624" type="line"/>
      <point x="574" y="615"/>
      <point x="593" y="641"/>
      <point x="591" y="658" type="qcurve" smooth="yes"/>
      <point x="586" y="677" type="line"/>
      <point x="586" y="796"/>
      <point x="519" y="977"/>
      <point x="486" y="1008" type="qcurve" smooth="yes"/>
      <point x="455" y="1039" type="line"/>
      <point x="486" y="1030"/>
      <point x="557" y="1023"/>
      <point x="579" y="1025" type="qcurve" smooth="yes"/>
      <point x="600" y="1025" type="line"/>
      <point x="677" y="1015"/>
      <point x="746" y="1039" type="qcurve"/>
      <point x="731" y="1030"/>
      <point x="688" y="982"/>
    </contour>
    <contour>
      <point x="297" y="801"/>
      <point x="357" y="841"/>
      <point x="357" y="903"/>
      <point x="297" y="944"/>
      <point x="211" y="944"/>
      <point x="149" y="903"/>
      <point x="149" y="841"/>
      <point x="211" y="801"/>
    </contour>
  </outline>
</glyph>
<glyph name="w3c" format="2">
  <advance width="1200"/>
  <unicode hex="E212"/>
  <note>
w3c
</note>
  <outline>
    <contour>
      <point x="1018" y="596"/>
      <point x="938" y="596" type="qcurve" smooth="yes"/>
      <point x="871" y="596"/>
      <point x="828" y="646" type="qcurve" smooth="yes"/>
      <point x="785" y="700"/>
      <point x="785" y="781" type="qcurve" smooth="yes"/>
      <point x="785" y="862"/>
      <point x="828" y="917" type="qcurve" smooth="yes"/>
      <point x="873" y="969"/>
      <point x="938" y="969" type="qcurve" smooth="yes"/>
      <point x="1016" y="969"/>
      <point x="1056" y="886" type="qcurve" smooth="yes"/>
      <point x="1061" y="876"/>
      <point x="1059" y="869" type="qcurve"/>
      <point x="1054" y="862"/>
      <point x="1047" y="857" type="qcurve"/>
      <point x="1004" y="838" type="line" smooth="yes"/>
      <point x="995" y="834"/>
      <point x="987" y="838" type="qcurve" smooth="yes"/>
      <point x="978" y="843"/>
      <point x="978" y="848" type="qcurve"/>
      <point x="964" y="869" type="line"/>
      <point x="952" y="881"/>
      <point x="938" y="881" type="qcurve" smooth="yes"/>
      <point x="911" y="881"/>
      <point x="897" y="853" type="qcurve" smooth="yes"/>
      <point x="880" y="826"/>
      <point x="880" y="736"/>
      <point x="897" y="710" type="qcurve"/>
      <point x="909" y="684"/>
      <point x="938" y="684" type="qcurve" smooth="yes"/>
      <point x="957" y="684"/>
      <point x="966" y="696" type="qcurve" smooth="yes"/>
      <point x="968" y="700"/>
      <point x="978" y="715"/>
      <point x="978" y="720"/>
      <point x="987" y="729" type="qcurve" smooth="yes"/>
      <point x="995" y="734"/>
      <point x="1004" y="729" type="qcurve" smooth="yes"/>
      <point x="1047" y="708" type="line"/>
      <point x="1056" y="705"/>
      <point x="1061" y="691"/>
      <point x="1059" y="681" type="qcurve"/>
    </contour>
    <contour>
      <point x="598" y="596"/>
      <point x="567" y="610" type="qcurve" smooth="yes"/>
      <point x="533" y="629"/>
      <point x="517" y="655" type="qcurve" smooth="yes"/>
      <point x="505" y="672"/>
      <point x="519" y="681" type="qcurve"/>
      <point x="552" y="715" type="line" smooth="yes"/>
      <point x="560" y="722"/>
      <point x="567" y="720" type="qcurve"/>
      <point x="576" y="720"/>
      <point x="583" y="712" type="qcurve"/>
      <point x="600" y="684"/>
      <point x="636" y="684" type="qcurve" smooth="yes"/>
      <point x="669" y="684"/>
      <point x="669" y="712" type="qcurve" smooth="yes"/>
      <point x="669" y="717"/>
      <point x="664" y="731" type="qcurve"/>
      <point x="657" y="741"/>
      <point x="631" y="741" type="qcurve" smooth="yes"/>
      <point x="607" y="741" type="line"/>
      <point x="595" y="736"/>
      <point x="590" y="746" type="qcurve"/>
      <point x="583" y="753"/>
      <point x="583" y="760" type="qcurve" smooth="yes"/>
      <point x="583" y="810" type="line" smooth="yes"/>
      <point x="583" y="817"/>
      <point x="590" y="824" type="qcurve" smooth="yes"/>
      <point x="595" y="829"/>
      <point x="607" y="829" type="qcurve" smooth="yes"/>
      <point x="631" y="829" type="line" smooth="yes"/>
      <point x="657" y="829"/>
      <point x="659" y="838" type="qcurve" smooth="yes"/>
      <point x="659" y="841"/>
      <point x="664" y="850"/>
      <point x="664" y="855"/>
      <point x="659" y="869" type="qcurve" smooth="yes"/>
      <point x="655" y="881"/>
      <point x="633" y="881" type="qcurve" smooth="yes"/>
      <point x="605" y="881"/>
      <point x="586" y="853" type="qcurve"/>
      <point x="579" y="845"/>
      <point x="569" y="845" type="qcurve" smooth="yes"/>
      <point x="564" y="845"/>
      <point x="555" y="850" type="qcurve"/>
      <point x="522" y="881" type="line" smooth="yes"/>
      <point x="512" y="891"/>
      <point x="519" y="907" type="qcurve"/>
      <point x="562" y="967"/>
      <point x="636" y="967" type="qcurve" smooth="yes"/>
      <point x="690" y="967"/>
      <point x="757" y="910"/>
      <point x="757" y="860" type="qcurve" smooth="yes"/>
      <point x="757" y="843"/>
      <point x="747" y="819" type="qcurve"/>
      <point x="733" y="796"/>
      <point x="724" y="788" type="qcurve"/>
      <point x="738" y="774"/>
      <point x="750" y="755" type="qcurve" smooth="yes"/>
      <point x="762" y="731"/>
      <point x="762" y="708" type="qcurve" smooth="yes"/>
      <point x="762" y="658"/>
      <point x="726" y="627" type="qcurve" smooth="yes"/>
      <point x="695" y="596"/>
      <point x="636" y="596" type="qcurve" smooth="yes"/>
    </contour>
    <contour>
      <point x="434" y="617" type="line" smooth="yes"/>
      <point x="431" y="601"/>
      <point x="415" y="601" type="qcurve" smooth="yes"/>
      <point x="358" y="601" type="line" smooth="yes"/>
      <point x="341" y="601"/>
      <point x="339" y="617" type="qcurve" smooth="yes"/>
      <point x="312" y="748" type="line"/>
      <point x="284" y="617" type="line" smooth="yes"/>
      <point x="281" y="601"/>
      <point x="265" y="601" type="qcurve" smooth="yes"/>
      <point x="210" y="601" type="line" smooth="yes"/>
      <point x="191" y="601"/>
      <point x="189" y="617" type="qcurve" smooth="yes"/>
      <point x="117" y="938" type="line"/>
      <point x="115" y="943"/>
      <point x="120" y="955" type="qcurve"/>
      <point x="127" y="962"/>
      <point x="136" y="962" type="qcurve" smooth="yes"/>
      <point x="194" y="962" type="line" smooth="yes"/>
      <point x="213" y="962"/>
      <point x="213" y="948" type="qcurve"/>
      <point x="241" y="805" type="line"/>
      <point x="270" y="948" type="line" smooth="yes"/>
      <point x="272" y="962"/>
      <point x="291" y="962" type="qcurve" smooth="yes"/>
      <point x="334" y="962" type="line" smooth="yes"/>
      <point x="348" y="962"/>
      <point x="353" y="948" type="qcurve"/>
      <point x="381" y="805" type="line"/>
      <point x="410" y="948" type="line"/>
      <point x="415" y="962"/>
      <point x="429" y="962" type="qcurve" smooth="yes"/>
      <point x="486" y="962" type="line" smooth="yes"/>
      <point x="495" y="962"/>
      <point x="500" y="955" type="qcurve" smooth="yes"/>
      <point x="507" y="948"/>
      <point x="505" y="938" type="qcurve" smooth="yes"/>
    </contour>
    <contour>
      <point x="60" y="1269" type="line" smooth="yes"/>
      <point x="41" y="1269"/>
      <point x="32" y="1257" type="qcurve" smooth="yes"/>
      <point x="20" y="1245"/>
      <point x="20" y="1228" type="qcurve" smooth="yes"/>
      <point x="20" y="396" type="line" smooth="yes"/>
      <point x="20" y="387"/>
      <point x="27" y="375" type="qcurve" smooth="yes"/>
      <point x="32" y="368"/>
      <point x="46" y="358" type="qcurve"/>
      <point x="588" y="154" type="line"/>
      <point x="590" y="151"/>
      <point x="614" y="151"/>
      <point x="617" y="154" type="qcurve"/>
      <point x="1154" y="358" type="line" smooth="yes"/>
      <point x="1166" y="363"/>
      <point x="1173" y="375" type="qcurve" smooth="yes"/>
      <point x="1180" y="387"/>
      <point x="1180" y="396" type="qcurve" smooth="yes"/>
      <point x="1180" y="1228" type="line" smooth="yes"/>
      <point x="1180" y="1247"/>
      <point x="1168" y="1257" type="qcurve"/>
      <point x="1159" y="1269"/>
      <point x="1140" y="1269" type="qcurve" smooth="yes"/>
    </contour>
  </outline>
</glyph>
<glyph name="walking" format="2">
  <advance width="1200"/>
  <unicode hex="E213"/>
  <note>
walking
</note>
  <outline>
    <contour>
      <point x="516" y="1191"/>
      <point x="565" y="1191" type="qcurve" smooth="yes"/>
      <point x="612" y="1191"/>
      <point x="675" y="1266"/>
      <point x="675" y="1310" type="qcurve" smooth="yes"/>
      <point x="670" y="1359"/>
      <point x="641" y="1388" type="qcurve" smooth="yes"/>
      <point x="606" y="1423"/>
      <point x="559" y="1420" type="qcurve" smooth="yes"/>
      <point x="513" y="1420"/>
      <point x="481" y="1385" type="qcurve" smooth="yes"/>
      <point x="449" y="1347"/>
      <point x="449" y="1304" type="qcurve" smooth="yes"/>
      <point x="449" y="1258"/>
      <point x="484" y="1223" type="qcurve" smooth="yes"/>
    </contour>
    <contour>
      <point x="971" y="794"/>
      <point x="948" y="809" type="qcurve" smooth="yes"/>
      <point x="783" y="898" type="line"/>
      <point x="745" y="956" type="line"/>
      <point x="687" y="1052" type="line"/>
      <point x="646" y="1116" type="line" smooth="yes"/>
      <point x="609" y="1165"/>
      <point x="548" y="1165" type="qcurve" smooth="yes"/>
      <point x="513" y="1165"/>
      <point x="473" y="1133" type="qcurve"/>
      <point x="441" y="1098" type="line"/>
      <point x="267" y="924" type="line"/>
      <point x="261" y="913"/>
      <point x="255" y="895" type="qcurve"/>
      <point x="229" y="667" type="line"/>
      <point x="229" y="664" type="line"/>
      <point x="229" y="658" type="line" smooth="yes"/>
      <point x="229" y="638"/>
      <point x="244" y="623" type="qcurve"/>
      <point x="247" y="617"/>
      <point x="264" y="609" type="qcurve"/>
      <point x="267" y="609"/>
      <point x="278" y="606"/>
      <point x="281" y="606" type="qcurve" smooth="yes"/>
      <point x="299" y="606"/>
      <point x="316" y="623" type="qcurve" smooth="yes"/>
      <point x="331" y="638"/>
      <point x="331" y="655" type="qcurve"/>
      <point x="336" y="690" type="line"/>
      <point x="345" y="788" type="line"/>
      <point x="354" y="855" type="line"/>
      <point x="426" y="927" type="line"/>
      <point x="397" y="704" type="line"/>
      <point x="386" y="609" type="line"/>
      <point x="371" y="484" type="line"/>
      <point x="360" y="371" type="line"/>
      <point x="241" y="108" type="line"/>
      <point x="235" y="84"/>
      <point x="235" y="76" type="qcurve" smooth="yes"/>
      <point x="235" y="44"/>
      <point x="258" y="21" type="qcurve" smooth="yes"/>
      <point x="278" y="-3"/>
      <point x="313" y="0" type="qcurve" smooth="yes"/>
      <point x="357" y="0"/>
      <point x="380" y="44" type="qcurve" smooth="yes"/>
      <point x="507" y="325" type="line"/>
      <point x="507" y="331"/>
      <point x="510" y="336" type="qcurve"/>
      <point x="510" y="339"/>
      <point x="516" y="351" type="qcurve"/>
      <point x="519" y="354"/>
      <point x="519" y="362" type="qcurve" smooth="yes"/>
      <point x="533" y="490" type="line"/>
      <point x="539" y="484" type="line"/>
      <point x="614" y="362" type="line"/>
      <point x="687" y="84" type="line"/>
      <point x="698" y="61"/>
      <point x="704" y="55" type="qcurve"/>
      <point x="722" y="29"/>
      <point x="756" y="23" type="qcurve"/>
      <point x="785" y="23"/>
      <point x="803" y="38" type="qcurve" smooth="yes"/>
      <point x="806" y="41" type="line" smooth="yes"/>
      <point x="809" y="44"/>
      <point x="811" y="44" type="qcurve"/>
      <point x="846" y="73"/>
      <point x="838" y="119" type="qcurve"/>
      <point x="762" y="400" type="line"/>
      <point x="756" y="415" type="line" smooth="yes"/>
      <point x="754" y="426"/>
      <point x="754" y="429" type="qcurve"/>
      <point x="751" y="435"/>
      <point x="751" y="444" type="qcurve"/>
      <point x="745" y="455"/>
      <point x="745" y="455" type="qcurve"/>
      <point x="727" y="481" type="line"/>
      <point x="722" y="493" type="line"/>
      <point x="690" y="539" type="line"/>
      <point x="675" y="559" type="line"/>
      <point x="661" y="580" type="line"/>
      <point x="623" y="638" type="line"/>
      <point x="629" y="713" type="line"/>
      <point x="638" y="780" type="line"/>
      <point x="652" y="916" type="line"/>
      <point x="704" y="835" type="line"/>
      <point x="704" y="832"/>
      <point x="719" y="817" type="qcurve"/>
      <point x="895" y="719" type="line"/>
      <point x="919" y="713" type="line"/>
      <point x="942" y="713"/>
      <point x="956" y="730" type="qcurve" smooth="yes"/>
      <point x="971" y="745"/>
      <point x="971" y="768" type="qcurve" smooth="yes"/>
    </contour>
  </outline>
</glyph>
<glyph name="virus" format="2">
  <advance width="1200"/>
  <unicode hex="E214"/>
  <note>
virus
</note>
  <outline>
    <contour>
      <point x="1195" y="710"/>
      <point x="1165" y="729" type="qcurve" smooth="yes"/>
      <point x="1117" y="755" type="line"/>
      <point x="1067" y="784" type="line" smooth="yes"/>
      <point x="1036" y="805"/>
      <point x="1029" y="834" type="qcurve" smooth="yes"/>
      <point x="1014" y="879"/>
      <point x="988" y="927" type="qcurve" smooth="yes"/>
      <point x="974" y="960"/>
      <point x="981" y="991" type="qcurve" smooth="yes"/>
      <point x="995" y="1043" type="line"/>
      <point x="1010" y="1098" type="line" smooth="yes"/>
      <point x="1014" y="1110"/>
      <point x="1000" y="1124"/>
      <point x="986" y="1122" type="qcurve" smooth="yes"/>
      <point x="931" y="1108" type="line"/>
      <point x="879" y="1093" type="line" smooth="yes"/>
      <point x="843" y="1084"/>
      <point x="814" y="1101" type="qcurve" smooth="yes"/>
      <point x="769" y="1124"/>
      <point x="721" y="1139" type="qcurve" smooth="yes"/>
      <point x="688" y="1146"/>
      <point x="671" y="1177" type="qcurve" smooth="yes"/>
      <point x="643" y="1227" type="line"/>
      <point x="617" y="1275" type="line" smooth="yes"/>
      <point x="600" y="1305"/>
      <point x="581" y="1275" type="qcurve" smooth="yes"/>
      <point x="552" y="1224" type="line"/>
      <point x="524" y="1177" type="line"/>
      <point x="509" y="1146"/>
      <point x="476" y="1136" type="qcurve" smooth="yes"/>
      <point x="426" y="1122"/>
      <point x="386" y="1098" type="qcurve" smooth="yes"/>
      <point x="357" y="1082"/>
      <point x="321" y="1091" type="qcurve" smooth="yes"/>
      <point x="267" y="1105" type="line"/>
      <point x="212" y="1120" type="line" smooth="yes"/>
      <point x="200" y="1124"/>
      <point x="186" y="1110"/>
      <point x="188" y="1096" type="qcurve" smooth="yes"/>
      <point x="202" y="1041" type="line"/>
      <point x="219" y="984" type="line" smooth="yes"/>
      <point x="228" y="953"/>
      <point x="209" y="922" type="qcurve"/>
      <point x="209" y="920" type="line"/>
      <point x="188" y="874"/>
      <point x="174" y="831" type="qcurve" smooth="yes"/>
      <point x="164" y="798"/>
      <point x="136" y="784" type="qcurve" smooth="yes"/>
      <point x="86" y="755" type="line"/>
      <point x="35" y="727" type="line" smooth="yes"/>
      <point x="5" y="710"/>
      <point x="35" y="691" type="qcurve" smooth="yes"/>
      <point x="86" y="662" type="line"/>
      <point x="136" y="634" type="line" smooth="yes"/>
      <point x="169" y="615"/>
      <point x="176" y="584" type="qcurve"/>
      <point x="212" y="498" type="line"/>
      <point x="228" y="469"/>
      <point x="219" y="434" type="qcurve" smooth="yes"/>
      <point x="205" y="379" type="line"/>
      <point x="190" y="322" type="line"/>
      <point x="186" y="310"/>
      <point x="200" y="296"/>
      <point x="214" y="298" type="qcurve" smooth="yes"/>
      <point x="269" y="312" type="line"/>
      <point x="326" y="329" type="line" smooth="yes"/>
      <point x="357" y="336"/>
      <point x="390" y="322" type="qcurve"/>
      <point x="390" y="319" type="line"/>
      <point x="436" y="298"/>
      <point x="479" y="284" type="qcurve" smooth="yes"/>
      <point x="509" y="274"/>
      <point x="529" y="246" type="qcurve" smooth="yes"/>
      <point x="555" y="196" type="line"/>
      <point x="583" y="145" type="line" smooth="yes"/>
      <point x="600" y="115"/>
      <point x="619" y="145" type="qcurve" smooth="yes"/>
      <point x="648" y="196" type="line"/>
      <point x="676" y="246" type="line" smooth="yes"/>
      <point x="698" y="276"/>
      <point x="726" y="284" type="qcurve" smooth="yes"/>
      <point x="774" y="298"/>
      <point x="814" y="322" type="qcurve" smooth="yes"/>
      <point x="845" y="338"/>
      <point x="879" y="329" type="qcurve" smooth="yes"/>
      <point x="933" y="315" type="line"/>
      <point x="988" y="300" type="line" smooth="yes"/>
      <point x="1019" y="293"/>
      <point x="1012" y="324" type="qcurve" smooth="yes"/>
      <point x="998" y="379" type="line"/>
      <point x="983" y="434" type="line" smooth="yes"/>
      <point x="974" y="467"/>
      <point x="991" y="496" type="qcurve"/>
      <point x="991" y="498" type="line"/>
      <point x="1012" y="536"/>
      <point x="1029" y="589" type="qcurve" smooth="yes"/>
      <point x="1036" y="619"/>
      <point x="1069" y="639" type="qcurve" smooth="yes"/>
      <point x="1117" y="667" type="line"/>
      <point x="1165" y="693" type="line" smooth="yes"/>
    </contour>
  </outline>
</glyph>
<glyph name="telegram-circle" format="2">
  <advance width="1200"/>
  <unicode hex="E215"/>
  <note>
telegram-circle
</note>
  <outline>
    <contour>
      <point x="1180" y="942"/>
      <point x="841" y="1271"/>
      <point x="359" y="1271"/>
      <point x="20" y="942"/>
      <point x="20" y="478"/>
      <point x="359" y="149"/>
      <point x="841" y="149"/>
      <point x="1180" y="478"/>
    </contour>
    <contour>
      <point x="882" y="953" type="qcurve"/>
      <point x="779" y="447" type="line" smooth="yes"/>
      <point x="779" y="445"/>
      <point x="777" y="443"/>
      <point x="767" y="431"/>
      <point x="755" y="426"/>
      <point x="736" y="421"/>
      <point x="724" y="428" type="qcurve" smooth="yes"/>
      <point x="576" y="538" type="line"/>
      <point x="483" y="455" type="line"/>
      <point x="471" y="452" type="line"/>
      <point x="469" y="450" type="line"/>
      <point x="466" y="450" type="line" smooth="yes"/>
      <point x="457" y="450"/>
      <point x="447" y="478" type="qcurve" smooth="yes"/>
      <point x="402" y="646"/>
      <point x="395" y="646" type="qcurve"/>
      <point x="395" y="648" type="line"/>
      <point x="252" y="696" type="line" smooth="yes"/>
      <point x="230" y="703"/>
      <point x="228" y="720" type="qcurve" smooth="yes"/>
      <point x="228" y="727"/>
      <point x="240" y="741"/>
      <point x="247" y="743" type="qcurve" smooth="yes"/>
      <point x="254" y="746" type="line"/>
      <point x="834" y="965" type="line"/>
      <point x="882" y="987"/>
    </contour>
    <contour>
      <point x="762" y="851" type="qcurve"/>
      <point x="769" y="863" type="line"/>
      <point x="769" y="872"/>
      <point x="760" y="868" type="qcurve" smooth="yes"/>
      <point x="750" y="863" type="line"/>
      <point x="402" y="648" type="line"/>
      <point x="404" y="641" type="line" smooth="yes"/>
      <point x="426" y="576"/>
      <point x="454" y="481" type="qcurve" smooth="yes"/>
      <point x="462" y="462"/>
      <point x="464" y="459" type="qcurve"/>
      <point x="481" y="605" type="line"/>
      <point x="485" y="610" type="line"/>
      <point x="485" y="610" type="line"/>
      <point x="750" y="841"/>
    </contour>
  </outline>
</glyph>
<glyph name="slash" format="2">
  <advance width="1200"/>
  <unicode hex="E216"/>
  <note>
slash
</note>
  <outline>
    <contour>
      <point x="1054" y="1336"/>
      <point x="1036" y="1347" type="qcurve"/>
      <point x="1031" y="1347"/>
      <point x="1016" y="1359" type="qcurve"/>
      <point x="993" y="1371"/>
      <point x="984" y="1376" type="qcurve" smooth="yes"/>
      <point x="972" y="1385"/>
      <point x="949" y="1397" type="qcurve" smooth="yes"/>
      <point x="914" y="1414" type="line"/>
      <point x="911" y="1414"/>
      <point x="900" y="1420"/>
      <point x="897" y="1420" type="qcurve" smooth="yes"/>
      <point x="876" y="1420"/>
      <point x="868" y="1403" type="qcurve" smooth="yes"/>
      <point x="810" y="1301" type="line"/>
      <point x="193" y="195" type="line" smooth="yes"/>
      <point x="146" y="119"/>
      <point x="146" y="105" type="qcurve" smooth="yes"/>
      <point x="146" y="87"/>
      <point x="164" y="73" type="qcurve"/>
      <point x="289" y="0"/>
      <point x="306" y="0" type="qcurve" smooth="yes"/>
      <point x="321" y="0"/>
      <point x="335" y="17" type="qcurve"/>
      <point x="385" y="111" type="line" smooth="yes"/>
      <point x="423" y="180"/>
      <point x="647" y="582"/>
      <point x="719" y="710" type="qcurve" smooth="yes"/>
      <point x="932" y="1094"/>
      <point x="1054" y="1309" type="qcurve"/>
      <point x="1054" y="1318" type="line" smooth="yes"/>
    </contour>
  </outline>
</glyph>
<glyph name="telegram" format="2">
  <advance width="1200"/>
  <unicode hex="E217"/>
  <note>
telegram
</note>
  <outline>
    <contour>
      <point x="1116" y="1207" type="qcurve" smooth="yes"/>
      <point x="1094" y="1198" type="line"/>
      <point x="65" y="794" type="line" smooth="yes"/>
      <point x="60" y="791"/>
      <point x="44" y="784"/>
      <point x="20" y="760"/>
      <point x="20" y="746" type="qcurve" smooth="yes"/>
      <point x="22" y="732"/>
      <point x="44" y="711"/>
      <point x="53" y="706" type="qcurve" smooth="yes"/>
      <point x="65" y="701" type="line"/>
      <point x="317" y="618" type="line"/>
      <point x="317" y="613" type="line"/>
      <point x="339" y="547" type="line" smooth="yes"/>
      <point x="358" y="482"/>
      <point x="405" y="328"/>
      <point x="412" y="306" type="qcurve" smooth="yes"/>
      <point x="429" y="254"/>
      <point x="443" y="254" type="qcurve" smooth="yes"/>
      <point x="450" y="254" type="line"/>
      <point x="450" y="257" type="line"/>
      <point x="472" y="264" type="line"/>
      <point x="640" y="416" type="line"/>
      <point x="900" y="216" type="line"/>
      <point x="935" y="204"/>
      <point x="978" y="219"/>
      <point x="987" y="233" type="qcurve" smooth="yes"/>
      <point x="997" y="249" type="line"/>
      <point x="1180" y="1174" type="line"/>
      <point x="1180" y="1203"/>
      <point x="1137" y="1215"/>
    </contour>
    <contour>
      <point x="985" y="1005"/>
      <point x="966" y="989" type="qcurve" smooth="yes"/>
      <point x="479" y="549" type="line"/>
      <point x="479" y="547" type="line"/>
      <point x="476" y="547" type="line"/>
      <point x="469" y="537" type="line"/>
      <point x="441" y="271" type="line"/>
      <point x="431" y="280"/>
      <point x="422" y="311" type="qcurve" smooth="yes"/>
      <point x="403" y="378"/>
      <point x="331" y="604" type="qcurve"/>
      <point x="329" y="618" type="line"/>
      <point x="945" y="1010" type="line" smooth="yes"/>
      <point x="980" y="1031"/>
      <point x="980" y="1010" type="qcurve"/>
    </contour>
  </outline>
</glyph>
<glyph name="shirt" format="2">
  <advance width="1200"/>
  <unicode hex="E218"/>
  <note>
shirt
</note>
  <outline>
    <contour>
      <point x="1184" y="1063"/>
      <point x="1155" y="1070" type="qcurve" smooth="yes"/>
      <point x="743" y="1177" type="line"/>
      <point x="734" y="1177" type="line" smooth="yes"/>
      <point x="707" y="1177"/>
      <point x="703" y="1151" type="qcurve" smooth="yes"/>
      <point x="700" y="1120"/>
      <point x="667" y="1099" type="qcurve" smooth="yes"/>
      <point x="638" y="1077"/>
      <point x="562" y="1077"/>
      <point x="533" y="1099" type="qcurve" smooth="yes"/>
      <point x="500" y="1120"/>
      <point x="497" y="1151" type="qcurve" smooth="yes"/>
      <point x="493" y="1177"/>
      <point x="466" y="1177" type="qcurve" smooth="yes"/>
      <point x="455" y="1177" type="line"/>
      <point x="45" y="1070" type="line"/>
      <point x="16" y="1065"/>
      <point x="21" y="1032" type="qcurve"/>
      <point x="78" y="805" type="line" smooth="yes"/>
      <point x="85" y="782"/>
      <point x="111" y="782" type="qcurve" smooth="yes"/>
      <point x="264" y="782" type="line"/>
      <point x="264" y="274" type="line" smooth="yes"/>
      <point x="264" y="243"/>
      <point x="295" y="243" type="qcurve" smooth="yes"/>
      <point x="905" y="243" type="line" smooth="yes"/>
      <point x="936" y="243"/>
      <point x="936" y="274" type="qcurve" smooth="yes"/>
      <point x="936" y="782" type="line"/>
      <point x="1089" y="782" type="line" smooth="yes"/>
      <point x="1115" y="782"/>
      <point x="1120" y="805" type="qcurve" smooth="yes"/>
      <point x="1179" y="1032" type="line"/>
    </contour>
  </outline>
</glyph>
<glyph name="tacos" format="2">
  <advance width="1200"/>
  <unicode hex="E219"/>
  <note>
tacos
</note>
  <outline>
    <contour>
      <point x="1200" y="470"/>
      <point x="1162" y="598" type="qcurve" smooth="yes"/>
      <point x="1134" y="698"/>
      <point x="938" y="876"/>
      <point x="810" y="911" type="qcurve"/>
      <point x="829" y="883"/>
      <point x="829" y="855" type="qcurve"/>
      <point x="866" y="841"/>
      <point x="889" y="820" type="qcurve" smooth="yes"/>
      <point x="908" y="801"/>
      <point x="915" y="775" type="qcurve"/>
      <point x="929" y="775" type="line" smooth="yes"/>
      <point x="985" y="775"/>
      <point x="1006" y="729" type="qcurve" smooth="yes"/>
      <point x="1034" y="677"/>
      <point x="992" y="619" type="qcurve"/>
      <point x="1020" y="596"/>
      <point x="1034" y="570" type="qcurve" smooth="yes"/>
      <point x="1060" y="512"/>
      <point x="1046" y="463"/>
      <point x="999" y="414" type="qcurve" smooth="yes"/>
      <point x="997" y="411" type="line"/>
      <point x="1018" y="386"/>
      <point x="1102" y="386" type="qcurve" smooth="yes"/>
      <point x="1134" y="386"/>
      <point x="1158" y="414" type="qcurve" smooth="yes"/>
    </contour>
    <contour>
      <point x="1015" y="514"/>
      <point x="994" y="551" type="qcurve" smooth="yes"/>
      <point x="971" y="603"/>
      <point x="917" y="603" type="qcurve" smooth="yes"/>
      <point x="915" y="603" type="line"/>
      <point x="917" y="605" type="line" smooth="yes"/>
      <point x="990" y="663"/>
      <point x="969" y="710" type="qcurve" smooth="yes"/>
      <point x="957" y="733"/>
      <point x="929" y="733" type="qcurve" smooth="yes"/>
      <point x="906" y="733"/>
      <point x="864" y="712" type="qcurve"/>
      <point x="861" y="710" type="line"/>
      <point x="861" y="712"/>
      <point x="864" y="712" type="qcurve"/>
      <point x="885" y="766"/>
      <point x="861" y="787" type="qcurve" smooth="yes"/>
      <point x="829" y="817"/>
      <point x="791" y="817" type="qcurve" smooth="yes"/>
      <point x="782" y="817" type="line"/>
      <point x="782" y="822" type="line"/>
      <point x="784" y="827" type="line"/>
      <point x="796" y="873"/>
      <point x="733" y="925"/>
      <point x="703" y="925" type="qcurve" smooth="yes"/>
      <point x="691" y="925"/>
      <point x="663" y="920" type="qcurve" smooth="yes"/>
      <point x="656" y="918"/>
      <point x="640" y="915"/>
      <point x="628" y="911"/>
      <point x="626" y="911" type="qcurve" smooth="yes"/>
      <point x="621" y="911" type="line"/>
      <point x="621" y="913" type="line" smooth="yes"/>
      <point x="621" y="929"/>
      <point x="616" y="946" type="qcurve"/>
      <point x="607" y="964" type="line" smooth="yes"/>
      <point x="579" y="1016"/>
      <point x="516" y="1030" type="qcurve"/>
      <point x="504" y="1034"/>
      <point x="481" y="1034" type="qcurve" smooth="yes"/>
      <point x="441" y="1034"/>
      <point x="367" y="992"/>
      <point x="348" y="971" type="qcurve" smooth="yes"/>
      <point x="329" y="950" type="line"/>
      <point x="285" y="976"/>
      <point x="248" y="976" type="qcurve" smooth="yes"/>
      <point x="215" y="976"/>
      <point x="161" y="936"/>
      <point x="152" y="915" type="qcurve" smooth="yes"/>
      <point x="143" y="897" type="line"/>
      <point x="124" y="901"/>
      <point x="117" y="901" type="qcurve" smooth="yes"/>
      <point x="84" y="901"/>
      <point x="70" y="845"/>
      <point x="80" y="817" type="qcurve" smooth="yes"/>
      <point x="89" y="792" type="line"/>
      <point x="45" y="773"/>
      <point x="14" y="729"/>
      <point x="33" y="687"/>
      <point x="52" y="666"/>
      <point x="61" y="659" type="qcurve"/>
      <point x="173" y="873"/>
      <point x="434" y="883" type="qcurve" smooth="yes"/>
      <point x="446" y="883" type="line"/>
      <point x="462" y="883" type="line" smooth="yes"/>
      <point x="733" y="883"/>
      <point x="924" y="484" type="qcurve" smooth="yes"/>
      <point x="931" y="470" type="line" smooth="yes"/>
      <point x="934" y="463"/>
      <point x="943" y="449" type="qcurve"/>
      <point x="959" y="446" type="line"/>
      <point x="969" y="444" type="line"/>
      <point x="978" y="453" type="line" smooth="yes"/>
      <point x="1011" y="486"/>
    </contour>
    <contour>
      <point x="906" y="430"/>
      <point x="901" y="439" type="qcurve"/>
      <point x="894" y="446"/>
      <point x="894" y="451" type="qcurve"/>
      <point x="889" y="460"/>
      <point x="887" y="463" type="qcurve"/>
      <point x="819" y="612"/>
      <point x="605" y="841"/>
      <point x="462" y="841" type="qcurve" smooth="yes"/>
      <point x="448" y="841" type="line"/>
      <point x="437" y="841" type="line" smooth="yes"/>
      <point x="208" y="831"/>
      <point x="103" y="647" type="qcurve"/>
      <point x="103" y="645"/>
      <point x="101" y="642" type="qcurve"/>
      <point x="96" y="633"/>
      <point x="94" y="628" type="qcurve" smooth="yes"/>
      <point x="91" y="626"/>
      <point x="89" y="619"/>
      <point x="84" y="612"/>
      <point x="84" y="610" type="qcurve"/>
      <point x="40" y="509"/>
      <point x="31" y="393" type="qcurve"/>
      <point x="938" y="393" type="line"/>
      <point x="920" y="411" type="line" smooth="yes"/>
    </contour>
    <contour>
      <point x="486" y="631"/>
      <point x="462" y="654"/>
      <point x="462" y="687"/>
      <point x="486" y="710"/>
      <point x="518" y="710"/>
      <point x="542" y="687"/>
      <point x="542" y="654"/>
      <point x="518" y="631"/>
    </contour>
    <contour>
      <point x="595" y="512" type="qcurve" smooth="yes"/>
      <point x="595" y="509" type="line" smooth="yes"/>
      <point x="595" y="498"/>
      <point x="588" y="491" type="qcurve"/>
      <point x="577" y="470"/>
      <point x="556" y="470" type="qcurve" smooth="yes"/>
      <point x="539" y="470"/>
      <point x="516" y="491"/>
      <point x="516" y="507" type="qcurve" smooth="yes"/>
      <point x="516" y="512" type="line" smooth="yes"/>
      <point x="516" y="523"/>
      <point x="518" y="528" type="qcurve" smooth="yes"/>
      <point x="525" y="540"/>
      <point x="537" y="547" type="qcurve" smooth="yes"/>
      <point x="546" y="551"/>
      <point x="556" y="551" type="qcurve" smooth="yes"/>
      <point x="577" y="551"/>
      <point x="588" y="533" type="qcurve"/>
      <point x="595" y="526"/>
    </contour>
    <contour>
      <point x="675" y="600"/>
      <point x="651" y="577"/>
      <point x="619" y="577"/>
      <point x="595" y="600"/>
      <point x="595" y="633"/>
      <point x="619" y="656"/>
      <point x="635" y="656" type="qcurve" smooth="yes"/>
      <point x="675" y="656"/>
      <point x="675" y="617" type="qcurve" smooth="yes"/>
    </contour>
  </outline>
</glyph>
<glyph name="sushi" format="2">
  <advance width="1200"/>
  <unicode hex="E21A"/>
  <note>
sushi
</note>
  <outline>
    <contour>
      <point x="259" y="1182" type="qcurve"/>
      <point x="429" y="902" type="line"/>
      <point x="707" y="571" type="line"/>
      <point x="710" y="580"/>
      <point x="727" y="585" type="qcurve"/>
      <point x="372" y="1242" type="line" smooth="yes"/>
      <point x="360" y="1266"/>
      <point x="309" y="1281"/>
      <point x="261" y="1257"/>
      <point x="247" y="1206"/>
    </contour>
    <contour>
      <point x="1106" y="369" type="qcurve"/>
      <point x="1103" y="369" type="line"/>
      <point x="1101" y="369" type="line"/>
      <point x="1096" y="372" type="line"/>
      <point x="1091" y="372" type="line"/>
      <point x="1050" y="381"/>
      <point x="995" y="381" type="qcurve" smooth="yes"/>
      <point x="988" y="381" type="line" smooth="yes"/>
      <point x="923" y="381"/>
      <point x="875" y="372" type="qcurve"/>
      <point x="931" y="312"/>
      <point x="887" y="273" type="qcurve" smooth="yes"/>
      <point x="885" y="271" type="line" smooth="yes"/>
      <point x="868" y="256"/>
      <point x="849" y="256" type="qcurve" smooth="yes"/>
      <point x="835" y="256"/>
      <point x="815" y="271" type="qcurve" smooth="yes"/>
      <point x="806" y="278"/>
      <point x="787" y="297" type="qcurve" smooth="yes"/>
      <point x="753" y="336" type="line"/>
      <point x="717" y="321"/>
      <point x="693" y="304" type="qcurve" smooth="yes"/>
      <point x="650" y="276" type="line" smooth="yes"/>
      <point x="633" y="266"/>
      <point x="595" y="242" type="qcurve"/>
      <point x="590" y="237"/>
      <point x="566" y="225"/>
      <point x="556" y="220"/>
      <point x="537" y="208"/>
      <point x="532" y="206" type="qcurve" smooth="yes"/>
      <point x="501" y="189"/>
      <point x="491" y="184" type="qcurve"/>
      <point x="491" y="180"/>
      <point x="499" y="172" type="qcurve" smooth="yes"/>
      <point x="518" y="153"/>
      <point x="530" y="148" type="qcurve" smooth="yes"/>
      <point x="544" y="144"/>
      <point x="556" y="144" type="qcurve" smooth="yes"/>
      <point x="571" y="144"/>
      <point x="609" y="148"/>
      <point x="640" y="156"/>
      <point x="669" y="163"/>
      <point x="676" y="165" type="qcurve" smooth="yes"/>
      <point x="686" y="168" type="line"/>
      <point x="842" y="204" type="line"/>
      <point x="1038" y="220" type="line" smooth="yes"/>
      <point x="1055" y="223"/>
      <point x="1070" y="235" type="qcurve" smooth="yes"/>
      <point x="1096" y="256"/>
      <point x="1096" y="278" type="qcurve"/>
      <point x="1103" y="300"/>
      <point x="1103" y="324" type="qcurve" smooth="yes"/>
      <point x="1106" y="340"/>
    </contour>
    <contour>
      <point x="1180" y="384" type="qcurve"/>
      <point x="1173" y="396" type="line" smooth="yes"/>
      <point x="1149" y="439"/>
      <point x="1118" y="475" type="qcurve" smooth="yes"/>
      <point x="1108" y="484" type="line"/>
      <point x="1101" y="484"/>
      <point x="1108" y="468" type="qcurve" smooth="yes"/>
      <point x="1113" y="458"/>
      <point x="1113" y="451" type="qcurve" smooth="yes"/>
      <point x="1115" y="436" type="line"/>
      <point x="1113" y="436"/>
      <point x="1108" y="448" type="qcurve" smooth="yes"/>
      <point x="1086" y="492"/>
      <point x="1082" y="499" type="qcurve" smooth="yes"/>
      <point x="1060" y="530"/>
      <point x="1034" y="542" type="qcurve" smooth="yes"/>
      <point x="1012" y="552"/>
      <point x="1007" y="554" type="qcurve" smooth="yes"/>
      <point x="998" y="559"/>
      <point x="995" y="559" type="qcurve" smooth="yes"/>
      <point x="986" y="559"/>
      <point x="998" y="542" type="qcurve" smooth="yes"/>
      <point x="1012" y="520"/>
      <point x="1038" y="470" type="qcurve" smooth="yes"/>
      <point x="1043" y="458"/>
      <point x="1041" y="458" type="qcurve" smooth="yes"/>
      <point x="1038" y="458"/>
      <point x="1031" y="468" type="qcurve" smooth="yes"/>
      <point x="1000" y="523"/>
      <point x="954" y="559" type="qcurve" smooth="yes"/>
      <point x="931" y="578"/>
      <point x="895" y="583" type="qcurve" smooth="yes"/>
      <point x="873" y="583" type="line"/>
      <point x="871" y="583" type="line" smooth="yes"/>
      <point x="847" y="583"/>
      <point x="868" y="568" type="qcurve" smooth="yes"/>
      <point x="923" y="535"/>
      <point x="950" y="475" type="qcurve" smooth="yes"/>
      <point x="957" y="460"/>
      <point x="952" y="460" type="qcurve"/>
      <point x="947" y="465"/>
      <point x="942" y="472" type="qcurve" smooth="yes"/>
      <point x="897" y="537"/>
      <point x="830" y="566" type="qcurve" smooth="yes"/>
      <point x="806" y="578"/>
      <point x="789" y="578" type="qcurve" smooth="yes"/>
      <point x="787" y="578"/>
      <point x="782" y="576" type="qcurve"/>
      <point x="767" y="573" type="line"/>
      <point x="739" y="566" type="line"/>
      <point x="736" y="566" type="line"/>
      <point x="712" y="559"/>
      <point x="741" y="549" type="qcurve"/>
      <point x="743" y="547"/>
      <point x="746" y="547" type="qcurve"/>
      <point x="803" y="523"/>
      <point x="849" y="460" type="qcurve"/>
      <point x="854" y="448" type="line"/>
      <point x="851" y="448"/>
      <point x="842" y="458" type="qcurve" smooth="yes"/>
      <point x="803" y="501"/>
      <point x="760" y="518" type="qcurve" smooth="yes"/>
      <point x="746" y="525" type="line"/>
      <point x="777" y="489" type="line"/>
      <point x="859" y="391" type="line"/>
      <point x="904" y="400"/>
      <point x="988" y="405" type="qcurve" smooth="yes"/>
      <point x="995" y="405" type="line" smooth="yes"/>
      <point x="1041" y="405"/>
      <point x="1096" y="393" type="qcurve"/>
      <point x="1101" y="393"/>
      <point x="1106" y="391" type="qcurve"/>
      <point x="1113" y="391"/>
      <point x="1151" y="381" type="qcurve" smooth="yes"/>
      <point x="1166" y="376"/>
      <point x="1170" y="376" type="qcurve" smooth="yes"/>
      <point x="1180" y="376"/>
    </contour>
    <contour>
      <point x="542" y="237"/>
      <point x="585" y="261" type="qcurve" smooth="yes"/>
      <point x="592" y="266"/>
      <point x="662" y="309"/>
      <point x="681" y="321" type="qcurve" smooth="yes"/>
      <point x="710" y="338"/>
      <point x="736" y="352" type="qcurve"/>
      <point x="626" y="472" type="line"/>
      <point x="592" y="477"/>
      <point x="578" y="477" type="qcurve" smooth="yes"/>
      <point x="542" y="477"/>
      <point x="520" y="456" type="qcurve" smooth="yes"/>
      <point x="508" y="446"/>
      <point x="491" y="429" type="qcurve" smooth="yes"/>
      <point x="470" y="412"/>
      <point x="494" y="412" type="qcurve" smooth="yes"/>
      <point x="501" y="412" type="line" smooth="yes"/>
      <point x="513" y="415"/>
      <point x="532" y="415" type="qcurve" smooth="yes"/>
      <point x="614" y="415"/>
      <point x="676" y="362" type="qcurve"/>
      <point x="681" y="360" type="line"/>
      <point x="681" y="357" type="line"/>
      <point x="679" y="357" type="line"/>
      <point x="674" y="362" type="line"/>
      <point x="599" y="396"/>
      <point x="537" y="396" type="qcurve" smooth="yes"/>
      <point x="527" y="396"/>
      <point x="477" y="388" type="qcurve" smooth="yes"/>
      <point x="448" y="381"/>
      <point x="424" y="352" type="qcurve"/>
      <point x="420" y="343"/>
      <point x="410" y="328" type="qcurve" smooth="yes"/>
      <point x="398" y="304"/>
      <point x="412" y="304" type="qcurve"/>
      <point x="415" y="307"/>
      <point x="417" y="307" type="qcurve"/>
      <point x="432" y="312"/>
      <point x="441" y="312" type="qcurve"/>
      <point x="475" y="319"/>
      <point x="503" y="319" type="qcurve" smooth="yes"/>
      <point x="554" y="319"/>
      <point x="585" y="307" type="qcurve"/>
      <point x="597" y="300" type="line"/>
      <point x="595" y="300" type="line" smooth="yes"/>
      <point x="587" y="300"/>
      <point x="583" y="302" type="qcurve"/>
      <point x="575" y="302"/>
      <point x="551" y="304"/>
      <point x="544" y="304" type="qcurve" smooth="yes"/>
      <point x="501" y="304"/>
      <point x="444" y="290" type="qcurve" smooth="yes"/>
      <point x="432" y="288"/>
      <point x="408" y="278" type="qcurve" smooth="yes"/>
      <point x="381" y="271"/>
      <point x="362" y="242" type="qcurve" smooth="yes"/>
      <point x="348" y="220"/>
      <point x="376" y="211" type="qcurve"/>
      <point x="436" y="199"/>
      <point x="448" y="199" type="qcurve" smooth="yes"/>
      <point x="460" y="199" type="line" smooth="yes"/>
      <point x="467" y="199"/>
      <point x="482" y="204" type="qcurve" smooth="yes"/>
      <point x="489" y="206"/>
      <point x="518" y="223"/>
      <point x="523" y="225" type="qcurve" smooth="yes"/>
    </contour>
    <contour>
      <point x="597" y="535" type="line"/>
      <point x="607" y="525" type="line"/>
      <point x="614" y="518" type="line"/>
      <point x="643" y="487" type="line"/>
      <point x="758" y="362" type="line"/>
      <point x="763" y="357" type="line"/>
      <point x="767" y="352" type="line"/>
      <point x="775" y="345" type="line"/>
      <point x="775" y="343" type="line"/>
      <point x="803" y="312" type="line" smooth="yes"/>
      <point x="837" y="278"/>
      <point x="861" y="278"/>
      <point x="873" y="288" type="qcurve"/>
      <point x="875" y="292"/>
      <point x="880" y="297" type="qcurve" smooth="yes"/>
      <point x="897" y="319"/>
      <point x="856" y="360" type="qcurve"/>
      <point x="851" y="367" type="line"/>
      <point x="849" y="369" type="line"/>
      <point x="844" y="376" type="line"/>
      <point x="835" y="386" type="line"/>
      <point x="830" y="393" type="line"/>
      <point x="707" y="537" type="line"/>
      <point x="698" y="552" type="line"/>
      <point x="686" y="564" type="line"/>
      <point x="506" y="777" type="line"/>
      <point x="129" y="1226" type="line" smooth="yes"/>
      <point x="110" y="1247"/>
      <point x="57" y="1247"/>
      <point x="40" y="1230" type="qcurve" smooth="yes"/>
      <point x="21" y="1214"/>
      <point x="19" y="1161"/>
      <point x="36" y="1142" type="qcurve" smooth="yes"/>
    </contour>
  </outline>
</glyph>
<glyph name="triangle-ruler" format="2">
  <advance width="1200"/>
  <unicode hex="E21B"/>
  <note>
triangle-ruler
</note>
  <outline>
    <contour>
      <point x="41" y="130"/>
      <point x="53" y="130" type="qcurve" smooth="yes"/>
      <point x="1146" y="130" type="line" smooth="yes"/>
      <point x="1167" y="130"/>
      <point x="1186" y="170"/>
      <point x="1169" y="187" type="qcurve" smooth="yes"/>
      <point x="77" y="1279" type="line" smooth="yes"/>
      <point x="60" y="1296"/>
      <point x="20" y="1277"/>
      <point x="20" y="1256" type="qcurve" smooth="yes"/>
      <point x="20" y="964" type="line"/>
      <point x="108" y="964" type="line" smooth="yes"/>
      <point x="124" y="964"/>
      <point x="148" y="940"/>
      <point x="148" y="907"/>
      <point x="124" y="883"/>
      <point x="108" y="883" type="qcurve" smooth="yes"/>
      <point x="20" y="883" type="line"/>
      <point x="20" y="757" type="line"/>
      <point x="108" y="757" type="line" smooth="yes"/>
      <point x="124" y="757"/>
      <point x="148" y="733"/>
      <point x="148" y="700"/>
      <point x="124" y="676"/>
      <point x="108" y="676" type="qcurve" smooth="yes"/>
      <point x="20" y="676" type="line"/>
      <point x="20" y="550" type="line"/>
      <point x="108" y="550" type="line" smooth="yes"/>
      <point x="124" y="550"/>
      <point x="148" y="527"/>
      <point x="148" y="493"/>
      <point x="124" y="470"/>
      <point x="108" y="470" type="qcurve" smooth="yes"/>
      <point x="20" y="470" type="line"/>
      <point x="20" y="341" type="line"/>
      <point x="108" y="341" type="line" smooth="yes"/>
      <point x="124" y="341"/>
      <point x="148" y="320"/>
      <point x="148" y="287"/>
      <point x="124" y="263"/>
      <point x="108" y="263" type="qcurve" smooth="yes"/>
      <point x="20" y="263" type="line"/>
      <point x="20" y="163" type="line" smooth="yes"/>
      <point x="20" y="149"/>
    </contour>
    <contour>
      <point x="260" y="370" type="line"/>
      <point x="260" y="757" type="line"/>
      <point x="647" y="370" type="line"/>
    </contour>
  </outline>
</glyph>
<glyph name="tree" format="2">
  <advance width="1200"/>
  <unicode hex="E21C"/>
  <note>
tree
</note>
  <outline>
    <contour>
      <point x="538" y="474"/>
      <point x="498" y="482" type="qcurve"/>
      <point x="493" y="476"/>
      <point x="463" y="460"/>
      <point x="455" y="458" type="qcurve"/>
      <point x="455" y="58" type="line"/>
      <point x="707" y="58" type="line"/>
      <point x="707" y="493" type="line"/>
      <point x="638" y="474"/>
      <point x="581" y="474" type="qcurve" smooth="yes"/>
    </contour>
    <contour>
      <point x="119" y="783"/>
      <point x="119" y="938" type="qcurve" smooth="yes"/>
      <point x="119" y="970"/>
      <point x="122" y="987" type="qcurve"/>
      <point x="20" y="893"/>
      <point x="20" y="761" type="qcurve" smooth="yes"/>
      <point x="20" y="638"/>
      <point x="195" y="466"/>
      <point x="318" y="466" type="qcurve" smooth="yes"/>
      <point x="383" y="466"/>
      <point x="447" y="495" type="qcurve"/>
      <point x="302" y="538"/>
    </contour>
    <contour>
      <point x="1056" y="1105"/>
      <point x="960" y="1132" type="qcurve"/>
      <point x="906" y="1236"/>
      <point x="705" y="1363"/>
      <point x="581" y="1363" type="qcurve" smooth="yes"/>
      <point x="442" y="1363"/>
      <point x="216" y="1196"/>
      <point x="173" y="1064" type="qcurve"/>
      <point x="173" y="1056"/>
      <point x="168" y="1040" type="qcurve"/>
      <point x="165" y="1038"/>
      <point x="165" y="1021"/>
      <point x="162" y="1016" type="qcurve"/>
      <point x="154" y="976"/>
      <point x="154" y="938" type="qcurve" smooth="yes"/>
      <point x="154" y="796"/>
      <point x="323" y="570"/>
      <point x="455" y="530" type="qcurve" smooth="yes"/>
      <point x="460" y="527"/>
      <point x="485" y="522"/>
      <point x="490" y="522" type="qcurve"/>
      <point x="506" y="517"/>
      <point x="514" y="517" type="qcurve"/>
      <point x="522" y="514"/>
      <point x="538" y="514" type="qcurve" smooth="yes"/>
      <point x="552" y="511"/>
      <point x="581" y="511" type="qcurve" smooth="yes"/>
      <point x="638" y="511"/>
      <point x="707" y="530" type="qcurve" smooth="yes"/>
      <point x="750" y="544"/>
      <point x="785" y="562" type="qcurve"/>
      <point x="831" y="546"/>
      <point x="882" y="546" type="qcurve" smooth="yes"/>
      <point x="1005" y="546"/>
      <point x="1180" y="721"/>
      <point x="1180" y="844" type="qcurve" smooth="yes"/>
      <point x="1180" y="946"/>
    </contour>
  </outline>
</glyph>
<glyph name="sun-cloud" format="2">
  <advance width="1200"/>
  <unicode hex="E21D"/>
  <note>
sun-cloud
</note>
  <outline>
    <contour>
      <point x="1054" y="667"/>
      <point x="964" y="667" type="qcurve" smooth="yes"/>
      <point x="921" y="667"/>
      <point x="885" y="653" type="qcurve"/>
      <point x="878" y="703"/>
      <point x="857" y="741" type="qcurve"/>
      <point x="933" y="848" type="line"/>
      <point x="938" y="857"/>
      <point x="935" y="862" type="qcurve" smooth="yes"/>
      <point x="930" y="872"/>
      <point x="926" y="874" type="qcurve" smooth="yes"/>
      <point x="771" y="924" type="line"/>
      <point x="771" y="1086" type="line" smooth="yes"/>
      <point x="771" y="1093"/>
      <point x="764" y="1100" type="qcurve"/>
      <point x="757" y="1102"/>
      <point x="747" y="1100" type="qcurve" smooth="yes"/>
      <point x="595" y="1052" type="line"/>
      <point x="500" y="1183" type="line"/>
      <point x="495" y="1188"/>
      <point x="486" y="1188" type="qcurve" smooth="yes"/>
      <point x="481" y="1188"/>
      <point x="472" y="1183" type="qcurve"/>
      <point x="377" y="1052" type="line"/>
      <point x="224" y="1100" type="line"/>
      <point x="215" y="1105"/>
      <point x="208" y="1100" type="qcurve" smooth="yes"/>
      <point x="201" y="1093"/>
      <point x="201" y="1086" type="qcurve" smooth="yes"/>
      <point x="201" y="924" type="line"/>
      <point x="49" y="874" type="line" smooth="yes"/>
      <point x="41" y="872"/>
      <point x="37" y="862" type="qcurve" smooth="yes"/>
      <point x="34" y="857"/>
      <point x="39" y="848" type="qcurve"/>
      <point x="134" y="717" type="line"/>
      <point x="39" y="586" type="line"/>
      <point x="34" y="577"/>
      <point x="39" y="563"/>
      <point x="49" y="560" type="qcurve" smooth="yes"/>
      <point x="196" y="513" type="line"/>
      <point x="184" y="489"/>
      <point x="184" y="453" type="qcurve" smooth="yes"/>
      <point x="184" y="449" type="line"/>
      <point x="165" y="456"/>
      <point x="146" y="456" type="qcurve" smooth="yes"/>
      <point x="94" y="456"/>
      <point x="20" y="380"/>
      <point x="20" y="327" type="qcurve" smooth="yes"/>
      <point x="20" y="232"/>
      <point x="146" y="232" type="qcurve" smooth="yes"/>
      <point x="964" y="232" type="line" smooth="yes"/>
      <point x="1052" y="232"/>
      <point x="1180" y="358"/>
      <point x="1180" y="539"/>
    </contour>
    <contour>
      <point x="697" y="884"/>
      <point x="614" y="884" type="qcurve" smooth="yes"/>
      <point x="500" y="884"/>
      <point x="341" y="724"/>
      <point x="341" y="610" type="qcurve" smooth="yes"/>
      <point x="341" y="598" type="line"/>
      <point x="339" y="601"/>
      <point x="331" y="601" type="qcurve" smooth="yes"/>
      <point x="272" y="601"/>
      <point x="229" y="558" type="qcurve"/>
      <point x="213" y="582"/>
      <point x="208" y="598" type="qcurve"/>
      <point x="182" y="658"/>
      <point x="182" y="777"/>
      <point x="208" y="834" type="qcurve" smooth="yes"/>
      <point x="229" y="893"/>
      <point x="272" y="931" type="qcurve"/>
      <point x="310" y="974"/>
      <point x="369" y="995" type="qcurve" smooth="yes"/>
      <point x="426" y="1021"/>
      <point x="545" y="1021"/>
      <point x="605" y="995" type="qcurve" smooth="yes"/>
      <point x="662" y="971"/>
      <point x="700" y="931" type="qcurve" smooth="yes"/>
      <point x="743" y="888"/>
      <point x="762" y="841" type="qcurve"/>
    </contour>
  </outline>
</glyph>
<glyph name="ruby-o" format="2">
  <advance width="1200"/>
  <unicode hex="E21E"/>
  <note>
ruby-o
</note>
  <outline>
    <contour>
      <point x="1180" y="866" type="line"/>
      <point x="1180" y="868" type="line"/>
      <point x="1180" y="871" type="line"/>
      <point x="1178" y="873"/>
      <point x="1178" y="875" type="qcurve"/>
      <point x="1175" y="878" type="line"/>
      <point x="1175" y="880"/>
      <point x="1173" y="883" type="qcurve" smooth="yes"/>
      <point x="945" y="1182" type="line"/>
      <point x="943" y="1185" type="line"/>
      <point x="940" y="1187" type="line"/>
      <point x="938" y="1189" type="line"/>
      <point x="936" y="1189"/>
      <point x="936" y="1192"/>
      <point x="931" y="1192"/>
      <point x="931" y="1194" type="qcurve"/>
      <point x="926" y="1194" type="line"/>
      <point x="924" y="1197" type="line"/>
      <point x="916" y="1197" type="line"/>
      <point x="288" y="1197" type="line" smooth="yes"/>
      <point x="269" y="1197"/>
      <point x="260" y="1182" type="qcurve" smooth="yes"/>
      <point x="27" y="883" type="line"/>
      <point x="25" y="883"/>
      <point x="25" y="878" type="qcurve"/>
      <point x="22" y="875" type="line"/>
      <point x="22" y="873"/>
      <point x="20" y="868" type="qcurve"/>
      <point x="20" y="866" type="line"/>
      <point x="20" y="859" type="line"/>
      <point x="20" y="854" type="line"/>
      <point x="20" y="851" type="line"/>
      <point x="22" y="849"/>
      <point x="22" y="847" type="qcurve"/>
      <point x="25" y="842"/>
      <point x="30" y="837" type="qcurve" smooth="yes"/>
      <point x="583" y="235" type="line" smooth="yes"/>
      <point x="588" y="231"/>
      <point x="590" y="231" type="qcurve"/>
      <point x="595" y="226"/>
      <point x="598" y="226" type="qcurve" smooth="yes"/>
      <point x="600" y="226" type="line"/>
      <point x="602" y="223"/>
      <point x="617" y="223"/>
      <point x="619" y="226" type="qcurve"/>
      <point x="622" y="226" type="line" smooth="yes"/>
      <point x="624" y="226"/>
      <point x="624" y="226" type="qcurve"/>
      <point x="629" y="228" type="line"/>
      <point x="629" y="231"/>
      <point x="631" y="231" type="qcurve"/>
      <point x="636" y="235" type="line"/>
      <point x="1173" y="837" type="line"/>
      <point x="1173" y="839"/>
      <point x="1175" y="842" type="qcurve"/>
      <point x="1175" y="844"/>
      <point x="1178" y="847" type="qcurve"/>
      <point x="1178" y="849"/>
      <point x="1180" y="851" type="qcurve"/>
      <point x="1180" y="856" type="line"/>
      <point x="1180" y="859" type="line"/>
    </contour>
    <contour>
      <point x="679" y="1127" type="line"/>
      <point x="871" y="1127" type="line"/>
      <point x="828" y="935" type="line"/>
    </contour>
    <contour>
      <point x="461" y="897" type="line"/>
      <point x="607" y="1103" type="line"/>
      <point x="768" y="897" type="line"/>
    </contour>
    <contour>
      <point x="339" y="1127" type="line"/>
      <point x="538" y="1127" type="line"/>
      <point x="401" y="933" type="line"/>
    </contour>
    <contour>
      <point x="128" y="897" type="line"/>
      <point x="276" y="1089" type="line"/>
      <point x="339" y="897" type="line"/>
    </contour>
    <contour>
      <point x="514" y="415" type="line"/>
      <point x="135" y="825" type="line"/>
      <point x="363" y="825" type="line"/>
    </contour>
    <contour>
      <point x="797" y="825" type="line"/>
      <point x="612" y="358" type="line"/>
      <point x="437" y="825" type="line"/>
    </contour>
    <contour>
      <point x="1067" y="825" type="line"/>
      <point x="715" y="432" type="line"/>
      <point x="871" y="825" type="line"/>
    </contour>
    <contour>
      <point x="1075" y="897" type="line"/>
      <point x="892" y="897" type="line"/>
      <point x="933" y="1079" type="line"/>
    </contour>
  </outline>
</glyph>
<glyph name="ruler" format="2">
  <advance width="1200"/>
  <unicode hex="E21F"/>
  <note>
ruler
</note>
  <outline>
    <contour>
      <point x="1187" y="1005"/>
      <point x="1173" y="1024" type="qcurve"/>
      <point x="914" y="1283" type="line"/>
      <point x="895" y="1297"/>
      <point x="876" y="1283" type="qcurve"/>
      <point x="826" y="1231" type="line" smooth="yes"/>
      <point x="819" y="1223"/>
      <point x="819" y="1214" type="qcurve" smooth="yes"/>
      <point x="819" y="1202"/>
      <point x="826" y="1195" type="qcurve" smooth="yes"/>
      <point x="942" y="1081" type="line"/>
      <point x="909" y="1048" type="line"/>
      <point x="793" y="1162" type="line"/>
      <point x="776" y="1183"/>
      <point x="757" y="1162" type="qcurve" smooth="yes"/>
      <point x="714" y="1119" type="line" smooth="yes"/>
      <point x="707" y="1112"/>
      <point x="707" y="1100" type="qcurve" smooth="yes"/>
      <point x="707" y="1090"/>
      <point x="714" y="1083" type="qcurve" smooth="yes"/>
      <point x="783" y="1012" type="line"/>
      <point x="750" y="981" type="line"/>
      <point x="681" y="1050" type="line" smooth="yes"/>
      <point x="662" y="1067"/>
      <point x="645" y="1050" type="qcurve" smooth="yes"/>
      <point x="600" y="1005" type="line" smooth="yes"/>
      <point x="593" y="998"/>
      <point x="593" y="988" type="qcurve" smooth="yes"/>
      <point x="593" y="976"/>
      <point x="600" y="969" type="qcurve" smooth="yes"/>
      <point x="716" y="853" type="line"/>
      <point x="683" y="819" type="line"/>
      <point x="567" y="936" type="line" smooth="yes"/>
      <point x="548" y="952"/>
      <point x="531" y="936" type="qcurve" smooth="yes"/>
      <point x="488" y="893" type="line" smooth="yes"/>
      <point x="479" y="884"/>
      <point x="479" y="865"/>
      <point x="488" y="855" type="qcurve" smooth="yes"/>
      <point x="557" y="786" type="line"/>
      <point x="524" y="753" type="line"/>
      <point x="455" y="822" type="line" smooth="yes"/>
      <point x="436" y="841"/>
      <point x="417" y="822" type="qcurve" smooth="yes"/>
      <point x="374" y="779" type="line" smooth="yes"/>
      <point x="367" y="772"/>
      <point x="367" y="760" type="qcurve" smooth="yes"/>
      <point x="367" y="750"/>
      <point x="374" y="743" type="qcurve" smooth="yes"/>
      <point x="491" y="627" type="line"/>
      <point x="457" y="594" type="line"/>
      <point x="341" y="710" type="line" smooth="yes"/>
      <point x="324" y="729"/>
      <point x="305" y="710" type="qcurve" smooth="yes"/>
      <point x="260" y="665" type="line" smooth="yes"/>
      <point x="243" y="648"/>
      <point x="260" y="629" type="qcurve" smooth="yes"/>
      <point x="331" y="560" type="line"/>
      <point x="296" y="527" type="line"/>
      <point x="227" y="596" type="line" smooth="yes"/>
      <point x="220" y="603"/>
      <point x="210" y="603" type="qcurve" smooth="yes"/>
      <point x="198" y="603"/>
      <point x="191" y="596" type="qcurve" smooth="yes"/>
      <point x="148" y="553" type="line" smooth="yes"/>
      <point x="127" y="534"/>
      <point x="148" y="517" type="qcurve"/>
      <point x="262" y="401" type="line"/>
      <point x="229" y="368" type="line"/>
      <point x="115" y="484" type="line" smooth="yes"/>
      <point x="108" y="491"/>
      <point x="96" y="491" type="qcurve" smooth="yes"/>
      <point x="87" y="491"/>
      <point x="79" y="484" type="qcurve" smooth="yes"/>
      <point x="27" y="434" type="line"/>
      <point x="13" y="415"/>
      <point x="27" y="396" type="qcurve"/>
      <point x="286" y="137" type="line" smooth="yes"/>
      <point x="293" y="130"/>
      <point x="305" y="130" type="qcurve" smooth="yes"/>
      <point x="315" y="130"/>
      <point x="324" y="137" type="qcurve"/>
      <point x="1173" y="986" type="line"/>
    </contour>
  </outline>
</glyph>
<glyph name="umbrella" format="2">
  <advance width="1200"/>
  <unicode hex="E220"/>
  <note>
umbrella
</note>
  <outline>
    <contour>
      <point x="1181" y="687"/>
      <point x="1176" y="718" type="qcurve" smooth="yes"/>
      <point x="1148" y="918"/>
      <point x="850" y="1197"/>
      <point x="648" y="1214" type="qcurve"/>
      <point x="648" y="1235"/>
      <point x="619" y="1266"/>
      <point x="581" y="1266"/>
      <point x="552" y="1235"/>
      <point x="552" y="1214" type="qcurve"/>
      <point x="350" y="1197"/>
      <point x="52" y="918"/>
      <point x="24" y="718" type="qcurve" smooth="yes"/>
      <point x="19" y="687"/>
      <point x="21" y="687"/>
      <point x="36" y="716" type="qcurve" smooth="yes"/>
      <point x="88" y="828"/>
      <point x="212" y="828" type="qcurve" smooth="yes"/>
      <point x="271" y="828"/>
      <point x="369" y="761"/>
      <point x="390" y="706" type="qcurve" smooth="yes"/>
      <point x="402" y="678"/>
      <point x="410" y="678"/>
      <point x="419" y="706" type="qcurve" smooth="yes"/>
      <point x="457" y="797"/>
      <point x="552" y="821" type="qcurve"/>
      <point x="552" y="352" type="line" smooth="yes"/>
      <point x="552" y="309"/>
      <point x="490" y="249"/>
      <point x="448" y="249" type="qcurve" smooth="yes"/>
      <point x="419" y="249" type="line" smooth="yes"/>
      <point x="376" y="249"/>
      <point x="314" y="309"/>
      <point x="314" y="352" type="qcurve"/>
      <point x="219" y="352" type="line"/>
      <point x="219" y="271"/>
      <point x="336" y="154"/>
      <point x="419" y="154" type="qcurve" smooth="yes"/>
      <point x="448" y="154" type="line" smooth="yes"/>
      <point x="531" y="154"/>
      <point x="648" y="268"/>
      <point x="648" y="352" type="qcurve" smooth="yes"/>
      <point x="648" y="821" type="line"/>
      <point x="743" y="797"/>
      <point x="781" y="706" type="qcurve" smooth="yes"/>
      <point x="790" y="678"/>
      <point x="798" y="678"/>
      <point x="810" y="706" type="qcurve" smooth="yes"/>
      <point x="831" y="761"/>
      <point x="929" y="828"/>
      <point x="988" y="828" type="qcurve" smooth="yes"/>
      <point x="1112" y="828"/>
      <point x="1164" y="716" type="qcurve" smooth="yes"/>
      <point x="1179" y="687"/>
    </contour>
  </outline>
</glyph>
<glyph name="medicine" format="2">
  <advance width="1200"/>
  <unicode hex="E221"/>
  <note>
medicine
</note>
  <outline>
    <contour>
      <point x="970" y="1050" type="line" smooth="yes"/>
      <point x="970" y="1205"/>
      <point x="754" y="1420"/>
      <point x="600" y="1420" type="qcurve" smooth="yes"/>
      <point x="489" y="1420"/>
      <point x="393" y="1356" type="qcurve" smooth="yes"/>
      <point x="230" y="1245"/>
      <point x="230" y="1050" type="qcurve" smooth="yes"/>
      <point x="230" y="370" type="line" smooth="yes"/>
      <point x="230" y="215"/>
      <point x="446" y="0"/>
      <point x="600" y="0" type="qcurve" smooth="yes"/>
      <point x="711" y="0"/>
      <point x="807" y="64" type="qcurve" smooth="yes"/>
      <point x="970" y="175"/>
      <point x="970" y="372" type="qcurve" smooth="yes"/>
    </contour>
    <contour>
      <point x="617" y="1219"/>
      <point x="559" y="1199" type="qcurve" smooth="yes"/>
      <point x="548" y="1196"/>
      <point x="519" y="1176"/>
      <point x="478" y="1097"/>
      <point x="478" y="1045" type="qcurve" smooth="yes"/>
      <point x="478" y="864" type="line" smooth="yes"/>
      <point x="478" y="832"/>
      <point x="449" y="812" type="qcurve" smooth="yes"/>
      <point x="437" y="803"/>
      <point x="414" y="803" type="qcurve" smooth="yes"/>
      <point x="390" y="803"/>
      <point x="353" y="838"/>
      <point x="353" y="864" type="qcurve" smooth="yes"/>
      <point x="353" y="1045" type="line" smooth="yes"/>
      <point x="353" y="1103"/>
      <point x="388" y="1205"/>
      <point x="431" y="1260"/>
      <point x="487" y="1301"/>
      <point x="513" y="1312"/>
      <point x="521" y="1315" type="qcurve" smooth="yes"/>
      <point x="580" y="1336"/>
      <point x="597" y="1277" type="qcurve" smooth="yes"/>
    </contour>
    <contour>
      <point x="847" y="643" type="qcurve" smooth="yes"/>
      <point x="847" y="372" type="line" smooth="yes"/>
      <point x="847" y="242"/>
      <point x="740" y="166" type="qcurve" smooth="yes"/>
      <point x="673" y="125"/>
      <point x="600" y="125" type="qcurve" smooth="yes"/>
      <point x="495" y="125"/>
      <point x="425" y="198" type="qcurve" smooth="yes"/>
      <point x="353" y="265"/>
      <point x="353" y="370" type="qcurve" smooth="yes"/>
      <point x="353" y="640" type="line" smooth="yes"/>
      <point x="353" y="669"/>
      <point x="396" y="713"/>
      <point x="425" y="713" type="qcurve" smooth="yes"/>
      <point x="775" y="716" type="line" smooth="yes"/>
      <point x="807" y="716"/>
      <point x="824" y="693" type="qcurve"/>
      <point x="847" y="675"/>
    </contour>
  </outline>
</glyph>
<glyph name="microscope" format="2">
  <advance width="1200"/>
  <unicode hex="E222"/>
  <note>
microscope
</note>
  <outline>
    <contour>
      <point x="1095" y="457"/>
      <point x="1077" y="457" type="qcurve" smooth="yes"/>
      <point x="1060" y="457" type="line"/>
      <point x="1025" y="457" type="line"/>
      <point x="911" y="457" type="line"/>
      <point x="876" y="457" type="line"/>
      <point x="841" y="457" type="line"/>
      <point x="679" y="457" type="line" smooth="yes"/>
      <point x="664" y="457"/>
      <point x="644" y="436"/>
      <point x="644" y="422" type="qcurve" smooth="yes"/>
      <point x="644" y="402" type="line" smooth="yes"/>
      <point x="644" y="367"/>
      <point x="679" y="367" type="qcurve" smooth="yes"/>
      <point x="792" y="367" type="line"/>
      <point x="769" y="349"/>
      <point x="690" y="320"/>
      <point x="664" y="314" type="qcurve" smooth="yes"/>
      <point x="635" y="308" type="line"/>
      <point x="600" y="303" type="line"/>
      <point x="463" y="303"/>
      <point x="268" y="498"/>
      <point x="268" y="634" type="qcurve" smooth="yes"/>
      <point x="268" y="762"/>
      <point x="443" y="948"/>
      <point x="568" y="960" type="qcurve"/>
      <point x="580" y="928" type="line"/>
      <point x="585" y="914" type="line"/>
      <point x="600" y="864" type="line"/>
      <point x="620" y="806" type="line"/>
      <point x="641" y="733" type="line" smooth="yes"/>
      <point x="652" y="701"/>
      <point x="684" y="713" type="qcurve" smooth="yes"/>
      <point x="769" y="739" type="line"/>
      <point x="853" y="765" type="line" smooth="yes"/>
      <point x="888" y="774"/>
      <point x="876" y="809" type="qcurve" smooth="yes"/>
      <point x="783" y="1103" type="line"/>
      <point x="687" y="1397" type="line" smooth="yes"/>
      <point x="676" y="1429"/>
      <point x="644" y="1417" type="qcurve"/>
      <point x="638" y="1417" type="line"/>
      <point x="632" y="1414" type="line" smooth="yes"/>
      <point x="623" y="1411"/>
      <point x="600" y="1405" type="qcurve" smooth="yes"/>
      <point x="521" y="1379" type="line"/>
      <point x="475" y="1365" type="line" smooth="yes"/>
      <point x="443" y="1353"/>
      <point x="455" y="1321" type="qcurve" smooth="yes"/>
      <point x="519" y="1120" type="line"/>
      <point x="341" y="1091"/>
      <point x="105" y="818"/>
      <point x="105" y="634" type="qcurve" smooth="yes"/>
      <point x="105" y="480"/>
      <point x="277" y="230"/>
      <point x="414" y="175" type="qcurve"/>
      <point x="239" y="143"/>
      <point x="239" y="76" type="qcurve" smooth="yes"/>
      <point x="239" y="35" type="line" smooth="yes"/>
      <point x="239" y="0"/>
      <point x="274" y="0" type="qcurve" smooth="yes"/>
      <point x="565" y="0" type="line"/>
      <point x="600" y="0" type="line"/>
      <point x="635" y="0" type="line"/>
      <point x="923" y="0" type="line" smooth="yes"/>
      <point x="958" y="0"/>
      <point x="958" y="35" type="qcurve" smooth="yes"/>
      <point x="958" y="76" type="line" smooth="yes"/>
      <point x="958" y="143"/>
      <point x="783" y="175" type="qcurve"/>
      <point x="786" y="177"/>
      <point x="809" y="186"/>
      <point x="812" y="189" type="qcurve"/>
      <point x="932" y="250"/>
      <point x="1002" y="352" type="qcurve"/>
      <point x="1025" y="367"/>
      <point x="1048" y="367" type="qcurve" smooth="yes"/>
      <point x="1060" y="367" type="line" smooth="yes"/>
      <point x="1095" y="367"/>
      <point x="1095" y="402" type="qcurve" smooth="yes"/>
      <point x="1095" y="422" type="line" smooth="yes"/>
    </contour>
  </outline>
</glyph>
<glyph name="milk-bottle" format="2">
  <advance width="1200"/>
  <unicode hex="E223"/>
  <note>
milk-bottle
</note>
  <outline>
    <contour>
      <point x="423" y="0" type="qcurve" smooth="yes"/>
      <point x="777" y="0" type="line" smooth="yes"/>
      <point x="800" y="0"/>
      <point x="836" y="35"/>
      <point x="836" y="59" type="qcurve" smooth="yes"/>
      <point x="836" y="778" type="line"/>
      <point x="364" y="778" type="line"/>
      <point x="364" y="616" type="line"/>
      <point x="509" y="616" type="line" smooth="yes"/>
      <point x="547" y="616"/>
      <point x="547" y="577" type="qcurve" smooth="yes"/>
      <point x="547" y="569" type="line" smooth="yes"/>
      <point x="547" y="530"/>
      <point x="509" y="530" type="qcurve" smooth="yes"/>
      <point x="364" y="530" type="line"/>
      <point x="364" y="433" type="line"/>
      <point x="509" y="433" type="line" smooth="yes"/>
      <point x="547" y="433"/>
      <point x="547" y="395" type="qcurve" smooth="yes"/>
      <point x="547" y="386" type="line" smooth="yes"/>
      <point x="547" y="348"/>
      <point x="509" y="348" type="qcurve" smooth="yes"/>
      <point x="364" y="348" type="line"/>
      <point x="364" y="59" type="line" smooth="yes"/>
      <point x="364" y="35"/>
      <point x="400" y="0"/>
    </contour>
    <contour>
      <point x="497" y="1181" type="qcurve" smooth="yes"/>
      <point x="473" y="1158" type="line" smooth="yes"/>
      <point x="406" y="1099"/>
      <point x="388" y="1019" type="qcurve"/>
      <point x="812" y="1019" type="line"/>
      <point x="794" y="1099"/>
      <point x="727" y="1158" type="qcurve" smooth="yes"/>
      <point x="703" y="1181" type="line" smooth="yes"/>
      <point x="653" y="1237"/>
      <point x="668" y="1314" type="qcurve"/>
      <point x="668" y="1335" type="line" smooth="yes"/>
      <point x="668" y="1370"/>
      <point x="629" y="1420"/>
      <point x="571" y="1420"/>
      <point x="532" y="1370"/>
      <point x="532" y="1335" type="qcurve" smooth="yes"/>
      <point x="532" y="1314" type="line"/>
      <point x="547" y="1237"/>
    </contour>
    <contour>
      <point x="361" y="816" type="qcurve" smooth="yes"/>
      <point x="839" y="816" type="line" smooth="yes"/>
      <point x="859" y="816"/>
      <point x="895" y="851"/>
      <point x="895" y="872" type="qcurve" smooth="yes"/>
      <point x="895" y="922" type="line" smooth="yes"/>
      <point x="895" y="946"/>
      <point x="877" y="963" type="qcurve" smooth="yes"/>
      <point x="862" y="978"/>
      <point x="839" y="978" type="qcurve" smooth="yes"/>
      <point x="361" y="978" type="line" smooth="yes"/>
      <point x="338" y="978"/>
      <point x="305" y="946"/>
      <point x="305" y="922" type="qcurve" smooth="yes"/>
      <point x="305" y="872" type="line" smooth="yes"/>
      <point x="305" y="846"/>
      <point x="323" y="834" type="qcurve"/>
      <point x="335" y="816"/>
    </contour>
  </outline>
</glyph>
<glyph name="minimize" format="2">
  <advance width="1200"/>
  <unicode hex="E224"/>
  <note>
minimize
</note>
  <outline>
    <contour>
      <point x="1180" y="792" type="line" smooth="yes"/>
      <point x="1180" y="825"/>
      <point x="1147" y="825" type="qcurve" smooth="yes"/>
      <point x="53" y="825" type="line" smooth="yes"/>
      <point x="20" y="825"/>
      <point x="20" y="792" type="qcurve" smooth="yes"/>
      <point x="20" y="628" type="line" smooth="yes"/>
      <point x="20" y="595"/>
      <point x="53" y="595" type="qcurve" smooth="yes"/>
      <point x="1147" y="595" type="line" smooth="yes"/>
      <point x="1180" y="595"/>
      <point x="1180" y="628" type="qcurve" smooth="yes"/>
    </contour>
  </outline>
</glyph>
<glyph name="molecule" format="2">
  <advance width="1200"/>
  <unicode hex="E225"/>
  <note>
molecule
</note>
  <outline>
    <contour>
      <point x="1095" y="477"/>
      <point x="1036" y="477" type="qcurve" smooth="yes"/>
      <point x="984" y="477"/>
      <point x="944" y="441" type="qcurve"/>
      <point x="805" y="533" type="line"/>
      <point x="822" y="573"/>
      <point x="822" y="613" type="qcurve" smooth="yes"/>
      <point x="822" y="691"/>
      <point x="720" y="814"/>
      <point x="645" y="828" type="qcurve"/>
      <point x="645" y="953" type="line"/>
      <point x="690" y="967"/>
      <point x="746" y="1042"/>
      <point x="746" y="1090" type="qcurve" smooth="yes"/>
      <point x="746" y="1149"/>
      <point x="661" y="1236"/>
      <point x="539" y="1236"/>
      <point x="454" y="1149"/>
      <point x="454" y="1090" type="qcurve" smooth="yes"/>
      <point x="454" y="1042"/>
      <point x="510" y="967"/>
      <point x="555" y="953" type="qcurve"/>
      <point x="555" y="828" type="line"/>
      <point x="480" y="814"/>
      <point x="378" y="691"/>
      <point x="378" y="613" type="qcurve" smooth="yes"/>
      <point x="378" y="573"/>
      <point x="395" y="533" type="qcurve"/>
      <point x="256" y="441" type="line"/>
      <point x="216" y="477"/>
      <point x="164" y="477" type="qcurve" smooth="yes"/>
      <point x="105" y="477"/>
      <point x="20" y="392"/>
      <point x="20" y="269"/>
      <point x="105" y="184"/>
      <point x="223" y="184"/>
      <point x="310" y="271"/>
      <point x="310" y="330" type="qcurve" smooth="yes"/>
      <point x="310" y="345"/>
      <point x="305" y="368" type="qcurve"/>
      <point x="442" y="458" type="line"/>
      <point x="508" y="392"/>
      <point x="692" y="392"/>
      <point x="758" y="458" type="qcurve"/>
      <point x="895" y="368" type="line"/>
      <point x="890" y="345"/>
      <point x="890" y="330" type="qcurve" smooth="yes"/>
      <point x="890" y="271"/>
      <point x="977" y="184"/>
      <point x="1095" y="184"/>
      <point x="1180" y="269"/>
      <point x="1180" y="392"/>
    </contour>
  </outline>
</glyph>
<glyph name="moon-cloud" format="2">
  <advance width="1200"/>
  <unicode hex="E226"/>
  <note>
moon-cloud
</note>
  <outline>
    <contour>
      <point x="1052" y="717"/>
      <point x="962" y="717" type="qcurve" smooth="yes"/>
      <point x="922" y="717"/>
      <point x="886" y="703" type="qcurve"/>
      <point x="870" y="802"/>
      <point x="716" y="935"/>
      <point x="614" y="935" type="qcurve" smooth="yes"/>
      <point x="524" y="935"/>
      <point x="385" y="831"/>
      <point x="356" y="748" type="qcurve"/>
      <point x="349" y="757" type="line" smooth="yes"/>
      <point x="344" y="764"/>
      <point x="342" y="769" type="qcurve" smooth="yes"/>
      <point x="306" y="826"/>
      <point x="306" y="897" type="qcurve" smooth="yes"/>
      <point x="306" y="949"/>
      <point x="328" y="999" type="qcurve" smooth="yes"/>
      <point x="349" y="1046"/>
      <point x="389" y="1084" type="qcurve" smooth="yes"/>
      <point x="406" y="1098"/>
      <point x="396" y="1119" type="qcurve" smooth="yes"/>
      <point x="389" y="1138"/>
      <point x="368" y="1136" type="qcurve" smooth="yes"/>
      <point x="295" y="1131"/>
      <point x="231" y="1105" type="qcurve" smooth="yes"/>
      <point x="169" y="1074"/>
      <point x="122" y="1027" type="qcurve" smooth="yes"/>
      <point x="72" y="973"/>
      <point x="48" y="913" type="qcurve" smooth="yes"/>
      <point x="20" y="850"/>
      <point x="20" y="703"/>
      <point x="48" y="636" type="qcurve" smooth="yes"/>
      <point x="82" y="565"/>
      <point x="127" y="520" type="qcurve" smooth="yes"/>
      <point x="129" y="518"/>
      <point x="141" y="509"/>
      <point x="143" y="506" type="qcurve"/>
      <point x="93" y="504"/>
      <point x="20" y="431"/>
      <point x="20" y="381" type="qcurve" smooth="yes"/>
      <point x="20" y="284"/>
      <point x="148" y="284" type="qcurve" smooth="yes"/>
      <point x="962" y="284" type="line" smooth="yes"/>
      <point x="1052" y="284"/>
      <point x="1180" y="409"/>
      <point x="1180" y="589"/>
    </contour>
    <contour>
      <point x="342" y="653"/>
      <point x="342" y="651" type="qcurve"/>
      <point x="332" y="651" type="line" smooth="yes"/>
      <point x="283" y="651"/>
      <point x="205" y="592"/>
      <point x="190" y="547" type="qcurve"/>
      <point x="176" y="556"/>
      <point x="169" y="563" type="qcurve" smooth="yes"/>
      <point x="131" y="601"/>
      <point x="105" y="658" type="qcurve" smooth="yes"/>
      <point x="82" y="712"/>
      <point x="82" y="776" type="qcurve" smooth="yes"/>
      <point x="82" y="880"/>
      <point x="141" y="956" type="qcurve" smooth="yes"/>
      <point x="200" y="1037"/>
      <point x="295" y="1065" type="qcurve"/>
      <point x="247" y="984"/>
      <point x="247" y="897" type="qcurve" smooth="yes"/>
      <point x="247" y="812"/>
      <point x="288" y="738" type="qcurve" smooth="yes"/>
      <point x="311" y="698"/>
      <point x="342" y="670" type="qcurve"/>
      <point x="340" y="667" type="line"/>
      <point x="340" y="663"/>
      <point x="340" y="660" type="qcurve" smooth="yes"/>
      <point x="340" y="655" type="line"/>
    </contour>
  </outline>
</glyph>
<glyph name="mushroom" format="2">
  <advance width="1200"/>
  <unicode hex="E227"/>
  <note>
mushroom
</note>
  <outline>
    <contour>
      <point x="1177" y="1071"/>
      <point x="839" y="1321"/>
      <point x="358" y="1321"/>
      <point x="20" y="1071"/>
      <point x="20" y="893" type="qcurve" smooth="yes"/>
      <point x="20" y="848"/>
      <point x="43" y="778"/>
      <point x="90" y="738"/>
      <point x="135" y="713"/>
      <point x="205" y="705"/>
      <point x="245" y="702"/>
      <point x="311" y="705"/>
      <point x="316" y="705" type="qcurve" smooth="yes"/>
      <point x="348" y="705" type="line"/>
      <point x="466" y="705" type="line"/>
      <point x="446" y="630"/>
      <point x="446" y="542" type="qcurve" smooth="yes"/>
      <point x="446" y="517"/>
      <point x="453" y="437" type="qcurve" smooth="yes"/>
      <point x="453" y="444"/>
      <point x="393" y="424"/>
      <point x="333" y="342"/>
      <point x="333" y="269" type="qcurve" smooth="yes"/>
      <point x="333" y="191"/>
      <point x="483" y="99"/>
      <point x="714" y="99"/>
      <point x="864" y="191"/>
      <point x="864" y="269" type="qcurve" smooth="yes"/>
      <point x="864" y="342"/>
      <point x="804" y="424"/>
      <point x="747" y="444"/>
      <point x="744" y="437" type="qcurve"/>
      <point x="747" y="469"/>
      <point x="752" y="510"/>
      <point x="754" y="525"/>
      <point x="754" y="542" type="qcurve" smooth="yes"/>
      <point x="754" y="635"/>
      <point x="732" y="705" type="qcurve"/>
      <point x="849" y="705" type="line"/>
      <point x="882" y="705" type="line" smooth="yes"/>
      <point x="887" y="705"/>
      <point x="952" y="702"/>
      <point x="992" y="705"/>
      <point x="1062" y="713"/>
      <point x="1107" y="738"/>
      <point x="1157" y="778"/>
      <point x="1180" y="848"/>
      <point x="1180" y="893" type="qcurve" smooth="yes"/>
    </contour>
  </outline>
</glyph>
<glyph name="mustache" format="2">
  <advance width="1200"/>
  <unicode hex="E228"/>
  <note>
mustache
</note>
  <outline>
    <contour>
      <point x="130" y="588"/>
      <point x="245" y="549"/>
      <point x="394" y="549"/>
      <point x="559" y="629"/>
      <point x="600" y="710" type="qcurve"/>
      <point x="641" y="629"/>
      <point x="806" y="549"/>
      <point x="955" y="549"/>
      <point x="1070" y="585"/>
      <point x="1130" y="638"/>
      <point x="1168" y="693"/>
      <point x="1175" y="710" type="qcurve" smooth="yes"/>
      <point x="1180" y="729" type="line"/>
      <point x="1142" y="691"/>
      <point x="1060" y="691" type="qcurve" smooth="yes"/>
      <point x="1019" y="691"/>
      <point x="948" y="782"/>
      <point x="861" y="871"/>
      <point x="801" y="871" type="qcurve" smooth="yes"/>
      <point x="739" y="871"/>
      <point x="638" y="820"/>
      <point x="619" y="796" type="qcurve" smooth="yes"/>
      <point x="600" y="770" type="line"/>
      <point x="593" y="782"/>
      <point x="566" y="815"/>
      <point x="461" y="871"/>
      <point x="399" y="871" type="qcurve" smooth="yes"/>
      <point x="351" y="871"/>
      <point x="276" y="815"/>
      <point x="233" y="746"/>
      <point x="173" y="691"/>
      <point x="140" y="691" type="qcurve" smooth="yes"/>
      <point x="58" y="691"/>
      <point x="20" y="729" type="qcurve"/>
      <point x="22" y="722"/>
      <point x="30" y="698"/>
      <point x="70" y="636"/>
    </contour>
  </outline>
</glyph>
<glyph name="mysql" format="2">
  <advance width="1200"/>
  <unicode hex="E229"/>
  <note>
mysql
</note>
  <outline>
    <contour>
      <point x="20" y="614" type="qcurve" smooth="yes"/>
      <point x="20" y="462" type="line"/>
      <point x="58" y="462" type="line"/>
      <point x="58" y="614" type="line"/>
      <point x="117" y="481" type="line" smooth="yes"/>
      <point x="127" y="459"/>
      <point x="179" y="459"/>
      <point x="189" y="481" type="qcurve" smooth="yes"/>
      <point x="248" y="614" type="line"/>
      <point x="248" y="462" type="line"/>
      <point x="286" y="462" type="line"/>
      <point x="286" y="614" type="line" smooth="yes"/>
      <point x="286" y="633"/>
      <point x="267" y="637" type="qcurve" smooth="yes"/>
      <point x="224" y="652"/>
      <point x="210" y="621" type="qcurve" smooth="yes"/>
      <point x="151" y="490" type="line"/>
      <point x="94" y="621" type="line" smooth="yes"/>
      <point x="82" y="652"/>
      <point x="37" y="637" type="qcurve"/>
      <point x="20" y="635"/>
    </contour>
    <contour>
      <point x="317" y="497" type="line" smooth="yes"/>
      <point x="317" y="462"/>
      <point x="381" y="462" type="qcurve" smooth="yes"/>
      <point x="462" y="462" type="line"/>
      <point x="462" y="452" type="line" smooth="yes"/>
      <point x="462" y="447"/>
      <point x="462" y="443"/>
      <point x="453" y="433"/>
      <point x="441" y="433" type="qcurve" smooth="yes"/>
      <point x="320" y="433" type="line"/>
      <point x="320" y="407" type="line"/>
      <point x="441" y="407" type="line" smooth="yes"/>
      <point x="503" y="407"/>
      <point x="500" y="447" type="qcurve" smooth="yes"/>
      <point x="500" y="585" type="line"/>
      <point x="462" y="585" type="line"/>
      <point x="462" y="485" type="line"/>
      <point x="379" y="485" type="line" smooth="yes"/>
      <point x="369" y="485"/>
      <point x="358" y="492"/>
      <point x="358" y="500"/>
      <point x="358" y="502" type="qcurve" smooth="yes"/>
      <point x="358" y="585" type="line"/>
      <point x="317" y="585" type="line"/>
    </contour>
    <contour>
      <point x="531" y="488" type="line"/>
      <point x="531" y="462" type="line"/>
      <point x="640" y="462" type="line" smooth="yes"/>
      <point x="662" y="462"/>
      <point x="676" y="469" type="qcurve" smooth="yes"/>
      <point x="702" y="481"/>
      <point x="702" y="500" type="qcurve" smooth="yes"/>
      <point x="702" y="528" type="line" smooth="yes"/>
      <point x="702" y="547"/>
      <point x="674" y="557" type="qcurve" smooth="yes"/>
      <point x="655" y="561"/>
      <point x="640" y="561" type="qcurve" smooth="yes"/>
      <point x="595" y="561" type="line" smooth="yes"/>
      <point x="571" y="561"/>
      <point x="569" y="578" type="qcurve" smooth="yes"/>
      <point x="569" y="580" type="line"/>
      <point x="569" y="597" type="line"/>
      <point x="569" y="602" type="line" smooth="yes"/>
      <point x="571" y="611"/>
      <point x="590" y="614" type="qcurve" smooth="yes"/>
      <point x="593" y="614" type="line"/>
      <point x="702" y="614" type="line"/>
      <point x="702" y="637" type="line"/>
      <point x="595" y="637" type="line" smooth="yes"/>
      <point x="571" y="637"/>
      <point x="564" y="635" type="qcurve" smooth="yes"/>
      <point x="531" y="626"/>
      <point x="531" y="597" type="qcurve" smooth="yes"/>
      <point x="531" y="576" type="line" smooth="yes"/>
      <point x="531" y="545"/>
      <point x="583" y="540" type="qcurve"/>
      <point x="588" y="538"/>
      <point x="595" y="538" type="qcurve" smooth="yes"/>
      <point x="636" y="538" type="line"/>
      <point x="638" y="538" type="line" smooth="yes"/>
      <point x="657" y="538"/>
      <point x="659" y="530" type="qcurve"/>
      <point x="664" y="526"/>
      <point x="664" y="523" type="qcurve" smooth="yes"/>
      <point x="664" y="502" type="line" smooth="yes"/>
      <point x="664" y="495"/>
      <point x="657" y="492" type="qcurve"/>
      <point x="652" y="488"/>
      <point x="640" y="488" type="qcurve" smooth="yes"/>
      <point x="638" y="488" type="line"/>
    </contour>
    <contour>
      <point x="942" y="637" type="line"/>
      <point x="942" y="504" type="line" smooth="yes"/>
      <point x="942" y="464"/>
      <point x="1002" y="462" type="qcurve" smooth="yes"/>
      <point x="1014" y="462" type="line"/>
      <point x="1113" y="462" type="line"/>
      <point x="1113" y="485" type="line"/>
      <point x="1011" y="485" type="line" smooth="yes"/>
      <point x="980" y="485"/>
      <point x="980" y="507" type="qcurve" smooth="yes"/>
      <point x="980" y="637" type="line"/>
    </contour>
    <contour>
      <point x="726" y="473"/>
      <point x="764" y="464" type="qcurve" smooth="yes"/>
      <point x="778" y="459"/>
      <point x="785" y="459" type="qcurve" smooth="yes"/>
      <point x="826" y="459" type="line"/>
      <point x="857" y="462" type="line"/>
      <point x="888" y="435" type="line"/>
      <point x="933" y="435" type="line"/>
      <point x="895" y="469" type="line"/>
      <point x="919" y="478"/>
      <point x="919" y="504" type="qcurve" smooth="yes"/>
      <point x="919" y="595" type="line" smooth="yes"/>
      <point x="919" y="630"/>
      <point x="869" y="637" type="qcurve" smooth="yes"/>
      <point x="859" y="637" type="line"/>
      <point x="785" y="637" type="line"/>
      <point x="776" y="637" type="line" smooth="yes"/>
      <point x="726" y="630"/>
      <point x="726" y="595" type="qcurve" smooth="yes"/>
      <point x="726" y="504" type="line" smooth="yes"/>
    </contour>
    <contour>
      <point x="769" y="592" type="line" smooth="yes"/>
      <point x="769" y="611"/>
      <point x="797" y="611" type="qcurve" smooth="yes"/>
      <point x="854" y="611" type="line" smooth="yes"/>
      <point x="880" y="611"/>
      <point x="880" y="597" type="qcurve"/>
      <point x="883" y="595"/>
      <point x="883" y="592" type="qcurve" smooth="yes"/>
      <point x="883" y="507" type="line" smooth="yes"/>
      <point x="883" y="502"/>
      <point x="880" y="502" type="qcurve"/>
      <point x="880" y="492"/>
      <point x="871" y="490" type="qcurve"/>
      <point x="845" y="514" type="line"/>
      <point x="800" y="514" type="line"/>
      <point x="831" y="485" type="line"/>
      <point x="797" y="485" type="line" smooth="yes"/>
      <point x="774" y="485"/>
      <point x="769" y="502" type="qcurve"/>
      <point x="769" y="507" type="line"/>
    </contour>
    <contour>
      <point x="1147" y="690"/>
      <point x="1147" y="680" type="qcurve"/>
      <point x="1111" y="685"/>
      <point x="1090" y="673" type="qcurve" smooth="yes"/>
      <point x="1078" y="666" type="line"/>
      <point x="1080" y="666"/>
      <point x="1080" y="656"/>
      <point x="1083" y="656" type="qcurve"/>
      <point x="1085" y="649"/>
      <point x="1097" y="637" type="qcurve"/>
      <point x="1111" y="628"/>
      <point x="1121" y="623"/>
      <point x="1147" y="611"/>
      <point x="1151" y="607" type="qcurve"/>
      <point x="1173" y="592" type="line"/>
      <point x="1180" y="585" type="line"/>
      <point x="1180" y="590"/>
      <point x="1175" y="595" type="qcurve" smooth="yes"/>
      <point x="1173" y="597"/>
      <point x="1168" y="604" type="qcurve" smooth="yes"/>
      <point x="1154" y="623"/>
      <point x="1137" y="633" type="qcurve" smooth="yes"/>
      <point x="1104" y="656"/>
      <point x="1104" y="659" type="qcurve"/>
      <point x="1102" y="661" type="line"/>
      <point x="1109" y="661"/>
      <point x="1123" y="666" type="qcurve"/>
      <point x="1125" y="666"/>
      <point x="1147" y="668"/>
      <point x="1151" y="671" type="qcurve"/>
      <point x="1154" y="671"/>
      <point x="1163" y="673"/>
      <point x="1166" y="673" type="qcurve"/>
      <point x="1166" y="675" type="line"/>
      <point x="1156" y="690"/>
      <point x="1151" y="695" type="qcurve" smooth="yes"/>
      <point x="1118" y="721"/>
      <point x="1104" y="730" type="qcurve" smooth="yes"/>
      <point x="1099" y="735"/>
      <point x="1075" y="744"/>
      <point x="1073" y="744" type="qcurve"/>
      <point x="1061" y="749"/>
      <point x="1061" y="752" type="qcurve"/>
      <point x="1054" y="756"/>
      <point x="1049" y="773" type="qcurve"/>
      <point x="1023" y="825" type="line" smooth="yes"/>
      <point x="1011" y="854"/>
      <point x="1009" y="859" type="qcurve" smooth="yes"/>
      <point x="964" y="930"/>
      <point x="895" y="968" type="qcurve"/>
      <point x="885" y="975"/>
      <point x="857" y="980" type="qcurve" smooth="yes"/>
      <point x="850" y="982"/>
      <point x="835" y="982" type="qcurve"/>
      <point x="833" y="985"/>
      <point x="823" y="989"/>
      <point x="821" y="992" type="qcurve" smooth="yes"/>
      <point x="764" y="1032"/>
      <point x="750" y="996" type="qcurve" smooth="yes"/>
      <point x="743" y="982"/>
      <point x="769" y="949" type="qcurve"/>
      <point x="771" y="944"/>
      <point x="781" y="930"/>
      <point x="783" y="925" type="qcurve" smooth="yes"/>
      <point x="785" y="923"/>
      <point x="785" y="913"/>
      <point x="788" y="911" type="qcurve"/>
      <point x="797" y="882"/>
      <point x="802" y="870" type="qcurve"/>
      <point x="804" y="868"/>
      <point x="812" y="856"/>
      <point x="814" y="851" type="qcurve"/>
      <point x="821" y="844"/>
      <point x="821" y="842" type="qcurve"/>
      <point x="819" y="840"/>
      <point x="816" y="832"/>
      <point x="814" y="823"/>
      <point x="814" y="820" type="qcurve"/>
      <point x="797" y="759"/>
      <point x="823" y="721" type="qcurve" smooth="yes"/>
      <point x="840" y="697"/>
      <point x="854" y="704" type="qcurve"/>
      <point x="857" y="704"/>
      <point x="869" y="740" type="qcurve"/>
      <point x="869" y="747"/>
      <point x="871" y="749" type="qcurve"/>
      <point x="871" y="747" type="line"/>
      <point x="883" y="723" type="line" smooth="yes"/>
      <point x="890" y="709"/>
      <point x="921" y="683" type="qcurve" smooth="yes"/>
      <point x="923" y="680"/>
      <point x="938" y="668"/>
      <point x="942" y="666" type="qcurve"/>
      <point x="942" y="666" type="line"/>
      <point x="935" y="673" type="line"/>
      <point x="919" y="690" type="line" smooth="yes"/>
      <point x="911" y="699"/>
      <point x="888" y="740"/>
      <point x="885" y="744" type="qcurve" smooth="yes"/>
      <point x="883" y="754"/>
      <point x="873" y="773" type="qcurve" smooth="yes"/>
      <point x="871" y="778" type="line"/>
      <point x="871" y="782"/>
      <point x="869" y="782" type="qcurve"/>
      <point x="866" y="780"/>
      <point x="857" y="768"/>
      <point x="852" y="759"/>
      <point x="847" y="718" type="qcurve"/>
      <point x="845" y="718" type="line" smooth="yes"/>
      <point x="840" y="718"/>
      <point x="828" y="737" type="qcurve"/>
      <point x="814" y="778"/>
      <point x="826" y="816" type="qcurve" smooth="yes"/>
      <point x="835" y="844"/>
      <point x="833" y="849" type="qcurve"/>
      <point x="833" y="851"/>
      <point x="823" y="861" type="qcurve"/>
      <point x="814" y="875"/>
      <point x="812" y="880" type="qcurve" smooth="yes"/>
      <point x="807" y="887"/>
      <point x="800" y="923"/>
      <point x="795" y="932" type="qcurve" smooth="yes"/>
      <point x="781" y="954"/>
      <point x="778" y="956" type="qcurve" smooth="yes"/>
      <point x="764" y="977" type="line" smooth="yes"/>
      <point x="759" y="987"/>
      <point x="762" y="989" type="qcurve"/>
      <point x="762" y="994"/>
      <point x="766" y="994" type="qcurve" smooth="yes"/>
      <point x="769" y="994"/>
      <point x="774" y="994"/>
      <point x="783" y="992"/>
      <point x="785" y="992" type="qcurve"/>
      <point x="814" y="977" type="line"/>
      <point x="823" y="968"/>
      <point x="828" y="965" type="qcurve"/>
      <point x="833" y="965" type="line" smooth="yes"/>
      <point x="838" y="965"/>
      <point x="859" y="965"/>
      <point x="864" y="963" type="qcurve" smooth="yes"/>
      <point x="888" y="956"/>
      <point x="904" y="942" type="qcurve"/>
      <point x="961" y="908"/>
      <point x="997" y="842" type="qcurve" smooth="yes"/>
      <point x="999" y="837"/>
      <point x="1004" y="823"/>
      <point x="1006" y="820" type="qcurve"/>
      <point x="1011" y="806"/>
      <point x="1025" y="778" type="qcurve" smooth="yes"/>
      <point x="1040" y="747"/>
      <point x="1047" y="740" type="qcurve" smooth="yes"/>
      <point x="1049" y="737"/>
      <point x="1059" y="733"/>
      <point x="1075" y="728"/>
      <point x="1080" y="723"/>
      <point x="1094" y="718"/>
      <point x="1097" y="718" type="qcurve"/>
      <point x="1125" y="697" type="line"/>
    </contour>
    <contour>
      <point x="847" y="935" type="qcurve" smooth="yes"/>
      <point x="845" y="937" type="line"/>
      <point x="833" y="937" type="line"/>
      <point x="833" y="935" type="line"/>
      <point x="835" y="935" type="line"/>
      <point x="838" y="930"/>
      <point x="845" y="923" type="qcurve" smooth="yes"/>
      <point x="847" y="920"/>
      <point x="847" y="911"/>
      <point x="850" y="908" type="qcurve"/>
      <point x="852" y="911" type="line" smooth="yes"/>
      <point x="857" y="916"/>
      <point x="857" y="925" type="qcurve"/>
      <point x="854" y="930" type="line" smooth="yes"/>
      <point x="852" y="932"/>
    </contour>
    <contour>
      <point x="20" y="683" type="line"/>
      <point x="27" y="683" type="line"/>
      <point x="27" y="706" type="line"/>
      <point x="34" y="706" type="line" smooth="yes"/>
      <point x="44" y="706"/>
      <point x="53" y="711" type="qcurve"/>
      <point x="58" y="721"/>
      <point x="58" y="725" type="qcurve" smooth="yes"/>
      <point x="58" y="733"/>
      <point x="51" y="737" type="qcurve" smooth="yes"/>
      <point x="46" y="742"/>
      <point x="34" y="742" type="qcurve" smooth="yes"/>
      <point x="20" y="742" type="line"/>
    </contour>
    <contour>
      <point x="30" y="735" type="line"/>
      <point x="30" y="711" type="line"/>
      <point x="34" y="711" type="line" smooth="yes"/>
      <point x="49" y="711"/>
      <point x="49" y="725" type="qcurve" smooth="yes"/>
      <point x="49" y="735"/>
      <point x="37" y="735" type="qcurve" smooth="yes"/>
    </contour>
    <contour>
      <point x="106" y="725"/>
      <point x="84" y="725" type="qcurve" smooth="yes"/>
      <point x="65" y="725"/>
      <point x="65" y="704" type="qcurve" smooth="yes"/>
      <point x="65" y="680"/>
      <point x="84" y="680" type="qcurve" smooth="yes"/>
      <point x="106" y="680"/>
      <point x="106" y="704" type="qcurve" smooth="yes"/>
    </contour>
    <contour>
      <point x="84" y="721" type="qcurve" smooth="yes"/>
      <point x="98" y="721"/>
      <point x="98" y="687"/>
      <point x="84" y="687" type="qcurve" smooth="yes"/>
      <point x="72" y="687"/>
      <point x="72" y="721"/>
    </contour>
    <contour>
      <point x="110" y="725" type="line"/>
      <point x="125" y="683" type="line"/>
      <point x="132" y="683" type="line"/>
      <point x="136" y="702" type="line"/>
      <point x="141" y="711"/>
      <point x="141" y="716" type="qcurve"/>
      <point x="144" y="714"/>
      <point x="144" y="704"/>
      <point x="146" y="702" type="qcurve"/>
      <point x="153" y="683" type="line"/>
      <point x="158" y="683" type="line"/>
      <point x="172" y="725" type="line"/>
      <point x="165" y="725" type="line"/>
      <point x="158" y="704" type="line"/>
      <point x="158" y="702"/>
      <point x="155" y="692"/>
      <point x="155" y="690" type="qcurve" smooth="yes"/>
      <point x="155" y="695"/>
      <point x="151" y="704" type="qcurve"/>
      <point x="146" y="725" type="line"/>
      <point x="139" y="725" type="line"/>
      <point x="132" y="704" type="line"/>
      <point x="129" y="702"/>
      <point x="129" y="692"/>
      <point x="127" y="690" type="qcurve"/>
      <point x="127" y="692"/>
      <point x="125" y="702"/>
      <point x="125" y="704" type="qcurve" smooth="yes"/>
      <point x="120" y="725" type="line"/>
    </contour>
    <contour>
      <point x="215" y="702" type="line"/>
      <point x="215" y="706" type="line" smooth="yes"/>
      <point x="215" y="725"/>
      <point x="198" y="725" type="qcurve" smooth="yes"/>
      <point x="177" y="725"/>
      <point x="177" y="704" type="qcurve" smooth="yes"/>
      <point x="177" y="680"/>
      <point x="198" y="680" type="qcurve" smooth="yes"/>
      <point x="208" y="680"/>
      <point x="213" y="685" type="qcurve"/>
      <point x="210" y="690" type="line"/>
      <point x="208" y="687"/>
      <point x="198" y="687" type="qcurve" smooth="yes"/>
      <point x="184" y="687"/>
      <point x="184" y="702" type="qcurve"/>
    </contour>
    <contour>
      <point x="184" y="709" type="line"/>
      <point x="191" y="721"/>
      <point x="196" y="721" type="qcurve" smooth="yes"/>
      <point x="208" y="721"/>
      <point x="208" y="709" type="qcurve"/>
    </contour>
    <contour>
      <point x="224" y="683" type="line"/>
      <point x="232" y="683" type="line"/>
      <point x="232" y="704" type="line"/>
      <point x="232" y="709" type="line"/>
      <point x="236" y="718"/>
      <point x="243" y="718" type="qcurve" smooth="yes"/>
      <point x="246" y="718" type="line"/>
      <point x="246" y="725" type="line"/>
      <point x="243" y="725" type="line" smooth="yes"/>
      <point x="234" y="725"/>
      <point x="232" y="716" type="qcurve"/>
      <point x="232" y="725" type="line"/>
      <point x="224" y="725" type="line"/>
      <point x="224" y="711" type="line"/>
    </contour>
    <contour>
      <point x="289" y="702" type="line"/>
      <point x="289" y="706" type="line" smooth="yes"/>
      <point x="289" y="725"/>
      <point x="251" y="725"/>
      <point x="251" y="704" type="qcurve" smooth="yes"/>
      <point x="251" y="680"/>
      <point x="272" y="680" type="qcurve" smooth="yes"/>
      <point x="281" y="680"/>
      <point x="286" y="685" type="qcurve"/>
      <point x="284" y="690" type="line"/>
      <point x="281" y="687"/>
      <point x="272" y="687" type="qcurve" smooth="yes"/>
      <point x="258" y="687"/>
      <point x="258" y="702" type="qcurve"/>
    </contour>
    <contour>
      <point x="258" y="709" type="line"/>
      <point x="258" y="721"/>
      <point x="281" y="721"/>
      <point x="281" y="709" type="qcurve"/>
    </contour>
    <contour>
      <point x="327" y="744" type="line"/>
      <point x="327" y="718" type="line"/>
      <point x="324" y="725"/>
      <point x="315" y="725" type="qcurve" smooth="yes"/>
      <point x="293" y="725"/>
      <point x="293" y="704" type="qcurve" smooth="yes"/>
      <point x="293" y="680"/>
      <point x="312" y="680" type="qcurve" smooth="yes"/>
      <point x="322" y="680"/>
      <point x="327" y="690" type="qcurve"/>
      <point x="329" y="683" type="line"/>
      <point x="334" y="683" type="line"/>
      <point x="334" y="692" type="line"/>
      <point x="334" y="744" type="line"/>
    </contour>
    <contour>
      <point x="327" y="699" type="line"/>
      <point x="327" y="697" type="line"/>
      <point x="322" y="687"/>
      <point x="315" y="687" type="qcurve" smooth="yes"/>
      <point x="303" y="687"/>
      <point x="303" y="721"/>
      <point x="315" y="721" type="qcurve" smooth="yes"/>
      <point x="322" y="721"/>
      <point x="327" y="711" type="qcurve"/>
      <point x="327" y="706" type="line"/>
    </contour>
    <contour>
      <point x="367" y="692" type="line" smooth="yes"/>
      <point x="367" y="690"/>
      <point x="365" y="685"/>
      <point x="365" y="683" type="qcurve"/>
      <point x="372" y="683" type="line"/>
      <point x="372" y="690" type="line"/>
      <point x="379" y="680"/>
      <point x="388" y="680" type="qcurve" smooth="yes"/>
      <point x="407" y="680"/>
      <point x="407" y="704" type="qcurve" smooth="yes"/>
      <point x="407" y="725"/>
      <point x="388" y="725" type="qcurve" smooth="yes"/>
      <point x="377" y="725"/>
      <point x="374" y="718" type="qcurve"/>
      <point x="374" y="744" type="line"/>
      <point x="367" y="744" type="line"/>
    </contour>
    <contour>
      <point x="374" y="706" type="line"/>
      <point x="374" y="711" type="line"/>
      <point x="379" y="721"/>
      <point x="386" y="721" type="qcurve" smooth="yes"/>
      <point x="398" y="721"/>
      <point x="398" y="687"/>
      <point x="374" y="687"/>
      <point x="374" y="697" type="qcurve" smooth="yes"/>
      <point x="374" y="699" type="line"/>
    </contour>
    <contour>
      <point x="410" y="725" type="line"/>
      <point x="426" y="685" type="line"/>
      <point x="426" y="683" type="line"/>
      <point x="424" y="678"/>
      <point x="419" y="673" type="qcurve"/>
      <point x="419" y="671"/>
      <point x="415" y="671" type="qcurve"/>
      <point x="415" y="671"/>
      <point x="412" y="668" type="qcurve"/>
      <point x="415" y="664" type="line"/>
      <point x="419" y="664"/>
      <point x="424" y="668" type="qcurve" smooth="yes"/>
      <point x="434" y="675"/>
      <point x="438" y="695" type="qcurve" smooth="yes"/>
      <point x="450" y="725" type="line"/>
      <point x="443" y="725" type="line"/>
      <point x="434" y="699" type="line" smooth="yes"/>
      <point x="431" y="695"/>
      <point x="431" y="692" type="qcurve"/>
      <point x="431" y="695"/>
      <point x="429" y="697" type="qcurve"/>
      <point x="429" y="699" type="line"/>
      <point x="419" y="725" type="line"/>
    </contour>
  </outline>
</glyph>
<glyph name="nintendo" format="2">
  <advance width="1200"/>
  <unicode hex="E22A"/>
  <note>
nintendo
</note>
  <outline>
    <contour>
      <point x="1095" y="852"/>
      <point x="1028" y="852" type="qcurve" smooth="yes"/>
      <point x="172" y="852" type="line" smooth="yes"/>
      <point x="105" y="852"/>
      <point x="20" y="769"/>
      <point x="20" y="651"/>
      <point x="105" y="568"/>
      <point x="172" y="568" type="qcurve" smooth="yes"/>
      <point x="1028" y="568" type="line" smooth="yes"/>
      <point x="1095" y="568"/>
      <point x="1180" y="651"/>
      <point x="1180" y="769"/>
    </contour>
    <contour>
      <point x="1081" y="601"/>
      <point x="1028" y="603" type="qcurve" smooth="yes"/>
      <point x="172" y="603" type="line" smooth="yes"/>
      <point x="119" y="601"/>
      <point x="56" y="665"/>
      <point x="56" y="755"/>
      <point x="119" y="817"/>
      <point x="172" y="817" type="qcurve" smooth="yes"/>
      <point x="1028" y="817" type="line" smooth="yes"/>
      <point x="1081" y="817"/>
      <point x="1144" y="755"/>
      <point x="1144" y="665"/>
    </contour>
    <contour>
      <point x="235" y="779" type="line"/>
      <point x="235" y="684" type="line"/>
      <point x="179" y="779" type="line"/>
      <point x="136" y="779" type="line"/>
      <point x="136" y="644" type="line"/>
      <point x="176" y="644" type="line"/>
      <point x="176" y="736" type="line"/>
      <point x="235" y="644" type="line"/>
      <point x="276" y="644" type="line"/>
      <point x="276" y="779" type="line"/>
    </contour>
    <contour>
      <point x="543" y="731" type="line"/>
      <point x="564" y="731" type="line"/>
      <point x="564" y="746" type="line"/>
      <point x="543" y="746" type="line"/>
      <point x="543" y="764" type="line"/>
      <point x="503" y="764" type="line"/>
      <point x="503" y="746" type="line"/>
      <point x="482" y="746" type="line"/>
      <point x="482" y="731" type="line"/>
      <point x="503" y="731" type="line"/>
      <point x="503" y="644" type="line"/>
      <point x="543" y="644" type="line"/>
    </contour>
    <contour>
      <point x="299" y="644" type="line"/>
      <point x="340" y="644" type="line"/>
      <point x="340" y="731" type="line"/>
      <point x="299" y="731" type="line"/>
    </contour>
    <contour>
      <point x="299" y="750" type="line"/>
      <point x="340" y="750" type="line"/>
      <point x="340" y="779" type="line"/>
      <point x="299" y="779" type="line"/>
    </contour>
    <contour>
      <point x="1033" y="738"/>
      <point x="1007" y="738" type="qcurve" smooth="yes"/>
      <point x="984" y="738"/>
      <point x="948" y="710"/>
      <point x="948" y="667"/>
      <point x="984" y="639"/>
      <point x="1007" y="639" type="qcurve" smooth="yes"/>
      <point x="1033" y="639"/>
      <point x="1066" y="667"/>
      <point x="1066" y="710"/>
    </contour>
    <contour>
      <point x="1024" y="689" type="line"/>
      <point x="1024" y="670" type="line" smooth="yes"/>
      <point x="1024" y="648"/>
      <point x="991" y="648"/>
      <point x="991" y="670" type="qcurve" smooth="yes"/>
      <point x="991" y="689" type="line"/>
      <point x="991" y="708" type="line" smooth="yes"/>
      <point x="991" y="727"/>
      <point x="1024" y="727"/>
      <point x="1024" y="708" type="qcurve" smooth="yes"/>
    </contour>
    <contour>
      <point x="896" y="779" type="line"/>
      <point x="896" y="729" type="line"/>
      <point x="875" y="736"/>
      <point x="872" y="736" type="qcurve" smooth="yes"/>
      <point x="851" y="738"/>
      <point x="823" y="708"/>
      <point x="823" y="689" type="qcurve" smooth="yes"/>
      <point x="823" y="674"/>
      <point x="834" y="653"/>
      <point x="846" y="646"/>
      <point x="849" y="646" type="qcurve"/>
      <point x="875" y="634"/>
      <point x="896" y="648" type="qcurve"/>
      <point x="896" y="644" type="line"/>
      <point x="936" y="644" type="line"/>
      <point x="936" y="779" type="line"/>
    </contour>
    <contour>
      <point x="896" y="705" type="qcurve" smooth="yes"/>
      <point x="896" y="689" type="line"/>
      <point x="896" y="672" type="line" smooth="yes"/>
      <point x="896" y="656"/>
      <point x="882" y="656" type="qcurve" smooth="yes"/>
      <point x="865" y="656"/>
      <point x="865" y="672" type="qcurve" smooth="yes"/>
      <point x="865" y="689" type="line"/>
      <point x="865" y="705" type="line" smooth="yes"/>
      <point x="865" y="722"/>
      <point x="882" y="722" type="qcurve" smooth="yes"/>
      <point x="896" y="722"/>
    </contour>
    <contour>
      <point x="482" y="736"/>
      <point x="434" y="736" type="qcurve" smooth="yes"/>
      <point x="415" y="736"/>
      <point x="404" y="724" type="qcurve"/>
      <point x="404" y="731" type="line"/>
      <point x="363" y="731" type="line"/>
      <point x="363" y="644" type="line"/>
      <point x="404" y="644" type="line"/>
      <point x="404" y="703" type="line" smooth="yes"/>
      <point x="404" y="717"/>
      <point x="441" y="717"/>
      <point x="441" y="703" type="qcurve" smooth="yes"/>
      <point x="441" y="644" type="line"/>
      <point x="482" y="644" type="line"/>
      <point x="482" y="691" type="line" smooth="yes"/>
    </contour>
    <contour>
      <point x="778" y="736"/>
      <point x="763" y="736" type="qcurve" smooth="yes"/>
      <point x="747" y="736"/>
      <point x="730" y="724" type="qcurve"/>
      <point x="730" y="731" type="line"/>
      <point x="692" y="731" type="line"/>
      <point x="692" y="644" type="line"/>
      <point x="730" y="644" type="line"/>
      <point x="730" y="703" type="line" smooth="yes"/>
      <point x="730" y="717"/>
      <point x="752" y="717" type="qcurve" smooth="yes"/>
      <point x="768" y="717"/>
      <point x="768" y="703" type="qcurve" smooth="yes"/>
      <point x="768" y="644" type="line"/>
      <point x="808" y="644" type="line"/>
      <point x="808" y="691" type="line" smooth="yes"/>
      <point x="808" y="715"/>
    </contour>
    <contour>
      <point x="602" y="686" type="line"/>
      <point x="678" y="686" type="line"/>
      <point x="678" y="708"/>
      <point x="643" y="738"/>
      <point x="595" y="738"/>
      <point x="560" y="708"/>
      <point x="560" y="689" type="qcurve" smooth="yes"/>
      <point x="560" y="667"/>
      <point x="595" y="637"/>
      <point x="619" y="637" type="qcurve" smooth="yes"/>
      <point x="664" y="637"/>
      <point x="676" y="674" type="qcurve"/>
      <point x="636" y="674" type="line"/>
      <point x="636" y="670" type="line" smooth="yes"/>
      <point x="636" y="648"/>
      <point x="602" y="648"/>
      <point x="602" y="670" type="qcurve" smooth="yes"/>
    </contour>
    <contour>
      <point x="602" y="715"/>
      <point x="605" y="719" type="qcurve"/>
      <point x="612" y="727"/>
      <point x="619" y="727" type="qcurve" smooth="yes"/>
      <point x="628" y="727"/>
      <point x="633" y="719" type="qcurve" smooth="yes"/>
      <point x="636" y="715"/>
      <point x="636" y="701" type="qcurve"/>
      <point x="602" y="701" type="line"/>
    </contour>
  </outline>
</glyph>
<glyph name="palette-color" format="2">
  <advance width="1200"/>
  <unicode hex="E22B"/>
  <note>
palette-color
</note>
  <outline>
    <contour>
      <point x="1180" y="988"/>
      <point x="840" y="1290"/>
      <point x="360" y="1290"/>
      <point x="20" y="950"/>
      <point x="20" y="470"/>
      <point x="360" y="130"/>
      <point x="600" y="130" type="qcurve" smooth="yes"/>
      <point x="638" y="130"/>
      <point x="696" y="188"/>
      <point x="696" y="226" type="qcurve" smooth="yes"/>
      <point x="696" y="267"/>
      <point x="672" y="291" type="qcurve"/>
      <point x="646" y="327"/>
      <point x="646" y="355" type="qcurve" smooth="yes"/>
      <point x="646" y="394"/>
      <point x="703" y="451"/>
      <point x="741" y="451" type="qcurve" smooth="yes"/>
      <point x="856" y="451" type="line" smooth="yes"/>
      <point x="993" y="451"/>
      <point x="1180" y="640"/>
      <point x="1180" y="775" type="qcurve" smooth="yes"/>
    </contour>
    <contour>
      <point x="341" y="768"/>
      <point x="284" y="710"/>
      <point x="207" y="710"/>
      <point x="149" y="768"/>
      <point x="149" y="844"/>
      <point x="207" y="904"/>
      <point x="284" y="904"/>
      <point x="341" y="847"/>
      <point x="341" y="806"/>
    </contour>
    <contour>
      <point x="478" y="969"/>
      <point x="439" y="969" type="qcurve" smooth="yes"/>
      <point x="399" y="969"/>
      <point x="341" y="1026"/>
      <point x="341" y="1103"/>
      <point x="401" y="1161"/>
      <point x="478" y="1161"/>
      <point x="535" y="1103"/>
      <point x="535" y="1026"/>
    </contour>
    <contour>
      <point x="801" y="969"/>
      <point x="761" y="969" type="qcurve" smooth="yes"/>
      <point x="722" y="969"/>
      <point x="665" y="1026"/>
      <point x="665" y="1103"/>
      <point x="722" y="1161"/>
      <point x="799" y="1161"/>
      <point x="856" y="1103"/>
      <point x="856" y="1026"/>
    </contour>
    <contour>
      <point x="1051" y="768"/>
      <point x="993" y="710"/>
      <point x="916" y="710"/>
      <point x="856" y="768"/>
      <point x="856" y="844"/>
      <point x="916" y="904"/>
      <point x="993" y="904"/>
      <point x="1051" y="844"/>
    </contour>
  </outline>
</glyph>
<glyph name="pi" format="2">
  <advance width="1200"/>
  <unicode hex="E22C"/>
  <note>
pi
</note>
  <outline>
    <contour>
      <point x="981" y="333"/>
      <point x="922" y="369" type="qcurve"/>
      <point x="848" y="426"/>
      <point x="822" y="757"/>
      <point x="846" y="895" type="qcurve" smooth="yes"/>
      <point x="872" y="1032" type="line"/>
      <point x="1076" y="1032" type="line" smooth="yes"/>
      <point x="1092" y="1032"/>
      <point x="1133" y="1044"/>
      <point x="1180" y="1099"/>
      <point x="1180" y="1144" type="qcurve" smooth="yes"/>
      <point x="1180" y="1198"/>
      <point x="1130" y="1257"/>
      <point x="1104" y="1260" type="qcurve" smooth="yes"/>
      <point x="1078" y="1260" type="line"/>
      <point x="332" y="1260" type="line" smooth="yes"/>
      <point x="192" y="1260"/>
      <point x="36" y="1018" type="qcurve" smooth="yes"/>
      <point x="12" y="980"/>
      <point x="36" y="956"/>
      <point x="81" y="975" type="qcurve" smooth="yes"/>
      <point x="171" y="1013"/>
      <point x="301" y="1042"/>
      <point x="320" y="1037" type="qcurve" smooth="yes"/>
      <point x="341" y="1032" type="line"/>
      <point x="356" y="990"/>
      <point x="344" y="613"/>
      <point x="308" y="532" type="qcurve" smooth="yes"/>
      <point x="303" y="521"/>
      <point x="266" y="445"/>
      <point x="249" y="409"/>
      <point x="225" y="343"/>
      <point x="225" y="300"/>
      <point x="232" y="246"/>
      <point x="270" y="203"/>
      <point x="299" y="187" type="qcurve" smooth="yes"/>
      <point x="386" y="137"/>
      <point x="526" y="312"/>
      <point x="517" y="476" type="qcurve" smooth="yes"/>
      <point x="502" y="1032" type="line"/>
      <point x="690" y="1032" type="line"/>
      <point x="659" y="575"/>
      <point x="685" y="407" type="qcurve" smooth="yes"/>
      <point x="697" y="286"/>
      <point x="832" y="158"/>
      <point x="990" y="163"/>
      <point x="1140" y="250"/>
      <point x="1166" y="324" type="qcurve" smooth="yes"/>
      <point x="1189" y="400"/>
      <point x="1166" y="449" type="qcurve" smooth="yes"/>
      <point x="1147" y="499"/>
      <point x="1118" y="502" type="qcurve" smooth="yes"/>
      <point x="1104" y="502"/>
      <point x="1107" y="485" type="qcurve" smooth="yes"/>
      <point x="1111" y="454"/>
      <point x="1104" y="435" type="qcurve"/>
      <point x="1097" y="393"/>
    </contour>
  </outline>
</glyph>
<glyph name="pizza" format="2">
  <advance width="1200"/>
  <unicode hex="E22D"/>
  <note>
pizza
</note>
  <outline>
    <contour>
      <point x="1185" y="456"/>
      <point x="1178" y="484" type="qcurve" smooth="yes"/>
      <point x="1126" y="682"/>
      <point x="928" y="987"/>
      <point x="736" y="1147"/>
      <point x="512" y="1253"/>
      <point x="404" y="1281"/>
      <point x="371" y="1286" type="qcurve" smooth="yes"/>
      <point x="366" y="1286" type="line" smooth="yes"/>
      <point x="340" y="1288"/>
      <point x="296" y="1253"/>
      <point x="293" y="1225" type="qcurve" smooth="yes"/>
      <point x="286" y="1166"/>
      <point x="348" y="1152" type="qcurve"/>
      <point x="25" y="216" type="line" smooth="yes"/>
      <point x="11" y="174"/>
      <point x="35" y="150" type="qcurve" smooth="yes"/>
      <point x="51" y="134"/>
      <point x="75" y="134" type="qcurve" smooth="yes"/>
      <point x="82" y="134"/>
      <point x="101" y="138" type="qcurve" smooth="yes"/>
      <point x="296" y="207" type="line"/>
      <point x="557" y="296" type="line"/>
      <point x="1041" y="463" type="line"/>
      <point x="1041" y="461"/>
      <point x="1046" y="453"/>
      <point x="1046" y="451" type="qcurve" smooth="yes"/>
      <point x="1058" y="399"/>
      <point x="1112" y="399" type="qcurve" smooth="yes"/>
      <point x="1121" y="399"/>
      <point x="1128" y="402" type="qcurve" smooth="yes"/>
      <point x="1154" y="409"/>
    </contour>
    <contour>
      <point x="1023" y="529" type="qcurve"/>
      <point x="547" y="364" type="line"/>
      <point x="538" y="388"/>
      <point x="515" y="416" type="qcurve" smooth="yes"/>
      <point x="470" y="461"/>
      <point x="345" y="461"/>
      <point x="300" y="416" type="qcurve" smooth="yes"/>
      <point x="235" y="350"/>
      <point x="263" y="268" type="qcurve"/>
      <point x="93" y="209" type="line"/>
      <point x="235" y="620" type="line"/>
      <point x="249" y="599"/>
      <point x="249" y="599" type="qcurve"/>
      <point x="277" y="571"/>
      <point x="357" y="571"/>
      <point x="413" y="628"/>
      <point x="413" y="708"/>
      <point x="385" y="736" type="qcurve" smooth="yes"/>
      <point x="340" y="780"/>
      <point x="282" y="757" type="qcurve"/>
      <point x="413" y="1138" type="line"/>
      <point x="463" y="1126"/>
      <point x="569" y="1084"/>
      <point x="719" y="990"/>
      <point x="848" y="865"/>
      <point x="980" y="656"/>
    </contour>
    <contour>
      <point x="592" y="1013"/>
      <point x="573" y="1013" type="qcurve" smooth="yes"/>
      <point x="529" y="1013"/>
      <point x="529" y="969" type="qcurve" smooth="yes"/>
      <point x="529" y="950"/>
      <point x="554" y="922"/>
      <point x="592" y="922"/>
      <point x="620" y="950"/>
      <point x="620" y="987"/>
    </contour>
    <contour>
      <point x="604" y="581"/>
      <point x="583" y="557" type="qcurve" smooth="yes"/>
      <point x="559" y="536"/>
      <point x="559" y="475"/>
      <point x="583" y="453" type="qcurve" smooth="yes"/>
      <point x="604" y="432"/>
      <point x="665" y="432"/>
      <point x="707" y="475"/>
      <point x="707" y="536"/>
      <point x="686" y="557" type="qcurve" smooth="yes"/>
      <point x="665" y="581"/>
    </contour>
    <contour>
      <point x="830" y="780"/>
      <point x="773" y="837"/>
      <point x="736" y="837" type="qcurve" smooth="yes"/>
      <point x="696" y="837"/>
      <point x="639" y="783"/>
      <point x="639" y="703"/>
      <point x="696" y="646"/>
      <point x="776" y="646"/>
      <point x="830" y="703"/>
      <point x="830" y="743" type="qcurve" smooth="yes"/>
    </contour>
  </outline>
</glyph>
<glyph name="planet" format="2">
  <advance width="1200"/>
  <unicode hex="E22E"/>
  <note>
planet
</note>
  <outline>
    <contour>
      <point x="983" y="949"/>
      <point x="839" y="956" type="qcurve"/>
      <point x="837" y="959"/>
      <point x="830" y="964" type="qcurve" smooth="yes"/>
      <point x="822" y="971"/>
      <point x="818" y="973" type="qcurve"/>
      <point x="724" y="1052"/>
      <point x="600" y="1052" type="qcurve" smooth="yes"/>
      <point x="411" y="1052"/>
      <point x="311" y="892" type="qcurve" smooth="yes"/>
      <point x="306" y="882"/>
      <point x="303" y="880" type="qcurve"/>
      <point x="303" y="877"/>
      <point x="299" y="870"/>
      <point x="296" y="868" type="qcurve"/>
      <point x="160" y="815"/>
      <point x="12" y="681"/>
      <point x="31" y="552"/>
      <point x="217" y="471"/>
      <point x="361" y="464" type="qcurve" smooth="yes"/>
      <point x="413" y="464" type="line" smooth="yes"/>
      <point x="533" y="464"/>
      <point x="638" y="483" type="qcurve" smooth="yes"/>
      <point x="782" y="504"/>
      <point x="904" y="552" type="qcurve" smooth="yes"/>
      <point x="1038" y="602"/>
      <point x="1188" y="739"/>
      <point x="1169" y="868"/>
    </contour>
    <contour>
      <point x="1052" y="801"/>
      <point x="940" y="741" type="qcurve" smooth="yes"/>
      <point x="808" y="669"/>
      <point x="612" y="638" type="qcurve" smooth="yes"/>
      <point x="511" y="621"/>
      <point x="406" y="621" type="qcurve" smooth="yes"/>
      <point x="323" y="621"/>
      <point x="267" y="631" type="qcurve" smooth="yes"/>
      <point x="138" y="660"/>
      <point x="131" y="715" type="qcurve" smooth="yes"/>
      <point x="124" y="751"/>
      <point x="212" y="827"/>
      <point x="296" y="863" type="qcurve"/>
      <point x="294" y="861"/>
      <point x="289" y="854"/>
      <point x="289" y="849"/>
      <point x="284" y="842"/>
      <point x="282" y="839" type="qcurve"/>
      <point x="258" y="775"/>
      <point x="258" y="710" type="qcurve" smooth="yes"/>
      <point x="258" y="688"/>
      <point x="263" y="650" type="qcurve"/>
      <point x="327" y="638"/>
      <point x="406" y="638" type="qcurve" smooth="yes"/>
      <point x="509" y="638"/>
      <point x="610" y="655" type="qcurve" smooth="yes"/>
      <point x="796" y="684"/>
      <point x="921" y="751" type="qcurve" smooth="yes"/>
      <point x="935" y="758"/>
      <point x="937" y="760" type="qcurve"/>
      <point x="923" y="854"/>
      <point x="858" y="935" type="qcurve" smooth="yes"/>
      <point x="854" y="940"/>
      <point x="851" y="944" type="qcurve"/>
      <point x="849" y="944"/>
      <point x="844" y="949"/>
      <point x="842" y="952" type="qcurve"/>
      <point x="1031" y="935"/>
      <point x="1045" y="863" type="qcurve" smooth="yes"/>
    </contour>
    <contour>
      <point x="514" y="444"/>
      <point x="413" y="444" type="qcurve" smooth="yes"/>
      <point x="406" y="444"/>
      <point x="387" y="447"/>
      <point x="382" y="447" type="qcurve"/>
      <point x="476" y="368"/>
      <point x="600" y="368" type="qcurve" smooth="yes"/>
      <point x="789" y="368"/>
      <point x="889" y="528" type="qcurve"/>
      <point x="779" y="490"/>
      <point x="641" y="464" type="qcurve" smooth="yes"/>
    </contour>
  </outline>
</glyph>
<glyph name="plant" format="2">
  <advance width="1200"/>
  <unicode hex="E22F"/>
  <note>
plant
</note>
  <outline>
    <contour>
      <point x="702" y="807"/>
      <point x="728" y="708" type="qcurve"/>
      <point x="686" y="670"/>
      <point x="652" y="605" type="qcurve"/>
      <point x="619" y="724"/>
      <point x="567" y="803" type="qcurve"/>
      <point x="595" y="903"/>
      <point x="567" y="1055"/>
      <point x="472" y="1159"/>
      <point x="348" y="1228"/>
      <point x="210" y="1269"/>
      <point x="96" y="1288"/>
      <point x="58" y="1290" type="qcurve" smooth="yes"/>
      <point x="20" y="1292" type="line"/>
      <point x="20" y="1269"/>
      <point x="27" y="1190"/>
      <point x="72" y="988"/>
      <point x="146" y="834"/>
      <point x="298" y="712"/>
      <point x="398" y="717" type="qcurve"/>
      <point x="398" y="777"/>
      <point x="384" y="834" type="qcurve" smooth="yes"/>
      <point x="377" y="862"/>
      <point x="365" y="903" type="qcurve"/>
      <point x="315" y="1024" type="line"/>
      <point x="353" y="971"/>
      <point x="386" y="924" type="qcurve" smooth="yes"/>
      <point x="479" y="777"/>
      <point x="512" y="686" type="qcurve"/>
      <point x="595" y="510"/>
      <point x="595" y="180" type="qcurve" smooth="yes"/>
      <point x="595" y="159"/>
      <point x="626" y="128"/>
      <point x="669" y="128"/>
      <point x="700" y="159"/>
      <point x="700" y="180" type="qcurve" smooth="yes"/>
      <point x="700" y="315"/>
      <point x="690" y="401" type="qcurve"/>
      <point x="714" y="513"/>
      <point x="757" y="579" type="qcurve"/>
      <point x="785" y="639"/>
      <point x="847" y="724" type="qcurve" smooth="yes"/>
      <point x="916" y="815"/>
      <point x="985" y="865" type="qcurve"/>
      <point x="878" y="743"/>
      <point x="871" y="627" type="qcurve"/>
      <point x="954" y="622"/>
      <point x="1080" y="712"/>
      <point x="1137" y="848"/>
      <point x="1173" y="983"/>
      <point x="1175" y="1033" type="qcurve" smooth="yes"/>
      <point x="1180" y="1081" type="line"/>
      <point x="1159" y="1081"/>
      <point x="1085" y="1074"/>
      <point x="907" y="1029"/>
      <point x="781" y="957"/>
    </contour>
  </outline>
</glyph>
<glyph name="playstation" format="2">
  <advance width="1200"/>
  <unicode hex="E230"/>
  <note>
playstation
</note>
  <outline>
    <contour>
      <point x="713" y="991"/>
      <point x="682" y="1013"/>
      <point x="663" y="1010" type="qcurve"/>
      <point x="658" y="1008" type="line"/>
      <point x="644" y="991"/>
      <point x="644" y="968" type="qcurve" smooth="yes"/>
      <point x="644" y="319" type="line" smooth="yes"/>
      <point x="644" y="281"/>
      <point x="646" y="262" type="qcurve"/>
      <point x="636" y="262" type="line"/>
      <point x="641" y="267" type="line"/>
      <point x="636" y="264"/>
      <point x="617" y="271" type="qcurve"/>
      <point x="613" y="271"/>
      <point x="596" y="276"/>
      <point x="591" y="278" type="qcurve"/>
      <point x="591" y="281"/>
      <point x="582" y="281"/>
      <point x="582" y="283" type="qcurve"/>
      <point x="572" y="283" type="line"/>
      <point x="572" y="286" type="line"/>
      <point x="551" y="293" type="line"/>
      <point x="543" y="293"/>
      <point x="534" y="298" type="qcurve"/>
      <point x="531" y="298"/>
      <point x="527" y="300" type="qcurve"/>
      <point x="520" y="300"/>
      <point x="515" y="305" type="qcurve"/>
      <point x="508" y="305"/>
      <point x="505" y="307" type="qcurve"/>
      <point x="503" y="307"/>
      <point x="496" y="309"/>
      <point x="493" y="309" type="qcurve" smooth="yes"/>
      <point x="489" y="309"/>
      <point x="472" y="317"/>
      <point x="467" y="319" type="qcurve"/>
      <point x="462" y="319"/>
      <point x="453" y="324" type="qcurve"/>
      <point x="453" y="1158" type="line"/>
      <point x="465" y="1158"/>
      <point x="474" y="1153"/>
      <point x="481" y="1153" type="qcurve"/>
      <point x="500" y="1149"/>
      <point x="508" y="1146" type="qcurve"/>
      <point x="517" y="1146"/>
      <point x="520" y="1144" type="qcurve"/>
      <point x="522" y="1144"/>
      <point x="527" y="1144" type="qcurve"/>
      <point x="531" y="1142" type="line"/>
      <point x="551" y="1137"/>
      <point x="555" y="1137" type="qcurve"/>
      <point x="555" y="1134" type="line"/>
      <point x="574" y="1130"/>
      <point x="589" y="1125" type="qcurve" smooth="yes"/>
      <point x="613" y="1120"/>
      <point x="620" y="1115" type="qcurve"/>
      <point x="629" y="1115" type="line"/>
      <point x="629" y="1113" type="line"/>
      <point x="639" y="1113" type="line"/>
      <point x="644" y="1108"/>
      <point x="648" y="1108" type="qcurve"/>
      <point x="670" y="1101" type="line" smooth="yes"/>
      <point x="679" y="1099"/>
      <point x="708" y="1089"/>
      <point x="713" y="1089" type="qcurve"/>
      <point x="717" y="1084"/>
      <point x="725" y="1084" type="qcurve"/>
      <point x="725" y="1082"/>
      <point x="729" y="1082" type="qcurve"/>
      <point x="729" y="1082"/>
      <point x="732" y="1080" type="qcurve"/>
      <point x="734" y="1080"/>
      <point x="744" y="1077"/>
      <point x="746" y="1077" type="qcurve"/>
      <point x="751" y="1072"/>
      <point x="756" y="1072" type="qcurve"/>
      <point x="765" y="1068" type="line" smooth="yes"/>
      <point x="775" y="1063"/>
      <point x="782" y="1061" type="qcurve" smooth="yes"/>
      <point x="796" y="1053" type="line"/>
      <point x="798" y="1053" type="line"/>
      <point x="820" y="1039" type="line"/>
      <point x="825" y="1037" type="line" smooth="yes"/>
      <point x="829" y="1034"/>
      <point x="829" y="1032" type="qcurve"/>
      <point x="839" y="1027"/>
      <point x="870" y="1001" type="qcurve"/>
      <point x="868" y="999" type="line"/>
      <point x="870" y="999" type="line"/>
      <point x="882" y="984"/>
      <point x="894" y="968" type="qcurve"/>
      <point x="896" y="968"/>
      <point x="899" y="963" type="qcurve" smooth="yes"/>
      <point x="901" y="958" type="line"/>
      <point x="901" y="956"/>
      <point x="906" y="946" type="qcurve"/>
      <point x="906" y="941"/>
      <point x="911" y="937" type="qcurve"/>
      <point x="911" y="929"/>
      <point x="920" y="906"/>
      <point x="920" y="898" type="qcurve"/>
      <point x="922" y="896" type="line"/>
      <point x="922" y="877" type="line"/>
      <point x="925" y="877" type="line"/>
      <point x="930" y="801"/>
      <point x="927" y="779" type="qcurve" smooth="yes"/>
      <point x="927" y="765"/>
      <point x="925" y="760" type="qcurve" smooth="yes"/>
      <point x="922" y="753"/>
      <point x="922" y="743" type="qcurve"/>
      <point x="918" y="729"/>
      <point x="918" y="724" type="qcurve"/>
      <point x="913" y="720"/>
      <point x="913" y="712" type="qcurve"/>
      <point x="911" y="710"/>
      <point x="906" y="703"/>
      <point x="906" y="700" type="qcurve" smooth="yes"/>
      <point x="906" y="698" type="line"/>
      <point x="901" y="693"/>
      <point x="901" y="689"/>
      <point x="896" y="681"/>
      <point x="894" y="679" type="qcurve"/>
      <point x="891" y="679"/>
      <point x="889" y="677" type="qcurve" smooth="yes"/>
      <point x="884" y="672" type="line"/>
      <point x="875" y="662" type="line" smooth="yes"/>
      <point x="872" y="660"/>
      <point x="868" y="658" type="qcurve"/>
      <point x="863" y="653" type="line"/>
      <point x="860" y="653"/>
      <point x="856" y="648" type="qcurve"/>
      <point x="853" y="648" type="line"/>
      <point x="829" y="636"/>
      <point x="770" y="641" type="qcurve"/>
      <point x="763" y="643"/>
      <point x="739" y="650"/>
      <point x="737" y="650" type="qcurve"/>
      <point x="727" y="655"/>
      <point x="725" y="655" type="qcurve"/>
      <point x="725" y="658" type="line"/>
      <point x="720" y="658" type="line"/>
      <point x="720" y="660" type="line"/>
      <point x="717" y="660" type="line"/>
      <point x="717" y="884" type="line" smooth="yes"/>
      <point x="717" y="944"/>
      <point x="715" y="972" type="qcurve" smooth="yes"/>
    </contour>
    <contour>
      <point x="417" y="376" type="line"/>
      <point x="412" y="374"/>
      <point x="398" y="371"/>
      <point x="388" y="371"/>
      <point x="369" y="369"/>
      <point x="362" y="369" type="qcurve"/>
      <point x="365" y="367" type="line"/>
      <point x="341" y="367"/>
      <point x="329" y="364" type="qcurve"/>
      <point x="288" y="364"/>
      <point x="269" y="367" type="qcurve" smooth="yes"/>
      <point x="233" y="367" type="line"/>
      <point x="233" y="369" type="line"/>
      <point x="231" y="369"/>
      <point x="212" y="371"/>
      <point x="207" y="371" type="qcurve"/>
      <point x="207" y="383"/>
      <point x="202" y="374" type="qcurve"/>
      <point x="193" y="374" type="line"/>
      <point x="190" y="376" type="line"/>
      <point x="181" y="376"/>
      <point x="176" y="379" type="qcurve"/>
      <point x="167" y="379"/>
      <point x="157" y="383"/>
      <point x="150" y="383" type="qcurve" smooth="yes"/>
      <point x="148" y="383"/>
      <point x="143" y="386" type="qcurve"/>
      <point x="140" y="386"/>
      <point x="138" y="388" type="qcurve"/>
      <point x="126" y="388" type="line"/>
      <point x="126" y="390" type="line"/>
      <point x="107" y="395"/>
      <point x="97" y="400" type="qcurve"/>
      <point x="93" y="400"/>
      <point x="83" y="405" type="qcurve"/>
      <point x="78" y="405"/>
      <point x="74" y="410" type="qcurve"/>
      <point x="71" y="410" type="line"/>
      <point x="66" y="412"/>
      <point x="64" y="412" type="qcurve"/>
      <point x="59" y="417"/>
      <point x="50" y="421" type="qcurve"/>
      <point x="40" y="431"/>
      <point x="35" y="433" type="qcurve"/>
      <point x="31" y="438"/>
      <point x="26" y="448" type="qcurve" smooth="yes"/>
      <point x="14" y="467"/>
      <point x="26" y="488" type="qcurve" smooth="yes"/>
      <point x="28" y="493"/>
      <point x="47" y="512" type="qcurve"/>
      <point x="59" y="514"/>
      <point x="64" y="522" type="qcurve"/>
      <point x="64" y="524" type="line"/>
      <point x="66" y="524"/>
      <point x="69" y="522" type="qcurve"/>
      <point x="69" y="524" type="line"/>
      <point x="74" y="526"/>
      <point x="83" y="531" type="qcurve"/>
      <point x="86" y="534"/>
      <point x="90" y="534"/>
      <point x="102" y="538"/>
      <point x="105" y="541" type="qcurve"/>
      <point x="105" y="541"/>
      <point x="114" y="545" type="qcurve"/>
      <point x="117" y="548"/>
      <point x="136" y="553"/>
      <point x="138" y="553" type="qcurve"/>
      <point x="138" y="555" type="line"/>
      <point x="148" y="555" type="line"/>
      <point x="152" y="560"/>
      <point x="157" y="562" type="qcurve"/>
      <point x="162" y="562" type="line"/>
      <point x="164" y="565"/>
      <point x="171" y="565" type="qcurve"/>
      <point x="176" y="567"/>
      <point x="195" y="574"/>
      <point x="200" y="576" type="qcurve"/>
      <point x="205" y="576" type="line"/>
      <point x="207" y="579"/>
      <point x="210" y="579" type="qcurve"/>
      <point x="224" y="586" type="line"/>
      <point x="231" y="586" type="line"/>
      <point x="236" y="588"/>
      <point x="255" y="596"/>
      <point x="260" y="598" type="qcurve" smooth="yes"/>
      <point x="279" y="605"/>
      <point x="283" y="607" type="qcurve"/>
      <point x="291" y="607" type="line"/>
      <point x="305" y="615" type="line"/>
      <point x="312" y="615"/>
      <point x="314" y="617" type="qcurve"/>
      <point x="324" y="619"/>
      <point x="338" y="624" type="qcurve" smooth="yes"/>
      <point x="353" y="631" type="line"/>
      <point x="374" y="638" type="line"/>
      <point x="376" y="638"/>
      <point x="386" y="643" type="qcurve"/>
      <point x="391" y="643" type="line"/>
      <point x="396" y="646"/>
      <point x="398" y="646" type="qcurve"/>
      <point x="400" y="648"/>
      <point x="405" y="648"/>
      <point x="407" y="650" type="qcurve"/>
      <point x="407" y="653" type="line"/>
      <point x="417" y="653" type="line"/>
      <point x="417" y="543" type="line"/>
      <point x="403" y="538"/>
      <point x="398" y="536" type="qcurve"/>
      <point x="393" y="536"/>
      <point x="391" y="534" type="qcurve"/>
      <point x="386" y="534"/>
      <point x="381" y="529" type="qcurve"/>
      <point x="376" y="529" type="line"/>
      <point x="372" y="526"/>
      <point x="345" y="517"/>
      <point x="338" y="514" type="qcurve"/>
      <point x="329" y="514" type="line"/>
      <point x="329" y="512" type="line"/>
      <point x="326" y="510"/>
      <point x="319" y="507"/>
      <point x="317" y="507" type="qcurve"/>
      <point x="312" y="505"/>
      <point x="305" y="505" type="qcurve"/>
      <point x="307" y="503" type="line"/>
      <point x="305" y="503"/>
      <point x="298" y="500"/>
      <point x="293" y="500"/>
      <point x="283" y="495"/>
      <point x="281" y="495" type="qcurve"/>
      <point x="281" y="493" type="line"/>
      <point x="274" y="493" type="line"/>
      <point x="264" y="488"/>
      <point x="257" y="486" type="qcurve" smooth="yes"/>
      <point x="248" y="483"/>
      <point x="219" y="472"/>
      <point x="217" y="472" type="qcurve"/>
      <point x="214" y="469"/>
      <point x="205" y="464" type="qcurve"/>
      <point x="205" y="464"/>
      <point x="195" y="460" type="qcurve"/>
      <point x="195" y="457"/>
      <point x="193" y="448"/>
      <point x="193" y="445" type="qcurve"/>
      <point x="195" y="445" type="line"/>
      <point x="198" y="441" type="line"/>
      <point x="207" y="436"/>
      <point x="210" y="436" type="qcurve"/>
      <point x="214" y="433"/>
      <point x="221" y="433" type="qcurve"/>
      <point x="221" y="431" type="line"/>
      <point x="255" y="426"/>
      <point x="288" y="431" type="qcurve"/>
      <point x="288" y="433" type="line"/>
      <point x="310" y="433"/>
      <point x="326" y="441" type="qcurve"/>
      <point x="326" y="443"/>
      <point x="331" y="443" type="qcurve" smooth="yes"/>
      <point x="334" y="443"/>
      <point x="341" y="448"/>
      <point x="345" y="448"/>
      <point x="350" y="450" type="qcurve"/>
      <point x="353" y="450"/>
      <point x="355" y="452" type="qcurve"/>
      <point x="362" y="452"/>
      <point x="367" y="457" type="qcurve"/>
      <point x="369" y="457"/>
      <point x="374" y="457" type="qcurve"/>
      <point x="379" y="460" type="line" smooth="yes"/>
      <point x="381" y="462"/>
      <point x="396" y="467"/>
      <point x="400" y="469" type="qcurve"/>
      <point x="405" y="469" type="line"/>
      <point x="405" y="472" type="line"/>
      <point x="412" y="472"/>
      <point x="417" y="474" type="qcurve"/>
    </contour>
    <contour>
      <point x="1180" y="488"/>
      <point x="1175" y="481" type="qcurve"/>
      <point x="1173" y="481"/>
      <point x="1173" y="476" type="qcurve"/>
      <point x="1173" y="476"/>
      <point x="1170" y="474" type="qcurve"/>
      <point x="1170" y="472"/>
      <point x="1168" y="469" type="qcurve"/>
      <point x="1166" y="469" type="line"/>
      <point x="1163" y="464" type="line"/>
      <point x="1149" y="452"/>
      <point x="1116" y="433" type="qcurve"/>
      <point x="1113" y="433"/>
      <point x="1097" y="426"/>
      <point x="1092" y="424" type="qcurve" smooth="yes"/>
      <point x="1089" y="421"/>
      <point x="1082" y="421" type="qcurve"/>
      <point x="1063" y="412"/>
      <point x="1020" y="398" type="qcurve"/>
      <point x="1018" y="395"/>
      <point x="1008" y="395"/>
      <point x="1006" y="393" type="qcurve"/>
      <point x="1006" y="390"/>
      <point x="996" y="390"/>
      <point x="996" y="388" type="qcurve"/>
      <point x="989" y="388" type="line"/>
      <point x="975" y="381" type="line"/>
      <point x="973" y="381" type="line"/>
      <point x="968" y="379"/>
      <point x="965" y="379" type="qcurve"/>
      <point x="961" y="376"/>
      <point x="942" y="369"/>
      <point x="937" y="367" type="qcurve"/>
      <point x="934" y="367"/>
      <point x="927" y="364"/>
      <point x="925" y="364" type="qcurve"/>
      <point x="915" y="359"/>
      <point x="913" y="359" type="qcurve"/>
      <point x="911" y="357"/>
      <point x="903" y="357" type="qcurve"/>
      <point x="889" y="350" type="line"/>
      <point x="882" y="350" type="line"/>
      <point x="868" y="343" type="line"/>
      <point x="863" y="343" type="line"/>
      <point x="858" y="340" type="line"/>
      <point x="858" y="338" type="line"/>
      <point x="849" y="336"/>
      <point x="813" y="324"/>
      <point x="806" y="321" type="qcurve"/>
      <point x="806" y="319"/>
      <point x="796" y="319"/>
      <point x="796" y="317" type="qcurve"/>
      <point x="775" y="309" type="line" smooth="yes"/>
      <point x="756" y="302"/>
      <point x="751" y="300" type="qcurve"/>
      <point x="744" y="300"/>
      <point x="741" y="298" type="qcurve"/>
      <point x="727" y="293"/>
      <point x="722" y="290" type="qcurve" smooth="yes"/>
      <point x="679" y="276" type="line"/>
      <point x="679" y="383" type="line"/>
      <point x="694" y="390" type="line"/>
      <point x="715" y="398" type="line" smooth="yes"/>
      <point x="720" y="400"/>
      <point x="732" y="405"/>
      <point x="734" y="405" type="qcurve"/>
      <point x="737" y="407"/>
      <point x="748" y="410"/>
      <point x="751" y="410" type="qcurve"/>
      <point x="751" y="412" type="line"/>
      <point x="763" y="412" type="line"/>
      <point x="760" y="414" type="line"/>
      <point x="770" y="417"/>
      <point x="784" y="421" type="qcurve" smooth="yes"/>
      <point x="798" y="429" type="line"/>
      <point x="801" y="429"/>
      <point x="806" y="431"/>
      <point x="808" y="431" type="qcurve"/>
      <point x="810" y="433"/>
      <point x="818" y="433" type="qcurve"/>
      <point x="832" y="441" type="line"/>
      <point x="849" y="443"/>
      <point x="870" y="452" type="qcurve"/>
      <point x="872" y="452"/>
      <point x="877" y="457"/>
      <point x="880" y="457" type="qcurve" smooth="yes"/>
      <point x="884" y="457" type="line"/>
      <point x="889" y="462"/>
      <point x="894" y="462" type="qcurve" smooth="yes"/>
      <point x="896" y="462"/>
      <point x="899" y="462" type="qcurve"/>
      <point x="901" y="464" type="line"/>
      <point x="944" y="479" type="line"/>
      <point x="946" y="481"/>
      <point x="953" y="481" type="qcurve"/>
      <point x="953" y="483" type="line"/>
      <point x="956" y="483"/>
      <point x="958" y="486" type="qcurve"/>
      <point x="963" y="486" type="line"/>
      <point x="984" y="493"/>
      <point x="987" y="493" type="qcurve"/>
      <point x="987" y="495" type="line"/>
      <point x="1001" y="503" type="line"/>
      <point x="1004" y="503" type="line"/>
      <point x="1006" y="507" type="line"/>
      <point x="1011" y="510" type="line"/>
      <point x="1018" y="519"/>
      <point x="1004" y="529" type="qcurve" smooth="yes"/>
      <point x="994" y="534" type="line" smooth="yes"/>
      <point x="987" y="536"/>
      <point x="973" y="536" type="qcurve"/>
      <point x="975" y="538" type="line"/>
      <point x="934" y="538"/>
      <point x="927" y="536" type="qcurve"/>
      <point x="915" y="536"/>
      <point x="911" y="534" type="qcurve"/>
      <point x="889" y="529"/>
      <point x="887" y="526" type="qcurve" smooth="yes"/>
      <point x="882" y="524"/>
      <point x="865" y="519"/>
      <point x="860" y="519" type="qcurve"/>
      <point x="856" y="517" type="line" smooth="yes"/>
      <point x="853" y="514"/>
      <point x="851" y="514" type="qcurve" smooth="yes"/>
      <point x="844" y="514" type="line"/>
      <point x="829" y="507" type="line" smooth="yes"/>
      <point x="825" y="505"/>
      <point x="808" y="500"/>
      <point x="803" y="500" type="qcurve"/>
      <point x="803" y="498" type="line"/>
      <point x="798" y="498"/>
      <point x="789" y="493" type="qcurve"/>
      <point x="784" y="493"/>
      <point x="782" y="491" type="qcurve"/>
      <point x="779" y="491"/>
      <point x="768" y="486"/>
      <point x="765" y="486" type="qcurve"/>
      <point x="763" y="483"/>
      <point x="756" y="481"/>
      <point x="753" y="481" type="qcurve"/>
      <point x="739" y="476"/>
      <point x="729" y="472" type="qcurve"/>
      <point x="725" y="472" type="line"/>
      <point x="715" y="467"/>
      <point x="708" y="464" type="qcurve"/>
      <point x="703" y="464"/>
      <point x="701" y="462" type="qcurve"/>
      <point x="679" y="455" type="line"/>
      <point x="679" y="557" type="line"/>
      <point x="677" y="565"/>
      <point x="682" y="569" type="qcurve"/>
      <point x="686" y="572"/>
      <point x="701" y="576" type="qcurve"/>
      <point x="708" y="576" type="line"/>
      <point x="722" y="581"/>
      <point x="741" y="586" type="qcurve"/>
      <point x="744" y="588"/>
      <point x="756" y="591"/>
      <point x="760" y="591"/>
      <point x="770" y="593"/>
      <point x="772" y="593" type="qcurve"/>
      <point x="777" y="596"/>
      <point x="789" y="596" type="qcurve"/>
      <point x="789" y="598" type="line"/>
      <point x="815" y="598" type="line"/>
      <point x="815" y="600" type="line"/>
      <point x="849" y="605"/>
      <point x="865" y="605" type="qcurve"/>
      <point x="865" y="607" type="line"/>
      <point x="875" y="605"/>
      <point x="903" y="605"/>
      <point x="913" y="605" type="qcurve" smooth="yes"/>
      <point x="927" y="603"/>
      <point x="953" y="603" type="qcurve" smooth="yes"/>
      <point x="958" y="603"/>
      <point x="968" y="600"/>
      <point x="973" y="600" type="qcurve"/>
      <point x="970" y="598" type="line"/>
      <point x="996" y="598" type="line" smooth="yes"/>
      <point x="999" y="598"/>
      <point x="1030" y="591" type="qcurve"/>
      <point x="1035" y="588"/>
      <point x="1042" y="588" type="qcurve"/>
      <point x="1042" y="586" type="line"/>
      <point x="1044" y="586"/>
      <point x="1073" y="579" type="qcurve"/>
      <point x="1077" y="579"/>
      <point x="1104" y="569"/>
      <point x="1111" y="567" type="qcurve"/>
      <point x="1116" y="562"/>
      <point x="1120" y="562" type="qcurve"/>
      <point x="1123" y="560"/>
      <point x="1132" y="555" type="qcurve"/>
      <point x="1135" y="557" type="line"/>
      <point x="1137" y="553" type="line"/>
      <point x="1139" y="553" type="line"/>
      <point x="1154" y="543"/>
      <point x="1159" y="538" type="qcurve"/>
      <point x="1163" y="538" type="line"/>
      <point x="1163" y="536" type="line"/>
      <point x="1168" y="531"/>
      <point x="1170" y="526" type="qcurve"/>
      <point x="1175" y="522" type="line"/>
      <point x="1175" y="519" type="line"/>
      <point x="1175" y="519"/>
      <point x="1180" y="510" type="qcurve"/>
    </contour>
  </outline>
</glyph>
